<?xml version="1.0" encoding="UTF-8" standalone="no"?>
<!-- Created with Inkscape (http://www.inkscape.org/) -->

<svg
   version="1.1"
   id="svg668"
   width="192"
   height="288"
   viewBox="0 0 192 288"
   xmlns="http://www.w3.org/2000/svg"
   xmlns:svg="http://www.w3.org/2000/svg">
  <defs
     id="defs672" />
  <g
     id="g674">
    <g
       id="g678"
       transform="translate(0.35380437,0.70761668)">
      <path
         style="fill:#fefefe;stroke-width:0.32"
         d="M 0,144 V 0 h 96 96 V 144 288 H 96 0 Z m 70.56,107.531 c 3.672499,-0.91689 7.105206,-2.34929 8.617648,-3.59597 1.129923,-0.93138 5.267578,-3.09617 6.92064,-3.62083 1.358739,-0.43125 2.098157,-1.79062 2.955898,-5.4342 1.232812,-5.23684 1.349331,-8.32035 0.345881,-9.15314 C 89.046662,229.43356 88.96,227.67169 88.96,220.78031 v -8.58133 l 2.270986,0.79344 c 1.24904,0.43638 2.636784,1.03311 3.083875,1.32606 1.15679,0.75796 5.302893,0.75804 6.777089,1.3e-4 0.60057,-0.30876 1.11251,-0.52476 1.13765,-0.48 0.0251,0.0448 0.43319,1.08939 0.90678,2.32139 0.95269,2.47829 1.22703,3.63106 1.97364,8.29301 l 0.50815,3.17301 -0.88909,0.9819 c -0.48899,0.54004 -0.98133,1.05619 -1.09408,1.14699 -0.11275,0.0908 -0.54475,0.81309 -0.96,1.60509 -0.67768,1.29252 -0.75432,1.84967 -0.7483,5.44 0.006,3.42611 0.10679,4.21664 0.70433,5.50997 0.75526,1.63471 0.88215,1.69683 4.07632,1.9957 1.0603,0.0992 3.33409,0.72981 5.12,1.41995 2.10868,0.81487 4.0193,1.31658 5.56008,1.46001 1.29108,0.12019 3.21784,0.49659 4.28168,0.83645 1.06385,0.33986 2.39821,0.61792 2.96525,0.61792 1.22373,0 2.99918,-1.11589 3.66618,-2.30423 0.99486,-1.77247 -0.66607,-6.06238 -3.70146,-9.56024 -0.24077,-0.27746 -0.76728,-1.14146 -1.17002,-1.92 -1.03821,-2.00699 -2.67547,-4.27973 -4.66237,-6.47202 -1.53024,-1.68843 -1.69037,-1.99796 -1.49865,-2.89696 1.50278,-7.04665 2.08727,-12.16769 2.10042,-18.40288 0.01,-4.66463 0.0462,-4.94535 0.7105,-5.48326 0.38508,-0.31182 0.87882,-0.49838 1.09719,-0.41458 0.22735,0.0872 0.45961,-0.16781 0.54342,-0.59674 0.0805,-0.412 0.44337,-2.04509 0.80637,-3.62909 0.363,-1.584 0.87549,-4.16033 1.13888,-5.72518 0.26338,-1.56485 0.54769,-2.91399 0.63179,-2.99809 0.0841,-0.0841 0.38606,0.0802 0.67101,0.36517 0.28495,0.28496 0.54381,0.52312 0.57524,0.52926 5.6745,1.10865 7.33471,1.16961 8.90675,0.32704 0.63807,-0.34198 1.24794,-0.53398 1.35526,-0.42666 0.10732,0.10732 0.19513,0.0271 0.19513,-0.17821 0,-0.20533 0.1909,-0.37333 0.42422,-0.37333 0.67267,0 1.60057,-1.22665 3.20503,-4.23696 1.21859,-2.28632 1.49075,-3.09745 1.49075,-4.44287 0,-1.78431 -0.50974,-3.90753 -1.17911,-4.91137 -0.23149,-0.34716 -0.42089,-0.83028 -0.42089,-1.07359 0,-0.24332 -0.42819,-1.07686 -0.95154,-1.85231 -0.82181,-1.21769 -0.90206,-1.51851 -0.58864,-2.20641 0.1996,-0.43807 0.46068,-0.79649 0.58018,-0.79649 0.1195,0 0.38448,-0.36698 0.58884,-0.8155 0.47985,-1.05316 -0.12418,-2.30183 -1.60853,-3.32518 -1.04686,-0.72173 -2.50031,-3.06389 -2.50031,-4.02912 0,-0.27333 -0.27337,-0.79039 -0.60749,-1.14902 -0.33412,-0.35864 -0.84596,-1.61261 -1.13743,-2.78662 -0.29146,-1.17401 -0.84609,-2.78256 -1.23251,-3.57456 -0.6282,-1.28757 -0.70257,-1.94809 -0.70257,-6.24 0,-4.74803 0.23014,-6.70724 1.40961,-12 2.62008,-11.75734 2.01976,-18.40205 -2.06126,-22.81545 -2.08354,-2.25323 -4.12898,-3.70571 -6.44747,-4.57839 -1.12974,-0.42524 -2.42823,-1.01831 -2.88553,-1.31795 -0.4573,-0.29963 -1.02064,-0.57255 -1.25186,-0.60649 -0.60772,-0.0892 -2.40242,-1.37206 -3.26573,-2.33437 -0.40823,-0.45504 -1.09223,-1.2221 -1.52,-1.70458 -0.42777,-0.48248 -0.77776,-1.10163 -0.77776,-1.37589 0,-0.717251 -0.78264,-2.127174 -1.58267,-2.851197 l -0.6882,-0.622809 -2.32366,2.383564 c -5.4867,5.628122 -11.578587,11.242982 -13.420241,12.369362 -1.638483,1.00213 -2.280701,1.2142 -3.676899,1.2142 -0.930423,0 -1.794423,-0.15971 -1.92,-0.3549 -0.125581,-0.1952 -0.76833,-0.54813 -1.42833,-0.78429 -0.66,-0.23616 -1.2,-0.55295 -1.2,-0.70398 0,-0.15103 -0.146554,-0.18403 -0.325677,-0.0733 -0.17912,0.1107 -0.86312,-0.2092 -1.52,-0.7109 C 85.817446,109.67091 84.848,109.04981 84.32,108.7924 83.792,108.53498 83.12711,108.07139 82.842464,107.76219 82.557821,107.45298 82.19311,107.2 82.031994,107.2 c -0.457482,0 -4.724855,-2.30934 -4.980324,-2.69516 -0.125577,-0.18967 -0.34512,-0.34484 -0.487865,-0.34484 -0.262752,0 -0.471843,-0.16012 -2.12193,-1.62502 -1.544605,-1.37126 -3.387405,-2.40241 -4.562189,-2.552823 -0.61494,-0.07873 -1.038985,-0.01517 -0.942323,0.141213 0.09666,0.15641 -0.04888,0.26463 -0.323427,0.2405 -0.311302,-0.0274 -0.664525,0.42929 -0.938506,1.21331 -0.241628,0.69144 -0.663449,1.3826 -0.937379,1.5359 -0.273926,0.1533 -0.498051,0.42071 -0.498051,0.59425 0,0.17355 -0.289158,0.63439 -0.642576,1.0241 -0.353418,0.38972 -1.019533,1.18288 -1.480253,1.7626 -0.460723,0.57972 -1.359565,1.32897 -1.997424,1.66502 -1.332438,0.70196 -3.879747,2.94918 -3.879747,3.4227 0,0.17548 -0.304454,0.59338 -0.676566,0.92865 -0.76728,0.69133 -2.358698,3.94193 -2.67192,5.45761 -0.114573,0.5544 0.01597,2.19031 0.290086,3.63535 0.274122,1.44503 0.503187,3.43943 0.50904,4.43199 0.01261,2.13739 0.850237,7.38132 2.205078,13.80465 1.177735,5.58366 1.241392,9.63524 0.228765,14.56 -0.114361,0.55617 -0.435827,3.05326 -1.040185,8.08 -0.170442,1.41763 -0.545412,1.75197 -0.907277,0.80897 -0.13784,-0.35921 -0.289005,-0.4278 -0.434234,-0.19702 -0.122534,0.19471 -0.506336,0.40779 -0.852896,0.47351 -0.549232,0.10416 -0.678182,0.55045 -1.004653,3.47702 -0.35807,3.20987 -0.658422,4.48953 -2.06488,8.79752 -0.912918,2.79627 -0.808672,5.09266 0.38657,8.51548 1.195968,3.42489 1.759779,3.94585 5.621901,5.19456 3.60815,1.1666 5.629558,1.13258 8.144707,-0.13706 2.083821,-1.05191 2.491024,-0.95701 2.501565,0.58302 0.0079,1.14787 1.532425,6.79167 2.399849,8.884 0.437792,1.056 0.839844,2.22411 0.893447,2.59579 0.05361,0.37168 0.361193,0.93951 0.683523,1.26185 0.51432,0.51431 0.559277,0.9161 0.367277,3.28237 -0.135178,1.66601 -0.08029,3.3237 0.143635,4.33816 0.391421,1.77324 0.397558,1.79273 2.269264,7.20505 1.163066,3.36319 1.873027,6.09102 2.356003,9.05232 0.156519,0.95969 0.05441,1.31225 -0.556073,1.92 -0.878407,0.87449 -2.770164,2.15037 -4.559181,3.07492 -1.084023,0.56022 -4.133184,3.03096 -5.02225,4.06954 -1.014214,1.18478 -2.76976,4.4203 -3.125293,5.76 -0.233536,0.88 -0.540608,1.75193 -0.682377,1.93763 -0.593789,0.77777 -0.974595,4.91205 -0.612919,6.65424 0.557888,2.68733 1.789028,2.93243 7.529994,1.49913 z"
         id="path690" />
      <path
         style="fill:#f0d6bb;stroke-width:0.32"
         d="m 69.887667,242.43113 c -0.208995,-0.54463 1.034797,-3.53522 1.699875,-4.08718 0.262567,-0.21792 0.942154,-1.12274 1.510192,-2.01073 0.930352,-1.45437 1.589152,-2.24663 3.801002,-4.57097 0.375658,-0.39477 0.889709,-0.68277 1.142336,-0.64 0.74849,0.1267 0.443091,-3.8112 -0.624144,-8.0479 C 76.49527,219.41556 74.395792,213.24964 73.869507,212.656 73.721277,212.4888 73.6,211.88617 73.6,211.31683 c 0,-0.56934 -0.151386,-1.43334 -0.33641,-1.91999 -0.204297,-0.53735 -0.251862,-1.85404 -0.12112,-3.35285 l 0.215287,-2.46802 1.688835,1.37557 c 0.928858,0.75657 2.444237,1.62648 3.36751,1.93314 0.923277,0.30667 2.129418,0.86307 2.680314,1.23645 0.550896,0.37338 1.646022,0.94777 2.433606,1.27643 1.781076,0.74324 3.852439,1.79093 4.426333,2.23883 0.354416,0.27661 0.413056,2.2778 0.318618,10.87369 l -0.115738,10.5347 -1.891776,1.69198 c -1.040477,0.9306 -2.263856,1.88216 -2.718617,2.11459 -1.348624,0.68927 -4.21097,2.53129 -5.702164,3.66955 -2.335395,1.78265 -7.527644,3.02915 -7.957011,1.91023 z M 118.72,240.0001 c -0.264,-0.17055 -1.60488,-0.68713 -2.97974,-1.14795 -1.73005,-0.57987 -3.101,-1.3204 -4.45245,-2.405 -1.07398,-0.86193 -2.13405,-1.56715 -2.3557,-1.56715 -0.22165,0 -0.82396,-0.3542 -1.33845,-0.78712 -0.8776,-0.73845 -0.94769,-0.97356 -1.1335,-3.80228 -0.19643,-2.9903 -1.19547,-9.27989 -1.8087,-11.38688 -0.17549,-0.60296 -0.71447,-2.10409 -1.19773,-3.33585 -0.48401,-1.23366 -0.73832,-2.28786 -0.56619,-2.34709 0.51465,-0.17711 4.69724,-2.7117 7.22758,-4.37981 3.47144,-2.28852 6.46888,-4.35405 7.69549,-5.30294 0.46784,-0.36192 0.95175,-0.65803 1.07536,-0.65803 0.41337,0 -0.50306,12.99631 -1.11695,15.84 -0.15198,0.704 -0.44292,2.144 -0.64654,3.2 -0.20362,1.056 -0.51186,2.424 -0.68498,3.04 -0.17312,0.616 -0.36196,1.552 -0.41965,2.08 -0.0577,0.528 -0.1235,1.104 -0.14626,1.28 -0.0228,0.176 -0.19531,0.104 -0.38343,-0.16 -0.25905,-0.36353 -0.29668,-0.21793 -0.1551,0.6 0.10282,0.594 0.18694,1.206 0.18694,1.36 0,0.154 0.27275,0.28 0.6061,0.28 1.42093,0 7.14489,8.11953 6.64405,9.4247 -0.21898,0.57065 -3.23609,0.70131 -4.05015,0.1754 z M 60.64,189.42843 c -2.430406,-0.30887 -5.269021,-1.17849 -6.014934,-1.8427 -1.138253,-1.01356 -2.785066,-5.9082 -2.785066,-8.27774 0,-1.59963 0.592938,-4.26799 0.948394,-4.26799 0.127827,0 0.506732,0.30332 0.842009,0.67405 0.33528,0.37073 1.113597,0.93173 1.729597,1.24667 0.616,0.31494 1.87183,1.07908 2.790736,1.69808 0.918906,0.619 2.194902,1.29844 2.835552,1.50988 1.112749,0.36724 1.248774,0.32648 3.043034,-0.91165 1.03302,-0.71284 1.959062,-1.16527 2.057872,-1.00539 0.173395,0.28056 1.428336,8.35417 1.431331,9.20843 0.0016,0.43432 -3.830295,2.33373 -4.551498,2.25615 C 62.743162,189.69212 61.696,189.56263 60.64,189.42843 Z m 68.93333,-0.12129 c -0.0733,-0.0731 -0.77428,-0.22834 -1.55766,-0.34505 -1.977,-0.29453 -3.16875,-0.98372 -3.41795,-1.97661 -0.1936,-0.77137 0.0656,-8.71543 0.29171,-8.94157 0.0538,-0.0538 0.81163,0.25186 1.68416,0.67916 1.8514,0.90669 3.15396,1.00532 3.73379,0.28272 0.22694,-0.28282 0.96746,-1.03882 1.64561,-1.68 0.67814,-0.64119 1.4908,-1.66999 1.80591,-2.28622 0.31511,-0.61624 1.13835,-1.75759 1.82943,-2.53633 1.30695,-1.47275 2.12027,-1.60976 2.55559,-0.4305 0.11517,0.31199 0.2919,0.63926 0.39274,0.72726 0.22957,0.20035 0.85972,1.82986 1.66945,4.31706 0.7973,2.44903 0.58959,3.7522 -1.09707,6.88294 -1.70693,3.16838 -1.96406,3.43748 -4.31705,4.51794 -1.78493,0.81962 -4.73969,1.26646 -5.21866,0.7892 z M 68.16,100.35424 c 0,-0.0692 0.223478,-0.21152 0.496621,-0.31634 0.284774,-0.109276 0.413222,-0.05563 0.301113,0.12576 -0.187923,0.30407 -0.797734,0.44975 -0.797734,0.19058 z"
         id="path688" />
      <path
         style="fill:#c339c7;stroke-width:0.32"
         d="m 55.68,170.56 c 0,-1.19161 0.713395,-1.27577 1.228634,-0.14494 0.496624,1.08996 0.490812,1.10494 -0.428634,1.10494 -0.675555,0 -0.8,-0.14933 -0.8,-0.96 z m 77.31129,-1.51538 c -0.38965,-0.38965 -0.17595,-1.94203 0.29207,-2.12163 0.9618,-0.36908 0.98038,-0.33507 0.8322,1.52277 -0.039,0.48848 -0.81911,0.90403 -1.12427,0.59886 z M 91.276134,162.48 c -0.177228,-0.22 -0.42024,-0.85862 -0.540028,-1.41915 -0.388202,-1.81652 1.623494,-3.07148 2.814297,-1.75565 0.670442,0.74083 0.675191,1.77511 0.0128,2.78606 -0.556355,0.84911 -1.752429,1.05241 -2.287062,0.38874 z m -0.201897,-13.86617 c -0.106832,-0.2784 -0.194237,-0.9984 -0.194237,-1.6 0,-0.93414 0.109552,-1.09383 0.750403,-1.09383 0.958531,0 1.809597,0.93636 1.809597,1.99096 0,1.18276 -1.958346,1.76458 -2.365763,0.70287 z M 89.779309,135.2484 c -0.647408,-0.64741 -0.72721,-0.96802 -0.575648,-2.31267 0.210009,-1.8632 0.645411,-2.37573 2.018205,-2.37573 1.337491,0 1.875232,0.74533 1.887958,2.61677 0.0084,1.24246 -0.133088,1.60947 -0.832979,2.16 -1.08441,0.853 -1.573472,0.83569 -2.497536,-0.0884 z"
         id="path686" />
      <path
         style="fill:#9241be;stroke-width:0.32"
         d="m 60,178.90768 c -0.704,-0.32904 -1.775978,-0.97388 -2.38217,-1.43297 -0.606192,-0.45909 -1.339056,-0.83471 -1.628582,-0.83471 -0.28953,0 -0.967546,-0.48477 -1.506704,-1.07726 -1.074662,-1.18098 -1.118362,-1.73094 -0.435638,-5.48274 0.192163,-1.056 0.35022,-2.82452 0.351241,-3.93004 0.0013,-1.51961 0.122941,-2.05651 0.498135,-2.20049 0.618579,-0.23737 1.783763,0.82603 2.582528,2.35693 0.564172,1.08129 1.091824,1.75521 2.783849,3.5556 0.802122,0.85348 2.539456,1.6742 2.780368,1.31344 0.08967,-0.13427 0.360205,-0.29167 0.601194,-0.34978 0.240989,-0.0581 0.883718,-0.50166 1.428288,-0.98566 0.544566,-0.484 1.105261,-0.88 1.245984,-0.88 0.140723,0 0.191907,1.044 0.113747,2.32 -0.07816,1.276 -0.153392,3.0723 -0.167178,3.99178 -0.02272,1.51589 -0.112972,1.71725 -0.967824,2.1593 -0.518518,0.26814 -1.331545,0.84784 -1.806726,1.28822 -1.02664,0.95146 -1.771837,0.99168 -3.490512,0.18838 z m -2.564454,-6.94894 c 0.304841,-0.30484 0.431366,-0.73663 0.304742,-1.04 -0.119085,-0.28531 -0.223366,-0.69646 -0.231738,-0.91366 -0.01062,-0.27566 -0.133897,-0.29642 -0.408198,-0.0688 -0.286768,0.23799 -0.380464,0.17338 -0.346669,-0.23907 0.05352,-0.65313 -1.401107,-0.8966 -1.788784,-0.2994 -0.402726,0.62038 -0.267504,2.02504 0.235101,2.44216 0.386938,0.32113 0.481888,0.31322 0.489731,-0.0408 0.0066,-0.2978 0.11473,-0.25891 0.335901,0.12082 0.40575,0.69663 0.742765,0.70589 1.409914,0.0387 z M 127.68,178.65916 c -0.264,-0.0937 -1.00414,-0.5229 -1.64477,-0.95384 -1.09473,-0.73642 -1.1773,-0.91225 -1.37332,-2.92442 -0.11471,-1.1775 -0.29626,-2.78854 -0.40345,-3.58009 -0.16357,-1.20795 -0.12286,-1.38099 0.25333,-1.07695 0.24652,0.19923 0.92299,0.4638 1.50329,0.58793 0.95669,0.20464 1.16556,0.10136 2.24,-1.10761 0.6517,-0.73331 1.90862,-2.07824 2.79314,-2.98874 0.91182,-0.93859 1.95109,-2.44985 2.4,-3.48998 0.43548,-1.009 0.88861,-1.837 1.00696,-1.84 0.11835,-0.003 0.38152,0.49854 0.58482,1.11454 0.2033,0.616 0.48567,1.12 0.62749,1.12 0.14183,0 0.33299,0.28727 0.42481,0.63838 0.0918,0.35112 0.43261,0.73199 0.75732,0.8464 0.81359,0.28665 1.69513,1.42421 1.70115,2.19522 0.007,0.84793 -0.81932,2.05966 -2.81958,4.1365 -0.90528,0.93994 -1.97529,2.28876 -2.37779,2.99738 -0.4025,0.70861 -1.41745,2.02138 -2.25544,2.91726 -1.47288,1.57462 -2.15568,1.8559 -3.41796,1.40802 z m 7.03894,-9.85638 c 0.29954,-0.78783 0.1685,-1.57576 -0.38089,-2.29035 -0.49496,-0.6438 -2.17805,0.20527 -2.17805,1.09876 0,1.92897 1.93586,2.83042 2.55894,1.19159 z M 89.44,172.18741 c -0.528,-0.14309 -2.093978,-0.78379 -3.479949,-1.42378 -1.385974,-0.64 -2.789974,-1.16363 -3.12,-1.16363 -0.330029,0 -0.600051,-0.10985 -0.600051,-0.24412 0,-0.24818 -0.554275,-0.5799 -2.56,-1.5321 -1.553066,-0.73731 -5.389658,-3.61179 -5.770515,-4.32342 -0.172752,-0.3228 -0.736323,-0.83632 -1.252381,-1.14116 -0.516058,-0.30484 -1.190608,-1.02279 -1.498998,-1.59544 -0.308391,-0.57265 -0.788826,-1.10083 -1.067629,-1.17374 -1.006915,-0.26331 -0.644954,-3.17902 0.664157,-5.35002 0.15919,-0.264 0.386003,-0.696 0.504025,-0.96 0.118023,-0.264 0.529447,-0.986 0.914279,-1.60444 0.847356,-1.36174 2.349235,-5.73052 2.603366,-7.57287 0.283558,-2.05568 -9.6e-4,-2.63251 -2.65641,-5.38544 -2.900624,-3.00712 -5.135872,-6.20079 -5.466147,-7.80992 -0.12952,-0.63103 -0.2396,-2.51533 -0.244621,-4.18733 -0.0086,-2.87997 0.0567,-3.17898 1.241335,-5.68 0.687757,-1.452 1.371757,-2.64 1.52,-2.64 0.148246,0 0.269539,-0.13948 0.269539,-0.30996 0,-0.91702 -1.023987,0.34839 -2.268477,2.8033 l -1.411523,2.78442 0.01373,3.52112 c 0.01258,3.22822 0.08937,3.66752 0.923046,5.28112 1.419101,2.74668 2.606624,4.32432 5.087652,6.75902 l 2.295577,2.25271 -0.04478,2.21892 c -0.02464,1.2204 -0.180313,2.39676 -0.345955,2.61413 -0.165645,0.21737 -0.633226,1.32813 -1.039069,2.46835 -0.405846,1.14022 -1.060336,2.58022 -1.454419,3.2 -0.394086,0.61978 -0.986352,1.73515 -1.316147,2.47861 -0.329795,0.74346 -0.798029,1.35546 -1.040525,1.36 -0.331098,0.006 -0.392176,0.31296 -0.245248,1.23178 0.107606,0.67294 -0.02,2.29294 -0.2836,3.6 -0.263587,1.30707 -0.629683,3.24048 -0.813542,4.29648 -0.367629,2.11144 -1.082615,3.07844 -3.423616,4.63033 -1.969968,1.30592 -2.766839,0.95208 -5.022804,-2.23033 -1.639769,-2.31316 -1.667878,-2.62681 -0.817363,-9.12 0.207482,-1.584 0.523031,-3.384 0.701223,-4 0.178188,-0.616 0.400739,-3.08046 0.49455,-5.47658 0.177872,-4.54315 -0.04937,-6.20903 -1.856122,-13.6073 -0.349744,-1.43213 -0.769241,-4.45613 -0.932217,-6.72 -0.162976,-2.26386 -0.467344,-5.05212 -0.676378,-6.19612 -0.579968,-3.17406 -0.49511,-4.83721 0.328144,-6.43137 1.334669,-2.58447 4.075533,-5.91171 5.836282,-7.08489 2.588029,-1.72439 4.861305,-4.38752 5.38207,-6.30505 0.171399,-0.63111 0.274624,-0.34211 0.450528,1.26131 0.337168,3.07341 1.690736,7.78681 2.940295,10.23872 C 71.505587,115.10445 72,116.16221 72,116.26929 c 0,0.35702 1.981005,4.52826 2.227715,4.69071 0.133642,0.088 0.470784,0.60481 0.749203,1.14847 0.593511,1.15891 4.076884,4.47122 5.015396,4.76909 0.356227,0.11306 0.647686,0.41186 0.647686,0.664 0,0.25214 0.108,0.45762 0.24,0.45662 0.30305,-0.002 3.28,-6.14518 3.28,-6.76822 0,-0.25408 0.124861,-0.59876 0.277469,-0.76596 0.40696,-0.44588 1.322531,-3.3411 1.322531,-4.18212 0,-1.2029 0.542794,-1.15524 1.322509,0.11613 0.405443,0.66109 0.847574,1.34599 0.982509,1.52199 0.134934,0.176 0.583356,0.752 0.996492,1.28 0.41314,0.528 1.022359,1.428 1.353821,2 0.331463,0.572 0.71561,1.04 0.853664,1.04 0.138051,0 0.251005,0.21548 0.251005,0.47884 0,0.26336 0.705123,1.46704 1.566941,2.67483 2.068537,2.89894 2.631507,5.1611 1.835389,7.37504 -0.606084,1.68545 -0.561856,2.64772 0.272009,5.91839 0.419856,1.64682 0.498627,2.66225 0.310291,4 -0.347299,2.46686 -0.270569,3.73182 0.315152,5.19568 0.284775,0.71172 0.516525,2.31552 0.538077,3.7237 0.02784,1.81882 0.102519,2.21942 0.282141,1.51352 0.44464,-1.7474 0.32839,-3.60737 -0.32,-5.12 -0.700736,-1.63475 -0.816582,-3.54852 -0.319683,-5.28111 0.24648,-0.85941 0.172713,-1.79815 -0.32,-4.0723 -0.772154,-3.56392 -0.796551,-4.61625 -0.136608,-5.89244 0.437414,-0.84586 0.450867,-1.27546 0.102217,-3.26411 -0.220819,-1.25952 -0.538627,-2.38237 -0.706246,-2.49521 -0.181286,-0.12206 -0.113837,-0.47775 0.166483,-0.87797 0.259184,-0.37003 0.555719,-0.58831 0.65897,-0.48506 0.220832,0.22083 2.073875,-2.23484 2.55944,-3.3918 1.392374,-3.31761 3.334977,-6.49985 3.794477,-6.21587 0.15452,0.0955 0.28095,0.30268 0.28095,0.46039 0,0.3082 1.6376,4.01806 2.46995,5.59548 0.27861,0.528 0.70741,1.392 0.95289,1.92 1.44678,3.11183 1.60506,3.19526 2.6701,1.40747 0.43288,-0.72664 1.00306,-1.56765 1.26706,-1.86891 0.67511,-0.77041 1.54933,-2.22414 2.12795,-3.53856 0.27117,-0.616 0.68433,-1.552 0.91815,-2.08 0.23382,-0.528 0.7961,-2.09238 1.24951,-3.47641 0.73632,-2.24758 0.82439,-3.02557 0.82439,-7.28271 0,-4.69503 0.01,-4.76029 0.64357,-4.36438 0.35397,0.22105 0.7136,0.61827 0.79918,0.88271 0.0856,0.26443 0.55197,0.72204 1.03643,1.01691 4.01158,2.44166 5.37412,3.14885 6.94907,3.6067 1.51128,0.43934 2.23233,0.93685 4.36077,3.00889 1.40255,1.36537 2.59526,2.43734 2.65047,2.38214 0.21904,-0.21904 1.15276,2.4328 1.62295,4.60932 0.84271,3.90085 0.64091,7.9158 -0.76886,15.29683 -2.28053,11.94013 -2.39405,16.49205 -0.51054,20.47345 0.45764,0.96737 0.96967,2.48446 1.13786,3.37131 0.16819,0.88686 0.45026,1.88238 0.62681,2.21228 0.65882,1.23102 -0.81406,4.40828 -3.20002,6.90296 -1.00997,1.056 -2.19399,2.34512 -2.63114,2.8647 -0.7726,0.91829 -0.83022,0.93303 -2.06066,0.52695 -1.15306,-0.38055 -1.31646,-0.57874 -1.83418,-2.22471 -0.31259,-0.99382 -0.86173,-2.59894 -1.22031,-3.56694 -1.33793,-3.61182 -2.1614,-6.23787 -2.1614,-6.89271 0,-0.37136 0.33936,-1.67295 0.75413,-2.89243 0.89265,-2.62449 0.92396,-2.5435 -2.13263,-5.51659 -4.1032,-3.99111 -4.67301,-6.57503 -2.43635,-11.04812 0.71783,-1.43558 1.69411,-3.11415 2.16951,-3.73015 0.47539,-0.616 1.48955,-2.37329 2.25367,-3.90509 l 1.38931,-2.7851 -0.13154,-2.9749 c -0.0857,-1.93794 -0.31466,-3.30954 -0.65688,-3.93491 -0.28893,-0.528 -0.85785,-1.66226 -1.26426,-2.52057 -0.63492,-1.34091 -3.35404,-4.25702 -3.6725,-3.93856 -0.0598,0.0597 0.50651,0.75062 1.25834,1.53528 1.6954,1.76941 3.03885,4.46025 3.44654,6.90315 0.38501,2.30705 0.0719,5.87677 -0.63489,7.23736 -0.62867,1.21028 -2.27602,3.83498 -2.55029,4.06334 -0.74212,0.61791 -3.54045,6.39988 -3.76396,7.77718 -0.17225,1.0615 0.47634,3.06332 1.52373,4.70282 0.16866,0.264 0.38523,0.696 0.48127,0.96 0.0961,0.264 0.63944,0.84 1.20755,1.28 0.5681,0.44 1.57715,1.40652 2.24233,2.14783 l 1.20941,1.34784 -0.50123,1.72414 c -0.90402,3.10973 -5.78172,11.10019 -6.776,11.10019 -0.25039,0 -0.45526,0.1944 -0.45526,0.43201 0,0.23761 -0.9,1.20865 -2,2.15788 -1.1,0.94923 -2.048,1.83482 -2.10667,1.96799 -0.0587,0.13317 -0.31649,0.24212 -0.57296,0.24212 -0.25645,0 -0.85645,0.2877 -1.33333,0.63934 -0.47687,0.35163 -1.51504,0.72786 -2.30704,0.83606 -0.792,0.1082 -1.656,0.30405 -1.92,0.43522 -0.90832,0.45131 -4.606038,0.38845 -5.254739,-0.0893 -0.742506,-0.54687 -0.848842,-0.97245 -1.014787,-4.0613 -0.07092,-1.32 -0.256208,-3.768 -0.411764,-5.44 -0.238278,-2.5612 -0.263974,-2.12021 -0.163152,2.8 0.09973,4.86703 0.04454,5.84 -0.331254,5.84 -0.248006,0 -0.731683,0.38542 -1.074832,0.85649 -0.53712,0.73735 -0.885798,0.86863 -2.506688,0.94378 -1.035533,0.048 -2.314784,-0.0298 -2.842784,-0.17286 z m 4.64361,-10.11325 c 0.805494,-1.30332 0.684595,-2.3462 -0.387824,-3.3453 -0.8964,-0.83513 -1.48226,-0.81655 -2.605908,0.0826 -0.845747,0.6768 -0.894038,0.83555 -0.682755,2.24448 0.159005,1.06032 0.466979,1.70466 1.02432,2.14307 0.98193,0.77238 1.656397,0.48632 2.652167,-1.12487 z m 2.31687,-5.67007 c 0.09291,-1.21276 0.04144,-2.07944 -0.117658,-1.98111 C 96.12727,154.51911 96,155.54927 96,156.71222 c 0,2.65316 0.184486,2.51121 0.40048,-0.30813 z m -3.020819,-7.29656 C 93.764848,148.74868 94.08,148.12762 94.08,147.7274 c 0,-0.89761 -1.558211,-2.4474 -2.460707,-2.4474 -0.875418,0 -1.797456,1.41347 -1.522906,2.33459 0.634519,2.12884 1.955824,2.72965 3.283274,1.49294 z m -0.58464,-13.42398 c 0.4916,-0.35006 0.985926,-1.00345 1.098505,-1.45199 C 94.1768,133.1029 93.536938,130.88 92.928781,130.88 c -0.289997,0 -0.393082,-0.15124 -0.255171,-0.37438 0.155577,-0.25173 0.05693,-0.30744 -0.301117,-0.17004 -0.292871,0.11238 -0.532493,0.0649 -0.532493,-0.10562 0,-0.17048 -0.35439,-0.30996 -0.787533,-0.30996 -0.864448,0 -2.090429,1.11154 -2.09599,1.90034 -0.0019,0.27481 -0.08694,1.0037 -0.188903,1.61976 -0.392838,2.37358 1.98474,3.69798 4.027447,2.24345 z m -13.464755,-9.90737 c -2.869834,-1.78623 -3.969152,-3.43092 -7.924688,-11.85618 -1.240234,-2.64169 -2.041821,-5.36644 -2.447642,-8.32 l -0.197859,-1.44 1.158595,1.28 c 0.637229,0.704 1.355645,1.7403 1.596483,2.30289 0.530301,1.23875 3.229591,3.89097 4.210637,4.1372 0.389344,0.0977 0.782838,0.37295 0.874429,0.61163 0.195763,0.51016 3.904557,2.41683 4.175024,2.14637 0.101616,-0.10162 0.184755,-0.0168 0.184755,0.18858 0,0.20533 0.297466,0.37333 0.661037,0.37333 0.363571,0 0.968688,0.16465 1.344704,0.36589 0.512941,0.27451 0.714125,0.27451 0.805629,0 0.06708,-0.20124 0.418022,-0.36589 0.779868,-0.36589 0.597392,0 0.640964,0.13981 0.473696,1.52 -0.25143,2.07463 -3.025043,8.94976 -3.905299,9.6803 -0.205379,0.17045 -0.904637,-0.0735 -1.789369,-0.62412 z m 26.442634,-3.08055 c -0.7991,-1.71002 -1.4529,-3.17175 -1.4529,-3.2483 0,-0.0765 -0.5044,-1.14424 -1.12089,-2.37263 -1.35075,-2.69145 -1.39706,-2.56114 2.1896,-6.16031 3.89456,-3.90815 5.54926,-6.03529 7.42326,-9.54274 l 1.03457,-1.936341 0.19095,2.202341 c 0.56991,6.57294 0.57495,8.29056 0.0313,10.68235 -0.30001,1.32 -0.68229,2.66134 -0.84952,2.98077 -0.16723,0.31942 -0.35867,0.86436 -0.42543,1.21098 -0.17126,0.88928 -2.66748,5.7593 -3.34618,6.52825 -0.31069,0.352 -0.76352,1.06137 -1.00629,1.57637 -0.24278,0.515 -0.61561,0.99307 -0.82852,1.06237 -0.22889,0.0745 -0.98092,-1.14474 -1.84,-2.98311 z"
         id="path684" />
      <path
         style="fill:#af2427;stroke-width:0.32"
         d="m 64.4,251.51003 c -0.684922,-0.27531 -0.719654,-0.4575 -0.712883,-3.73972 0.006,-2.93126 0.101251,-3.57066 0.632883,-4.25031 0.344173,-0.44 0.62897,-1.19632 0.632883,-1.6807 0.01741,-2.15527 4.624551,-8.23617 7.271367,-9.59738 2.951411,-1.51786 3.858867,-2.05584 4.57248,-2.71074 1.022592,-0.93846 1.230867,-0.92131 1.038403,0.0855 -0.08587,0.44917 -1.136755,1.81895 -2.335315,3.04395 -1.19856,1.225 -2.265821,2.5002 -2.37169,2.83376 -0.105869,0.33357 -0.403008,0.68727 -0.66031,0.786 C 72.210518,236.37913 72,236.64834 72,236.87864 c 0,0.2303 -0.408602,0.86609 -0.908003,1.41286 -0.966695,1.0584 -1.8536,3.60157 -1.540528,4.41742 0.286198,0.74582 3.023203,0.6213 5.393974,-0.24539 1.108007,-0.40506 3.201495,-1.55706 4.652199,-2.56 1.450704,-1.00294 2.782704,-1.82353 2.96,-1.82353 0.177296,0 0.322358,-0.12839 0.322358,-0.28531 0,-0.15692 0.324925,-0.36686 0.722058,-0.46653 0.684083,-0.1717 1.742518,-0.93542 3.86176,-2.78648 0.606876,-0.53008 1.007609,-1.25348 1.137686,-2.05372 0.110445,-0.67947 0.398912,-1.30143 0.64104,-1.38214 0.354243,-0.11808 0.402634,0.22056 0.247741,1.73372 -0.251821,2.46006 -0.361098,3.10607 -0.58969,3.48609 -0.104006,0.1729 -0.380438,1.35837 -0.614291,2.63437 -0.233853,1.276 -0.537939,2.32 -0.675747,2.32 -0.137805,0 -0.253043,0.252 -0.256087,0.56 -0.0057,0.57883 -1.298755,2 -1.819683,2 -0.162256,0 -1.041254,0.36 -1.953328,0.8 -0.912077,0.44 -1.875027,0.8 -2.139891,0.8 -0.264861,0 -0.481568,0.144 -0.481568,0.32 0,0.176 -0.190899,0.32 -0.424221,0.32 -0.233318,0 -0.762419,0.36 -1.175779,0.8 -0.41336,0.44 -0.942461,0.8 -1.175779,0.8 -0.233322,0 -0.424221,0.13043 -0.424221,0.28984 0,0.47946 -4.031926,2.21312 -5.671213,2.43852 -1.650688,0.22696 -3.436147,0.70215 -4.324445,1.15092 -0.701212,0.35425 -2.423193,0.32904 -3.364342,-0.0493 z m 56.88,-4.48581 c -0.792,-0.32418 -1.9994,-0.59725 -2.6831,-0.60682 -1.6474,-0.0231 -5.39754,-0.69061 -5.7809,-1.02903 -0.1672,-0.14761 -0.54378,-0.26837 -0.83684,-0.26837 -0.29307,0 -0.87627,-0.26694 -1.296,-0.59321 -0.67883,-0.52765 -4.45254,-1.47007 -5.25375,-1.31203 -1.00718,0.19866 -1.48789,-0.14484 -2.14777,-1.53476 -0.63043,-1.32789 -0.71617,-1.98826 -0.67835,-5.2249 0.046,-3.94201 0.26913,-4.72625 1.89354,-6.65674 0.46203,-0.5491 0.97126,-0.99836 1.13161,-0.99836 0.16036,0 0.29156,0.95549 0.29156,2.12331 0,1.8946 0.0929,2.20936 0.86211,2.92227 0.47415,0.43944 1.30215,0.98497 1.84,1.2123 0.53784,0.22733 1.68522,1.07542 2.54975,1.88464 0.86452,0.80923 1.94452,1.56006 2.4,1.66852 0.45547,0.10846 0.97214,0.30055 1.14814,0.42687 0.176,0.12631 0.608,0.3103 0.96,0.40888 0.352,0.0986 1.42997,0.47937 2.39548,0.84621 2.35497,0.89478 4.65813,0.89847 5.13456,0.008 0.50704,-0.94741 0.12659,-2.22797 -1.34456,-4.52567 -1.28506,-2.00705 -1.66597,-2.46152 -4.1033,-4.89556 -1.2443,-1.24263 -1.27377,-1.32205 -1.00922,-2.72 0.22321,-1.17955 0.32024,-1.32425 0.53643,-0.8 0.14516,0.352 0.35997,0.712 0.47735,0.8 0.85421,0.64038 4.49808,5.67246 4.80784,6.63948 0.2115,0.66028 0.94275,1.93382 1.62499,2.83008 0.68223,0.89625 1.24043,1.74124 1.24043,1.87775 0,0.13651 0.432,0.74022 0.96,1.34158 0.528,0.60136 0.96,1.36959 0.96,1.70718 0,0.3376 0.16228,0.96997 0.36061,1.40527 1.28069,2.81081 -2.57583,4.6448 -6.44061,3.06288 z"
         id="path682" />
      <path
         style="fill:#24221f;stroke-width:0.32"
         d="m 64.093814,252.10942 c -1.061756,-0.53359 -1.520656,-3.1607 -1.065043,-6.09719 0.196013,-1.26333 0.472381,-2.4489 0.614154,-2.6346 0.141769,-0.1857 0.451872,-1.05763 0.689117,-1.93763 0.35975,-1.33442 2.096611,-4.53711 3.123718,-5.76 0.845357,-1.0065 3.927216,-3.5063 5.017085,-4.06954 1.789017,-0.92455 3.680774,-2.20043 4.559181,-3.07492 0.610483,-0.60775 0.712592,-0.96031 0.556073,-1.92 -0.482976,-2.9613 -1.192937,-5.68913 -2.356003,-9.05232 -1.871706,-5.41232 -1.877843,-5.43181 -2.269264,-7.20505 -0.225184,-1.02015 -0.278662,-2.67399 -0.141238,-4.3677 0.203897,-2.51289 0.169222,-2.77035 -0.443815,-3.29525 -0.365747,-0.31316 -0.594915,-0.68277 -0.509264,-0.82136 0.08565,-0.13858 -0.260035,-1.229 -0.768192,-2.42315 -0.959229,-2.25416 -2.616669,-8.22897 -2.625222,-9.46353 -0.01062,-1.53065 -0.420487,-1.62473 -2.501565,-0.5742 -2.515149,1.26964 -4.536557,1.30366 -8.144707,0.13706 -3.73737,-1.20837 -4.415178,-1.79952 -5.507389,-4.80325 -1.21833,-3.35057 -1.388826,-6.22447 -0.524989,-8.84939 1.546403,-4.69904 2.1148,-7.33548 2.35744,-10.93474 0.06649,-0.98637 0.231895,-1.3046 0.726109,-1.39702 0.352,-0.0658 0.740253,-0.27898 0.862787,-0.47369 0.145229,-0.23078 0.296394,-0.16219 0.434234,0.19702 0.361865,0.943 0.736835,0.60866 0.907277,-0.80897 0.604358,-5.02674 0.925824,-7.52383 1.040185,-8.08 1.012627,-4.92476 0.94897,-8.97634 -0.228765,-14.56 -1.354841,-6.42333 -2.192476,-11.66726 -2.205078,-13.80465 -0.0059,-0.99256 -0.234918,-2.98696 -0.50904,-4.43199 -0.274118,-1.44504 -0.404662,-3.08095 -0.290099,-3.63535 0.705843,-3.41577 4.242646,-8.21203 7.228246,-9.80224 0.637859,-0.33974 1.536701,-1.09202 1.997424,-1.67174 0.46072,-0.57972 1.126835,-1.37288 1.480253,-1.7626 0.353418,-0.38971 0.642576,-0.8257 0.642576,-0.96888 0,-0.14317 0.288,-0.50691 0.64,-0.8083 0.756746,-0.64795 0.797722,-0.50609 0.191126,0.66164 -0.746934,1.43789 -3.12856,3.89909 -4.942713,5.10785 -1.760749,1.17318 -4.501613,4.50042 -5.836282,7.08489 -0.823254,1.59416 -0.908112,3.25731 -0.328144,6.43137 0.209034,1.144 0.513402,3.93226 0.676375,6.19612 0.162976,2.26387 0.582473,5.28787 0.932217,6.72 1.806755,7.39827 2.033994,9.06415 1.856122,13.6073 -0.09381,2.39612 -0.316362,4.86058 -0.494551,5.47658 -0.178192,0.616 -0.49374,2.416 -0.701222,4 -0.850515,6.49319 -0.822406,6.80684 0.817363,9.12 2.255965,3.18241 3.052835,3.53625 5.022803,2.23033 2.341002,-1.55189 3.055988,-2.51889 3.423616,-4.63033 0.18386,-1.056 0.549956,-2.98941 0.813543,-4.29648 0.263587,-1.30706 0.391206,-2.92706 0.2836,-3.6 -0.146928,-0.91882 -0.08585,-1.22557 0.245248,-1.23178 0.242496,-0.005 0.710729,-0.61654 1.040525,-1.36 0.329795,-0.74346 0.92206,-1.85883 1.316147,-2.47861 0.394083,-0.61978 1.048573,-2.05978 1.454419,-3.2 0.405843,-1.14022 0.873424,-2.25098 1.039069,-2.46835 0.165641,-0.21737 0.321321,-1.39373 0.345955,-2.61413 l 0.04478,-2.21892 -2.295578,-2.25271 c -2.481027,-2.4347 -3.66855,-4.01234 -5.087651,-6.75902 -0.83368,-1.6136 -0.910464,-2.0529 -0.923046,-5.28112 l -0.01372,-3.52112 1.411523,-2.78442 c 1.24449,-2.45491 2.268477,-3.72032 2.268477,-2.8033 0,0.17048 -0.121293,0.30996 -0.269539,0.30996 -0.148243,0 -0.832243,1.188 -1.52,2.64 -1.184634,2.50102 -1.249981,2.80003 -1.241335,5.68 0.005,1.672 0.115101,3.5563 0.244621,4.18733 0.330275,1.60913 2.565523,4.8028 5.466147,7.80992 1.356679,1.40648 2.55088,2.8927 2.653783,3.30269 0.275648,1.09827 -0.07218,3.09404 -1.041443,5.97562 -0.770602,2.29096 -1.31537,3.42802 -2.614269,5.45656 -0.221123,0.34534 -0.485331,0.84388 -0.58713,1.10788 -0.101801,0.264 -0.394192,0.984 -0.649757,1.6 -0.587177,1.41531 -0.47511,3.25102 0.209399,3.43002 0.278803,0.0729 0.759238,0.60109 1.067629,1.17374 0.30839,0.57265 0.98294,1.2906 1.498998,1.59544 0.516058,0.30484 1.079629,0.81836 1.252381,1.14116 0.380857,0.71163 4.217449,3.58611 5.770515,4.32342 2.005725,0.9522 2.56,1.28392 2.56,1.5321 0,0.13427 0.273661,0.24412 0.608138,0.24412 0.334476,0 1.882476,0.59685 3.44,1.32634 2.521929,1.18118 3.105948,1.33002 5.336179,1.36 2.380486,0.032 2.53608,-0.01 3.146691,-0.84634 0.353306,-0.484 0.84529,-0.88 1.093296,-0.88 0.375798,0 0.430986,-0.97297 0.331254,-5.84 -0.100822,-4.92021 -0.07513,-5.3612 0.163152,-2.8 0.155556,1.672 0.340848,4.12 0.411764,5.44 0.165945,3.08885 0.272281,3.51443 1.014787,4.0613 0.648701,0.47777 4.346418,0.54063 5.254738,0.0893 0.264,-0.13117 1.128,-0.32702 1.92,-0.43522 0.792,-0.1082 1.83017,-0.48443 2.30704,-0.83606 0.47688,-0.35164 1.07688,-0.63934 1.33333,-0.63934 0.25647,0 0.5143,-0.10895 0.57296,-0.24212 0.0587,-0.13317 1.00667,-1.01876 2.10667,-1.96799 1.1,-0.94923 2,-1.92027 2,-2.15788 0,-0.23761 0.20487,-0.43201 0.45526,-0.43201 0.99428,0 5.87198,-7.99046 6.776,-11.10019 l 0.50123,-1.72414 -1.20941,-1.34784 c -0.66518,-0.74131 -1.67423,-1.70783 -2.24233,-2.14783 -0.56811,-0.44 -1.1115,-1.016 -1.20755,-1.28 -0.096,-0.264 -0.31261,-0.696 -0.48127,-0.96 -1.04739,-1.6395 -1.69598,-3.64132 -1.52373,-4.70282 0.22351,-1.3773 3.02184,-7.15927 3.76396,-7.77718 0.27427,-0.22836 1.92162,-2.85306 2.55029,-4.06334 0.70675,-1.36059 1.0199,-4.93031 0.63489,-7.23736 -0.40769,-2.4429 -1.75114,-5.13374 -3.44654,-6.90315 -0.75183,-0.78466 -1.31809,-1.47553 -1.25834,-1.53528 0.31846,-0.31846 3.03758,2.59765 3.6725,3.93856 0.40641,0.85831 0.97533,1.99257 1.26426,2.52057 0.34222,0.62537 0.57119,1.99697 0.65688,3.93491 l 0.13154,2.9749 -1.38931,2.7851 c -0.76412,1.5318 -1.77828,3.28909 -2.25367,3.90509 -0.4754,0.616 -1.45168,2.29457 -2.16951,3.73015 -2.23666,4.47309 -1.66685,7.05701 2.43635,11.04812 3.05659,2.97309 3.02528,2.8921 2.13263,5.51659 -0.41477,1.21948 -0.75413,2.52107 -0.75413,2.89243 0,0.65484 0.82347,3.28089 2.1614,6.89271 0.35858,0.968 0.90772,2.57312 1.22031,3.56694 0.51772,1.64597 0.68112,1.84416 1.83418,2.22471 1.23044,0.40608 1.28806,0.39134 2.06066,-0.52695 0.43715,-0.51958 1.62117,-1.8087 2.63114,-2.8647 2.38596,-2.49468 3.85884,-5.67194 3.20002,-6.90296 -0.17655,-0.3299 -0.45862,-1.32542 -0.62681,-2.21228 -0.16819,-0.88685 -0.68022,-2.40394 -1.13786,-3.37131 -1.88351,-3.9814 -1.76999,-8.53332 0.51054,-20.47345 1.40977,-7.38103 1.61157,-11.39598 0.76886,-15.29683 -0.47019,-2.17652 -1.40391,-4.82836 -1.62295,-4.60932 -0.0552,0.0552 -1.24792,-1.01677 -2.65047,-2.38214 -2.12844,-2.07204 -2.84949,-2.56955 -4.36077,-3.00889 -1.57495,-0.45785 -2.93749,-1.16504 -6.94907,-3.6067 -0.48446,-0.29487 -0.95085,-0.75248 -1.03643,-1.01691 -0.0856,-0.26444 -0.44521,-0.66166 -0.79918,-0.88271 -0.63394,-0.39591 -0.64357,-0.33065 -0.64357,4.36438 0,4.25714 -0.0881,5.03513 -0.82439,7.28271 -0.45341,1.38403 -1.01569,2.94841 -1.24951,3.47641 -0.23382,0.528 -0.64698,1.464 -0.91815,2.08 -0.57862,1.31442 -1.45284,2.76815 -2.12795,3.53856 -0.264,0.30126 -0.83418,1.14227 -1.26706,1.86891 -1.06504,1.78779 -1.22332,1.70436 -2.6701,-1.40747 -0.24548,-0.528 -0.67428,-1.392 -0.95289,-1.92 C 104.0376,120.50256 102.4,116.7927 102.4,116.4845 c 0,-0.15771 -0.12643,-0.36488 -0.28095,-0.46039 -0.4595,-0.28398 -2.402102,2.89826 -3.794476,6.21587 -0.485565,1.15696 -2.338608,3.61263 -2.55944,3.3918 -0.103251,-0.10325 -0.399786,0.11503 -0.65897,0.48506 -0.28032,0.40022 -0.347769,0.75591 -0.166483,0.87797 0.167619,0.11284 0.485427,1.23569 0.706246,2.49521 0.34865,1.98865 0.335197,2.41825 -0.102217,3.26411 -0.659943,1.27619 -0.635546,2.32852 0.136608,5.89244 0.492713,2.27415 0.56648,3.21289 0.32,4.0723 -0.496899,1.73259 -0.381053,3.64636 0.319683,5.28111 0.64839,1.51263 0.76464,3.3726 0.32,5.12 -0.179622,0.7059 -0.254301,0.3053 -0.282141,-1.51352 -0.02157,-1.40818 -0.253302,-3.01198 -0.538077,-3.7237 -0.585721,-1.46386 -0.662451,-2.72882 -0.315152,-5.19568 0.188336,-1.33775 0.109565,-2.35318 -0.310291,-4 -0.833865,-3.27067 -0.878093,-4.23294 -0.272009,-5.91839 0.796118,-2.21394 0.233148,-4.4761 -1.835389,-7.37504 C 92.225123,124.18588 91.52,122.9822 91.52,122.71884 c 0,-0.26336 -0.112954,-0.47884 -0.251005,-0.47884 -0.138054,0 -0.522201,-0.468 -0.853664,-1.04 -0.331462,-0.572 -0.940681,-1.472 -1.353821,-2 -0.413136,-0.528 -0.861558,-1.104 -0.996492,-1.28 -0.134935,-0.176 -0.577066,-0.8609 -0.982509,-1.52199 C 86.302794,115.12664 85.76,115.07898 85.76,116.28188 c 0,0.84102 -0.915571,3.73624 -1.322531,4.18212 -0.152608,0.1672 -0.277469,0.51188 -0.277469,0.76596 0,0.62304 -2.97695,6.76591 -3.28,6.76822 -0.132,9.6e-4 -0.24,-0.20448 -0.24,-0.45662 0,-0.25214 -0.291459,-0.55094 -0.647686,-0.664 -0.938512,-0.29787 -4.421885,-3.61018 -5.015396,-4.76909 C 74.698499,121.56481 74.361357,121.048 74.227715,120.96 73.981005,120.79755 72,116.62631 72,116.26929 c 0,-0.10708 -0.494413,-1.16484 -1.098694,-2.35057 -1.402727,-2.75246 -2.698477,-7.50356 -2.955533,-10.837 -0.193597,-2.51048 -0.176525,-2.60172 0.486797,-2.60172 0.378086,0 0.68743,-0.13351 0.68743,-0.2967 0,-0.16318 0.422026,-0.243284 0.937834,-0.17801 1.016204,0.12861 2.816838,1.17529 4.342166,2.52404 1.572035,1.39004 1.891334,1.63067 2.163805,1.63067 0.142745,0 0.362288,0.1661 0.487865,0.36911 0.125581,0.20301 1.56033,1.04988 3.18833,1.88192 1.628,0.83205 2.96,1.63795 2.96,1.79089 0,0.15294 0.216,0.27808 0.48,0.27808 0.264,0 0.48,0.144 0.48,0.32 0,0.176 0.231277,0.32 0.513952,0.32 0.282672,0 1.072118,0.44208 1.754323,0.98239 0.682205,0.54032 1.374627,0.89942 1.538717,0.79801 0.16409,-0.10141 0.346643,-0.0755 0.405677,0.0576 0.214361,0.4833 3.715024,2.00199 4.61471,2.00199 1.313149,0 4.17985,-1.51014 6.052621,-3.18844 2.02481,-1.81456 7.83722,-7.44181 10.90241,-10.555122 l 2.34672,-2.383564 0.6882,0.622809 c 0.80003,0.724023 1.58267,2.133946 1.58267,2.851197 0,0.5078 0.9613,1.73574 2.76297,3.52935 1.02615,1.02157 4.41123,2.84949 7.37866,3.98443 1.95697,0.74848 4.03622,2.2729 6.00672,4.40389 1.72518,1.86569 2.47425,3.36497 3.216,6.43691 0.83859,3.47299 0.4235,9.38899 -1.13797,16.21854 -1.27354,5.57024 -1.65218,8.74734 -1.53645,12.89243 0.0944,3.38187 0.23171,4.31032 0.81439,5.50757 0.38545,0.792 0.9393,2.40055 1.23076,3.57456 0.29147,1.17401 0.80331,2.42798 1.13743,2.78662 0.33412,0.35863 0.60749,0.87569 0.60749,1.14902 0,0.96523 1.45345,3.30739 2.50031,4.02912 0.58317,0.40206 1.28049,1.1568 1.5496,1.6772 0.45163,0.87336 0.44176,1.01075 -0.12828,1.78484 -1.41752,1.92494 -1.4401,2.13028 -0.40312,3.6668 0.52882,0.78356 0.96149,1.62373 0.96149,1.86705 0,0.24331 0.1894,0.72643 0.42089,1.07359 0.66937,1.00384 1.17911,3.12706 1.17911,4.91137 0,1.34584 -0.27196,2.15583 -1.49173,4.44287 -1.90907,3.57944 -2.02609,3.70587 -4.50288,4.8649 -2.57076,1.203 -3.532,1.20533 -9.58253,0.0232 -0.0314,-0.006 -0.29029,-0.24431 -0.57524,-0.52926 -0.28495,-0.28495 -0.58691,-0.44928 -0.67101,-0.36518 -0.0841,0.0841 -0.36841,1.43325 -0.63179,2.9981 -0.26339,1.56485 -0.77588,4.14118 -1.13888,5.72518 -0.363,1.584 -0.72586,3.21709 -0.80637,3.62909 -0.0838,0.42892 -0.31607,0.68398 -0.54342,0.59673 -0.21837,-0.0838 -0.69546,0.0893 -1.06019,0.38462 -0.62196,0.50364 -0.67475,0.96329 -0.85023,7.40327 -0.17701,6.49616 -0.58008,9.82488 -2.00064,16.52235 -0.18997,0.89564 -0.0468,1.19905 1.20775,2.56 1.86032,2.01806 4.06073,5.02939 4.95785,6.78497 0.39377,0.77057 1.11431,1.92257 1.60119,2.56 2.24781,2.94285 2.9483,4.22448 3.33668,6.10485 0.48086,2.32808 0.15712,3.20655 -1.62411,4.40691 -1.31937,0.88913 -2.5512,0.91565 -5.07534,0.10929 -1.06384,-0.33986 -2.9906,-0.71626 -4.28168,-0.83645 -1.55413,-0.14468 -3.45775,-0.64771 -5.63296,-1.48851 -2.18243,-0.84359 -4.08915,-1.34674 -5.67906,-1.49861 -1.31644,-0.12575 -2.53915,-0.37425 -2.71713,-0.55223 -0.17798,-0.17798 -0.62473,-1.17921 -0.99279,-2.22494 -0.94481,-2.6845 -0.77096,-7.93331 0.33327,-10.06134 0.41097,-0.792 0.83587,-1.51429 0.94423,-1.60509 0.10835,-0.0908 0.5971,-0.60695 1.08609,-1.147 l 0.88909,-0.9819 -0.50815,-3.17301 c -0.74661,-4.66195 -1.02095,-5.81471 -1.97364,-8.293 -0.47359,-1.232 -0.88165,-2.27663 -0.90678,-2.32139 -0.0252,-0.0448 -0.53708,0.17124 -1.13765,0.48 -1.474196,0.7579 -5.620299,0.75782 -6.777089,-1.4e-4 -0.447091,-0.29294 -1.834835,-0.88967 -3.083875,-1.32606 L 88.96,212.19898 v 8.58133 c 0,6.89138 0.08666,8.65325 0.440067,8.94655 1.00345,0.83279 0.886931,3.9163 -0.345881,9.15314 -0.861533,3.6597 -1.596052,5.0027 -2.975415,5.44025 -1.774253,0.56283 -5.672189,2.59313 -6.81328,3.54881 -2.998736,2.51149 -13.031942,5.31569 -15.171677,4.24036 z m 3.670528,-0.55014 c 0.888298,-0.44877 2.673757,-0.92396 4.324445,-1.15092 1.639287,-0.2254 5.671213,-1.95906 5.671213,-2.43852 0,-0.15941 0.190899,-0.28984 0.424221,-0.28984 0.233318,0 0.762419,-0.36 1.175779,-0.8 0.41336,-0.44 0.942461,-0.8 1.175779,-0.8 0.233322,0 0.424221,-0.144 0.424221,-0.32 0,-0.176 0.216707,-0.32 0.481568,-0.32 0.264864,0 1.227814,-0.36 2.139891,-0.8 0.912074,-0.44 1.791072,-0.8 1.953328,-0.8 0.520928,0 1.813971,-1.42117 1.819683,-2 0.0032,-0.308 0.118282,-0.56 0.256087,-0.56 0.137808,0 0.441894,-1.044 0.675747,-2.32 0.233853,-1.276 0.510285,-2.46147 0.614291,-2.63437 0.228592,-0.38002 0.337869,-1.02603 0.58969,-3.48609 0.154893,-1.51316 0.106502,-1.8518 -0.247741,-1.73372 -0.242128,0.0807 -0.530595,0.70267 -0.64104,1.38214 -0.130077,0.80024 -0.53081,1.52364 -1.137686,2.05372 -2.119242,1.85106 -3.177677,2.61478 -3.86176,2.78648 -0.397133,0.0997 -0.722058,0.30961 -0.722058,0.46653 0,0.15692 -0.145062,0.28531 -0.322358,0.28531 -0.177296,0 -1.509296,0.82059 -2.96,1.82353 -1.450704,1.00294 -3.544192,2.15494 -4.652199,2.56 -2.370771,0.86669 -5.107776,0.99121 -5.393974,0.24539 -0.313072,-0.81585 0.573833,-3.35902 1.540528,-4.41742 C 71.591398,237.74473 72,237.10894 72,236.87864 c 0,-0.2303 0.210518,-0.49951 0.467818,-0.59825 0.257302,-0.0987 0.554441,-0.45243 0.66031,-0.786 0.105869,-0.33356 1.17313,-1.60876 2.37169,-2.83376 1.19856,-1.225 2.249449,-2.59478 2.335315,-3.04395 0.192464,-1.00681 -0.01581,-1.02396 -1.038403,-0.0855 -0.713613,0.6549 -1.621069,1.19288 -4.57248,2.71074 -2.646816,1.36121 -7.253952,7.44211 -7.271367,9.59738 -0.0039,0.48438 -0.28871,1.2407 -0.632883,1.6807 -0.531632,0.67965 -0.626838,1.31905 -0.632883,4.25031 -0.0068,3.28222 0.02797,3.46441 0.712883,3.73972 0.941149,0.37829 2.66313,0.4035 3.364342,0.0493 z m 58.867068,-4.51055 c 1.18204,-0.72072 1.6121,-1.93974 1.0892,-3.08738 -0.19833,-0.43531 -0.36061,-1.06768 -0.36061,-1.40527 0,-0.3376 -0.432,-1.10583 -0.96,-1.70719 -0.528,-0.60136 -0.96,-1.20507 -0.96,-1.34157 0,-0.13651 -0.5582,-0.9815 -1.24043,-1.87776 -0.68224,-0.89626 -1.41349,-2.16979 -1.62499,-2.83008 -0.30976,-0.96702 -3.95363,-5.9991 -4.80784,-6.63948 -0.11738,-0.088 -0.33219,-0.448 -0.47735,-0.8 -0.21619,-0.52424 -0.31322,-0.37955 -0.53643,0.8 -0.26455,1.39796 -0.23508,1.47737 1.00922,2.72 2.43733,2.43405 2.81824,2.88851 4.1033,4.89556 1.47115,2.29771 1.8516,3.57826 1.34456,4.52567 -0.47643,0.89024 -2.77959,0.88655 -5.13456,-0.008 -0.96551,-0.36685 -2.04348,-0.74765 -2.39548,-0.84622 -0.352,-0.0986 -0.784,-0.28257 -0.96,-0.40888 -0.176,-0.12631 -0.69267,-0.3184 -1.14814,-0.42686 -0.45548,-0.10847 -1.53548,-0.8593 -2.4,-1.66852 -0.86453,-0.80922 -2.01191,-1.65731 -2.54975,-1.88464 -0.53785,-0.22733 -1.36585,-0.77287 -1.84,-1.2123 -0.76925,-0.71292 -0.86211,-1.02768 -0.86211,-2.92228 0,-1.16782 -0.1312,-2.12331 -0.29156,-2.12331 -0.16035,0 -0.66958,0.44926 -1.13161,0.99836 -1.62441,1.93049 -1.84749,2.71473 -1.89354,6.65674 -0.0378,3.23664 0.0479,3.89701 0.67835,5.2249 0.65988,1.38992 1.14059,1.73342 2.14777,1.53476 0.80121,-0.15804 4.57492,0.78438 5.25375,1.31203 0.41973,0.32627 1.00293,0.59321 1.296,0.59321 0.29306,0 0.66964,0.12076 0.83684,0.26837 0.38336,0.33842 4.1335,1.00597 5.7809,1.02903 0.6837,0.01 1.8911,0.28264 2.6831,0.60682 1.95648,0.80082 4.06237,0.81047 5.35141,0.0245 z m -52.277996,-4.81761 c 1.15546,-0.35688 2.726528,-1.12648 3.491264,-1.71022 1.491194,-1.13826 4.35354,-2.98028 5.702164,-3.66955 0.454761,-0.23243 1.67814,-1.18399 2.718617,-2.11459 l 1.891776,-1.69198 0.115738,-10.5347 c 0.09444,-8.59589 0.0358,-10.59708 -0.318618,-10.87369 -0.573894,-0.4479 -2.645257,-1.49559 -4.426333,-2.23883 -0.787584,-0.32866 -1.88271,-0.90305 -2.433606,-1.27643 -0.550896,-0.37338 -1.757037,-0.92978 -2.680314,-1.23645 -0.923273,-0.30666 -2.438652,-1.17657 -3.36751,-1.93314 l -1.688835,-1.37557 -0.215287,2.46802 c -0.130742,1.49881 -0.08318,2.8155 0.12112,3.35285 0.185024,0.48665 0.33641,1.35065 0.33641,1.91999 0,0.56934 0.121277,1.17197 0.269507,1.33917 0.526285,0.59364 2.625763,6.75956 3.547421,10.41835 1.067235,4.2367 1.372634,8.1746 0.624144,8.0479 -0.252627,-0.0428 -0.766678,0.24523 -1.142336,0.64 -2.21185,2.32434 -2.87065,3.1166 -3.801002,4.57097 -0.568038,0.88799 -1.247625,1.79281 -1.510192,2.01073 -0.665078,0.55196 -1.90887,3.54255 -1.699875,4.08718 0.245642,0.64014 2.000074,0.56156 4.465747,-0.20001 z m 48.416736,-2.40642 c 0.50084,-1.30517 -5.22312,-9.4247 -6.64405,-9.4247 -0.33335,0 -0.6061,-0.126 -0.6061,-0.28 0,-0.154 -0.0841,-0.766 -0.18694,-1.36 -0.14158,-0.81793 -0.10395,-0.96353 0.1551,-0.6 0.18812,0.264 0.36066,0.336 0.38343,0.16 0.0228,-0.176 0.0886,-0.752 0.14626,-1.28 0.0577,-0.528 0.24653,-1.464 0.41965,-2.08 0.17312,-0.616 0.48136,-1.984 0.68498,-3.04 0.20362,-1.056 0.49456,-2.496 0.64654,-3.2 0.61389,-2.84369 1.53032,-15.84 1.11695,-15.84 -0.12361,0 -0.60752,0.29611 -1.07536,0.65803 -1.22661,0.94889 -4.22405,3.01442 -7.69549,5.30294 -2.53034,1.66811 -6.71293,4.2027 -7.22758,4.37981 -0.17213,0.0592 0.0822,1.11343 0.56619,2.34709 0.48326,1.23176 1.02224,2.73289 1.19773,3.33585 0.61323,2.10699 1.61227,8.39658 1.8087,11.38688 0.18581,2.82872 0.2559,3.06383 1.1335,3.80228 0.51449,0.43292 1.1168,0.78712 1.33845,0.78712 0.22165,0 1.28172,0.70522 2.3557,1.56715 1.35145,1.0846 2.7224,1.82513 4.45245,2.405 1.37486,0.46082 2.71574,0.9774 2.97974,1.14795 0.81406,0.52591 3.83117,0.39525 4.05015,-0.1754 z M 65.447027,188.82007 c 1.140135,-0.51696 2.072311,-1.12896 2.071498,-1.36 -0.0029,-0.85426 -1.257936,-8.92787 -1.431331,-9.20843 -0.09881,-0.15988 -1.024852,0.29255 -2.057872,1.00539 -1.79426,1.23813 -1.930285,1.27889 -3.043034,0.91165 -0.64065,-0.21144 -1.916646,-0.89088 -2.835552,-1.50988 -0.918906,-0.619 -2.174736,-1.38314 -2.790736,-1.69808 -0.616,-0.31494 -1.394317,-0.87594 -1.729597,-1.24667 -0.335277,-0.37073 -0.714182,-0.67405 -0.842009,-0.67405 -0.355456,0 -0.948394,2.66836 -0.948394,4.26799 0,2.36954 1.646813,7.26418 2.785066,8.27774 0.987833,0.87962 4.098156,1.67398 8.341961,2.13049 0.223863,0.0241 1.339863,-0.37919 2.48,-0.89615 z m 69.344963,-0.30213 c 2.35299,-1.08046 2.61012,-1.34956 4.31705,-4.51794 1.68666,-3.13074 1.89437,-4.43391 1.09707,-6.88294 -0.80973,-2.4872 -1.43988,-4.11671 -1.66945,-4.31706 -0.10084,-0.088 -0.27757,-0.41527 -0.39274,-0.72726 -0.43532,-1.17926 -1.24864,-1.04225 -2.55559,0.4305 -0.69108,0.77874 -1.51432,1.92009 -1.82943,2.53633 -0.31511,0.61623 -1.12777,1.64503 -1.80591,2.28622 -0.67815,0.64118 -1.41867,1.39718 -1.64561,1.68 -0.57983,0.7226 -1.88239,0.62397 -3.73379,-0.28272 -0.87253,-0.4273 -1.6304,-0.73292 -1.68416,-0.67916 -0.22615,0.22614 -0.48531,8.1702 -0.29171,8.94157 0.2492,0.99289 1.44095,1.68208 3.41795,1.97661 0.78338,0.11671 1.48433,0.27198 1.55766,0.34505 0.47897,0.47726 3.43373,0.0304 5.21866,-0.7892 z M 63.490512,178.7193 c 0.475181,-0.44038 1.288208,-1.02008 1.806726,-1.28822 0.854852,-0.44205 0.945098,-0.64341 0.967824,-2.1593 0.01379,-0.91948 0.08902,-2.71578 0.167178,-3.99178 0.07816,-1.276 0.02698,-2.32 -0.113747,-2.32 -0.140723,0 -0.701418,0.396 -1.245984,0.88 -0.54457,0.484 -1.187299,0.92755 -1.428288,0.98566 -0.240989,0.0581 -0.511527,0.21551 -0.601194,0.34978 -0.240912,0.36076 -1.978246,-0.45996 -2.780368,-1.31344 -1.692025,-1.80039 -2.219677,-2.47431 -2.783849,-3.5556 -0.798765,-1.5309 -1.963949,-2.5943 -2.582528,-2.35693 -0.375194,0.14398 -0.496733,0.68088 -0.498135,2.20049 -9.6e-4,1.10552 -0.159078,2.87404 -0.351241,3.93004 -0.682724,3.7518 -0.639024,4.30176 0.435638,5.48274 0.539158,0.59249 1.217174,1.07726 1.506704,1.07726 0.289526,0 1.02239,0.37562 1.628582,0.83471 1.396992,1.05798 3.462692,2.02915 4.335444,2.03826 0.370297,0.004 1.062057,-0.35328 1.537238,-0.79367 z m -7.277178,-6.45263 C 55.807642,171.86097 56.002483,171.52 56.64,171.52 c 0.713187,0 0.802842,-0.3778 0.308742,-1.30104 -0.599088,-1.1194 -1.268742,-0.74982 -1.268742,0.70022 0,1.13633 -0.06653,1.26397 -0.48,0.92082 -0.501462,-0.41618 -0.639856,-1.838 -0.235101,-2.41535 0.357843,-0.51044 1.686298,-0.48782 1.885811,0.0321 0.09699,0.25276 0.281264,0.39472 0.409488,0.31548 0.128224,-0.0793 0.239984,0.0296 0.248352,0.24184 0.0084,0.21225 0.112653,0.61935 0.231738,0.90466 0.331322,0.79378 -0.95,1.92488 -1.526954,1.34793 z m 74.884626,4.98447 c 0.83799,-0.89588 1.85294,-2.20865 2.25544,-2.91726 0.4025,-0.70862 1.47251,-2.05744 2.37779,-2.99738 2.00026,-2.07684 2.82622,-3.28857 2.81958,-4.1365 -0.006,-0.77101 -0.88756,-1.90857 -1.70115,-2.19522 -0.32471,-0.11441 -0.6655,-0.49528 -0.75732,-0.8464 -0.0918,-0.35111 -0.28298,-0.63838 -0.42481,-0.63838 -0.14182,0 -0.42419,-0.504 -0.62749,-1.12 -0.2033,-0.616 -0.46647,-1.11754 -0.58482,-1.11454 -0.11835,0.003 -0.57148,0.831 -1.00696,1.84 -0.44891,1.04013 -1.48818,2.55139 -2.4,3.48998 -0.88452,0.9105 -2.14144,2.25543 -2.79314,2.98874 -1.07444,1.20897 -1.28331,1.31225 -2.24,1.10761 -0.5803,-0.12413 -1.25677,-0.3887 -1.50329,-0.58793 -0.37619,-0.30404 -0.4169,-0.131 -0.25333,1.07695 0.10719,0.79155 0.28874,2.40259 0.40345,3.58009 0.19602,2.01217 0.27859,2.188 1.37332,2.92442 2.42982,1.63451 3.17122,1.568 5.06273,-0.45418 z m 1.3933,-8.2701 c -0.6291,-1.17548 -0.40049,-2.0946 0.61647,-2.47846 0.70576,-0.26639 1.01988,-0.26388 1.23032,0.01 0.982,1.27728 0.56051,3.08757 -0.71887,3.08757 -0.46013,0 -0.93659,-0.26147 -1.12792,-0.61896 z m 1.6243,-0.53528 c 0.14818,-1.85784 0.1296,-1.89185 -0.8322,-1.52277 -0.46802,0.1796 -0.68172,1.73198 -0.29207,2.12163 0.30516,0.30517 1.0853,-0.11038 1.12427,-0.59886 z m -51.65484,-44.5055 c 1.645024,-3.57241 2.36927,-5.61174 2.564214,-7.22026 0.167268,-1.38019 0.123696,-1.52 -0.473696,-1.52 -0.361846,0 -0.712787,0.16465 -0.779868,0.36589 -0.0915,0.27451 -0.292688,0.27451 -0.805629,0 C 82.589725,115.36465 81.984608,115.2 81.621037,115.2 81.257466,115.2 80.96,115.032 80.96,114.82667 c 0,-0.20534 -0.08314,-0.2902 -0.184755,-0.18858 -0.270467,0.27046 -3.979261,-1.63621 -4.175024,-2.14637 -0.09159,-0.23868 -0.485085,-0.51392 -0.874429,-0.61163 -0.981046,-0.24623 -3.680336,-2.89845 -4.210637,-4.1372 C 71.274317,107.1803 70.555901,106.144 69.918672,105.44 l -1.158595,-1.28 0.197859,1.44 c 0.405821,2.95356 1.207408,5.67831 2.447642,8.32 2.982073,6.35179 3.890262,8.01877 5.145792,9.44513 1.561696,1.77418 4.075347,3.44426 4.568265,3.03517 0.185418,-0.15388 0.788906,-1.2609 1.341085,-2.46004 z m 25.98069,0.67611 c 0.24278,-0.515 0.69561,-1.22437 1.0063,-1.57637 0.6787,-0.76895 3.17491,-5.63897 3.34617,-6.52825 0.0668,-0.34662 0.2582,-0.89156 0.42543,-1.21098 0.16723,-0.31943 0.54952,-1.66077 0.84953,-2.98077 0.5436,-2.39179 0.53856,-4.10941 -0.0313,-10.68235 l -0.19096,-2.202341 -1.03457,1.936341 c -1.874,3.50745 -3.52869,5.63459 -7.42326,9.54274 -3.58666,3.59917 -3.54034,3.46886 -2.1896,6.16031 0.61649,1.22839 1.12089,2.29608 1.12089,2.37263 0,0.0766 0.6538,1.53828 1.4529,3.2483 0.85908,1.83837 1.61111,3.05761 1.84,2.98311 0.2129,-0.0693 0.58574,-0.54737 0.82851,-1.06237 z m -17.009967,38.58266 c -0.557341,-0.43841 -0.865315,-1.08275 -1.02432,-2.14307 -0.211283,-1.40893 -0.162992,-1.56768 0.682755,-2.24448 1.123648,-0.89917 1.709508,-0.91775 2.605908,-0.0826 1.072419,0.9991 1.193318,2.04198 0.387824,3.3453 -0.99577,1.61119 -1.670237,1.89725 -2.652167,1.12487 z m 2.131754,-1.10777 c 0.662397,-1.01095 0.657648,-2.04523 -0.0128,-2.78606 -0.695466,-0.76848 -1.554525,-0.74108 -2.371251,0.0756 -1.102349,1.10235 -0.319277,3.49915 1.143225,3.49915 0.416413,0 0.943584,-0.3351 1.240819,-0.78874 z M 96,156.71222 c 0,-1.16295 0.12727,-2.19311 0.282822,-2.28924 0.261754,-0.16178 0.102045,3.96754 -0.165164,4.27035 C 96.052944,158.76667 96,157.87516 96,156.71222 Z M 90.760698,149.04 c -0.808215,-1.28159 -0.901693,-2.08942 -0.340829,-2.94541 0.687638,-1.04947 1.636173,-1.03393 2.762621,0.0453 1.077404,1.03222 1.14719,2.08258 0.197171,2.96766 -0.923344,0.86023 -2.052243,0.83112 -2.618963,-0.0675 z m 2.173129,-0.11424 c 0.662915,-0.25438 0.649143,-1.67739 -0.02342,-2.42056 -0.291277,-0.32186 -0.867277,-0.5852 -1.28,-0.5852 -0.640851,0 -0.750403,0.15969 -0.750403,1.09383 0,1.96811 0.556768,2.48641 2.053827,1.91193 z M 89.274323,135.4401 c -0.5284,-0.67175 -0.648275,-1.14487 -0.506749,-2 0.101962,-0.61606 0.186967,-1.34495 0.188903,-1.61976 0.0056,-0.7888 1.231542,-1.90034 2.09599,-1.90034 0.433143,0 0.787533,0.144 0.787533,0.32 0,0.176 -0.370285,0.32 -0.822858,0.32 -1.165238,0 -1.611616,0.58477 -1.813481,2.37573 -0.151562,1.34465 -0.07176,1.66526 0.575648,2.31267 0.938579,0.93858 1.479849,0.94531 2.541875,0.0316 0.650154,-0.55935 0.84105,-1.02382 0.85559,-2.08173 0.0103,-0.74895 -0.159897,-1.57695 -0.378211,-1.84 -0.323773,-0.39012 -0.303513,-0.47827 0.10992,-0.47827 0.628451,0 1.274515,2.19821 0.985043,3.35156 -0.499532,1.99029 -3.406102,2.75075 -4.619203,1.20854 z"
         id="path680" />
    </g>
  </g>
</svg>
