<?xml version="1.0" encoding="UTF-8" standalone="no"?>
<!-- Created with Inkscape (http://www.inkscape.org/) -->

<svg
   version="1.1"
   id="svg161"
   width="192"
   height="288"
   viewBox="0 0 192 288"
   xmlns="http://www.w3.org/2000/svg"
   xmlns:svg="http://www.w3.org/2000/svg">
  <defs
     id="defs165" />
  <g
     id="g167">
    <g
       id="g171"
       transform="translate(-2.3341514e-8,0.70761667)">
      <path
         style="fill:#fefefe;stroke-width:0.32"
         d="M 0,144 V 0 h 96 96 V 144 288 H 96 0 Z m 107.72427,101.60212 c 0.62905,-0.26283 1.29467,-0.38458 1.47917,-0.27055 0.18449,0.11402 0.24471,0.0605 0.13381,-0.11893 -0.12889,-0.20856 0.86332,-0.38575 2.75056,-0.49119 3.57063,-0.19948 9.97851,-1.59193 12.39219,-2.69285 0.968,-0.44152 3.056,-1.27565 4.64,-1.85364 1.95678,-0.71401 3.93804,-1.78242 6.18056,-3.33292 1.81531,-1.25512 3.41768,-2.28204 3.56082,-2.28204 0.14314,0 0.4496,-0.22814 0.68102,-0.50699 0.23142,-0.27884 1.43705,-1.01425 2.67918,-1.63425 1.48144,-0.73944 2.98958,-1.8586 4.38367,-3.25301 1.9352,-1.93566 3.6889,-3.40533 6.46491,-5.41785 0.55541,-0.40266 1.23811,-0.67434 1.5171,-0.60375 1.57265,0.39792 -0.61405,-2.38001 -5.52075,-7.01345 -0.76258,-0.72011 -1.59924,-1.72811 -1.85925,-2.24 -0.26001,-0.51188 -0.77559,-1.4347 -1.14574,-2.0507 -0.37014,-0.616 -1.16406,-2.056 -1.76427,-3.2 -1.16987,-2.22981 -1.14982,-2.19839 -2.39511,-3.75315 l -0.8275,-1.03314 1.1324,0.47314 c 1.31365,0.54888 3.48154,0.61952 4.37287,0.14249 0.33981,-0.18186 1.44286,-0.48317 2.45122,-0.66957 2.30494,-0.42609 5.43088,-1.84029 6.52727,-2.95298 0.90481,-0.91826 1.8816,-3.87195 1.8816,-5.6897 0,-1.24887 -0.84653,-4.3781 -1.35183,-4.99709 -0.17959,-0.22 -0.22464,-0.4 -0.1001,-0.4 0.12454,0 -0.28674,-0.69909 -0.91395,-1.55353 -0.62722,-0.85444 -1.03549,-1.65844 -0.90726,-1.78667 0.12823,-0.12822 0.0891,-0.18513 -0.0869,-0.12647 -0.176,0.0587 -0.33591,-0.0373 -0.35536,-0.21333 -0.0472,-0.42719 3.37681,-1.80457 3.83537,-1.54286 0.19799,0.11301 0.26065,0.095 0.13923,-0.0399 -0.29836,-0.33166 0.45816,-1.11591 0.86076,-0.89232 0.176,0.0977 0.21169,0.0583 0.0793,-0.0876 -0.13238,-0.14593 -0.0395,-0.49302 0.20636,-0.7713 0.24589,-0.27828 0.95767,-1.74705 1.58174,-3.26391 1.09922,-2.67175 1.23927,-4.12206 0.39805,-4.12206 -0.46261,0 -1.99528,-1.62488 -3.16933,-3.36 -0.47636,-0.704 -1.33497,-1.86009 -1.90805,-2.56908 -0.73653,-0.91124 -1.44302,-2.55268 -2.41027,-5.6 -0.75258,-2.37101 -1.80744,-5.39092 -2.34412,-6.71092 -1.50455,-3.70054 -3.09818,-9.13829 -3.61059,-12.32 -0.75605,-4.69452 -2.01261,-10.11617 -2.78119,-12 -0.85059,-2.08482 -1.56585,-3.20126 -3.23406,-5.04798 -0.68682,-0.76033 -1.13651,-1.52855 -1.01235,-1.72945 0.12398,-0.2006 0.0815,-0.27378 -0.0954,-0.16443 -0.17533,0.10836 -1.058,-0.58287 -1.96147,-1.53608 -1.19626,-1.2621 -2.01445,-1.82823 -3.01065,-2.08312 -5.64378,-1.44407 -8.18008,-2.3683 -9.76797,-3.55944 -0.924,-0.69313 -1.68,-1.39957 -1.68,-1.56986 0,-0.17031 -0.108,-0.27584 -0.24,-0.23454 -0.132,0.0413 -1.04431,-0.3877 -2.02736,-0.95336 -1.51064,-0.86925 -1.85232,-1.24006 -2.20691,-2.39511 -0.23075,-0.75164 -0.44853,-1.72663 -0.48396,-2.16663 -0.10444,-1.29695 -0.51532,-4.26832 -0.68588,-4.96 -0.12869,-0.52187 -0.0958,-0.5514 0.17825,-0.16 0.29322,0.41882 0.33669,0.41299 0.34096,-0.0458 0.003,-0.28917 -0.22023,-0.61216 -0.49538,-0.71774 -0.27516,-0.10559 -0.41458,-0.33066 -0.30982,-0.50015 0.40614,-0.65715 -1.67799,-3.98691 -2.2635,-3.61635 -0.26417,0.16719 -0.94409,0.059 -1.38582,-0.22051 -0.34802,-0.22022 -0.37172,-0.39639 -0.0977,-0.72653 0.28332,-0.34138 0.2318,-0.435818 -0.23772,-0.435818 -0.32968,0 -0.59265,0.07714 -0.58438,0.171428 0.0677,0.77211 -0.24147,0.90414 -2.18584,0.93331 -2.62798,0.0394 -3.77668,0.64838 -5.07491,2.69033 -0.81441,1.28097 -1.09308,1.49399 -1.83755,1.40466 -0.48265,-0.0579 -0.82585,-0.0536 -0.76267,0.01 0.0632,0.0632 -0.38441,0.61417 -0.99465,1.22442 -0.99117,0.99116 -1.09739,1.26227 -0.99568,2.54111 0.10632,1.33688 0.056,1.44428 -0.75999,1.62351 -0.48062,0.10556 -1.045828,0.0856 -1.256033,-0.0443 -0.260573,-0.16104 -0.317168,-0.0668 -0.177849,0.29629 0.156579,0.40804 0.01971,0.5325 -0.58562,0.5325 -0.434476,0 -0.789958,0.13217 -0.789958,0.29372 0,0.16155 -0.756,0.29196 -1.68,0.28979 -0.924,-0.002 -2.22,0.2276 -2.88,0.51057 -1.439098,0.61702 -1.578912,0.89873 -0.24,0.48358 0.528,-0.16371 1.392,-0.43161 1.92,-0.59532 0.757926,-0.23501 0.96,-0.20133 0.96,0.16 0,0.29517 -0.340826,0.45766 -0.96,0.45766 -0.746666,0 -0.96,0.14222 -0.96,0.64 0,0.57326 -0.213334,0.64 -2.045763,0.64 -1.445523,0 -2.095552,-0.12975 -2.21545,-0.44219 -0.09333,-0.24321 -0.900403,-0.6175 -1.793504,-0.83175 -0.893101,-0.21425 -1.552976,-0.50417 -1.46639,-0.64427 C 86.766848,111.98532 85.930099,111.68 84.8,111.68 c -1.168029,0 -1.964838,-0.30856 -1.739277,-0.67353 0.163408,-0.2644 -0.300505,-0.42419 -0.921568,-0.31742 -0.143462,0.0247 -0.669693,-0.24628 -1.169398,-0.6021 C 80.470051,109.73113 79.903434,109.44 79.710602,109.44 79.51777,109.44 79.36,109.296 79.36,109.12 c 0,-0.176 -0.217408,-0.32 -0.483133,-0.32 -0.265721,0 -0.729725,-0.288 -1.031117,-0.64 -0.301392,-0.352 -0.80398,-0.64 -1.116867,-0.64 -0.312886,0 -0.532883,-0.18 -0.488883,-0.4 0.044,-0.22 -0.208,-0.40342 -0.56,-0.40759 -0.42463,-0.005 -0.608752,-0.19177 -0.547146,-0.55489 0.06769,-0.39895 -0.05496,-0.49058 -0.452496,-0.33803 -0.299939,0.1151 -0.480249,0.0768 -0.400688,-0.0851 0.168989,-0.34388 -1.850649,-2.37674 -2.1068,-2.12058 -0.09508,0.0951 -0.17287,0.01 -0.17287,-0.18921 0,-0.70594 -1.397629,-1.09184 -4.121238,-1.13792 -2.316448,-0.0392 -3.006004,0.0751 -4.300832,0.71256 -3.225408,1.58801 -4.551501,3.62535 -3.600519,5.53163 0.317047,0.63554 0.361818,1.22446 0.159379,2.09648 -0.154838,0.66696 -0.284956,1.80524 -0.289155,2.5295 -0.0048,0.82289 -0.247705,1.62205 -0.647635,2.13048 -0.352,0.44749 -0.64,1.0371 -0.64,1.31023 0,0.74344 -2.505651,3.17178 -3.055178,2.9609 -0.255651,-0.0981 -0.464822,-0.056 -0.464822,0.0936 0,0.14959 -0.648426,0.43525 -1.44095,0.63481 -3.22794,0.8128 -4.959671,1.69218 -7.033684,3.57174 -1.153968,1.04577 -2.019904,1.9014 -1.924304,1.9014 0.0956,0 -0.409548,0.73802 -1.122556,1.64004 -1.203482,1.52252 -2.878506,4.67773 -2.878506,5.42219 0,0.1778 -0.302496,0.91621 -0.672214,1.64092 -1.440423,2.82345 -1.604269,4.04824 -1.523594,11.38925 0.06752,6.14435 -0.0013,7.26207 -0.595722,9.6676 -0.369641,1.496 -0.988032,4.016 -1.374201,5.6 -0.386173,1.584 -0.983987,4.032 -1.32848,5.44 -1.007952,4.11968 -1.519485,6.93975 -1.533088,8.45188 -0.01099,1.22186 -1.270253,4.18812 -1.777973,4.18812 -0.07606,0 -0.378961,-0.468 -0.673112,-1.04 -0.294151,-0.572 -0.945849,-1.54081 -1.448218,-2.15291 C 29.211029,175.395 28.8,174.639 28.8,174.3271 c 0,-0.94246 -0.894566,-0.64136 -2.118069,0.71291 -0.636022,0.704 -1.338176,1.28 -1.560344,1.28 -0.222168,0 -0.580905,0.42723 -0.797192,0.94939 -0.216288,0.52217 -0.593758,1.1158 -0.838823,1.31918 -0.245064,0.20339 -0.445572,0.55859 -0.445572,0.78935 0,0.59515 1.806729,3.51701 3.423295,5.53618 0.754778,0.94276 1.278223,1.87876 1.163211,2.08 -0.115013,0.20124 -0.115058,0.28293 -1.01e-4,0.18153 0.114957,-0.10141 1.101709,0.65459 2.192781,1.68 1.091073,1.0254 2.184104,1.86437 2.428958,1.86437 0.244854,0 0.370547,0.18 0.279315,0.4 -0.806345,1.94447 -0.94535,2.92803 -0.614051,4.34486 0.607882,2.59966 1.893683,5.98039 3.309738,8.70222 1.569788,3.01734 1.945129,3.26304 5.80495,3.79989 1.659021,0.23075 3.001805,0.23976 4.120179,0.0277 2.23465,-0.4238 3.171725,-0.39595 3.171725,0.0942 0,0.22489 0.301293,0.66686 0.669539,0.98216 0.643981,0.55139 0.647795,0.59731 0.09989,1.20274 -0.313306,0.34619 -1.154599,0.91269 -1.86954,1.25889 -1.221257,0.59136 -2.821974,1.65136 -4.099894,2.71498 -0.763795,0.6357 -0.718147,2.90948 0.115478,5.75235 0.361264,1.232 0.675927,2.48143 0.699255,2.77651 0.02333,0.29507 0.143949,0.47375 0.268048,0.39705 0.124102,-0.0767 0.384189,0.34095 0.577968,0.9281 0.465619,1.41085 3.450931,3.96427 5.518201,4.71989 1.907063,0.69705 1.881104,0.67665 1.945277,1.52855 0.02746,0.36434 0.103235,0.60911 0.168423,0.54392 0.128156,-0.12816 5.499385,3.89597 7.58735,5.68445 1.72289,1.47576 2.62416,1.89812 6.552925,3.07086 2.200531,0.65686 4.620169,1.10922 7.04,1.31615 4.925485,0.4212 5.246441,0.50002 7.905427,1.94141 2.876048,1.55905 5.745584,2.64612 6.361286,2.40985 1.125287,-0.43181 1.667991,-3.0442 2.068432,-9.95674 0.18352,-3.168 0.833904,-10.03556 1.445296,-15.26123 0.611392,-5.22568 1.203629,-10.58968 1.316084,-11.92 0.112454,-1.33033 0.296476,-2.41877 0.408937,-2.41877 0.201479,0 0.974131,5.74439 1.614071,12 0.499513,4.88291 1.613564,11.6182 2.275974,13.76 0.326598,1.056 0.729693,2.856 0.895763,4 0.360919,2.48621 1.001904,4.08715 2.20534,5.50809 0.48999,0.57855 1.3008,1.62791 1.80181,2.33191 1.92954,2.71134 3.37768,3.26799 5.83293,2.24212 z M 92.55424,201.6 c 0,-0.616 0.06586,-0.868 0.146346,-0.56 0.08049,0.308 0.08049,0.812 0,1.12 -0.08049,0.308 -0.146346,0.056 -0.146346,-0.56 z m 60.64043,-0.99971 c 0.21706,-0.21869 0.47527,-0.31701 0.5738,-0.21849 0.0985,0.0985 -0.0791,0.27746 -0.39467,0.39763 -0.45606,0.17365 -0.49282,0.1369 -0.17913,-0.17914 z m -98.653828,-9.58618 c -0.156096,-0.24976 -0.443024,-1.24611 -0.63762,-2.21411 -0.277843,-1.38211 -0.482697,-1.76 -0.954089,-1.76 -0.375955,0 -0.67057,0.29775 -0.788371,0.79677 -0.126954,0.53779 -0.267802,0.66781 -0.433312,0.4 -0.134871,-0.21822 -0.142474,-0.56302 -0.0169,-0.76621 0.133331,-0.21574 0.08857,-0.28307 -0.107584,-0.16184 -0.26545,0.16406 -0.72297,-0.40091 -0.72297,-0.89276 0,-0.0504 0.592067,-0.17111 1.315706,-0.26816 0.798982,-0.10717 1.654166,-0.50074 2.17751,-1.00214 1.498547,-1.4357 1.845245,-1.14337 1.582512,1.33434 -0.299446,2.82395 -1.026851,5.15498 -1.414886,4.53411 z m 98.255928,-4.13933 c -0.11054,-0.17887 -0.35729,-0.22862 -0.54833,-0.11056 -0.2123,0.13122 -0.25483,0.065 -0.10939,-0.17032 0.18219,-0.29479 0.34371,-0.29719 0.68944,-0.0103 0.45286,0.37584 0.57398,0.61636 0.3104,0.61636 -0.0776,0 -0.23157,-0.14635 -0.34212,-0.32522 z M 35.565555,185.59313 c -0.372134,-1.06751 -0.06818,-1.21415 1.123031,-0.54179 l 0.688585,0.38866 -0.739677,0.55313 c -0.724902,0.54209 -0.74631,0.5341 -1.071939,-0.4 z m 20.662112,-2.33219 c -0.104294,-0.27178 0.02131,-0.6692 0.279088,-0.88314 0.656183,-0.54459 0.794093,-0.27365 0.315706,0.62023 -0.32457,0.60647 -0.442893,0.65877 -0.594794,0.26291 z M 101.07918,165.2 c -0.39804,-0.50754 -0.38672,-0.51886 0.12082,-0.12082 0.53304,0.41804 0.70255,0.68082 0.43918,0.68082 -0.0664,0 -0.31845,-0.252 -0.56,-0.56 z m -2.605846,-54.35333 c -0.106332,-0.10634 -0.382336,-0.1177 -0.613334,-0.0252 -0.255274,0.10215 -0.17945,0.17798 0.193334,0.19333 0.337332,0.0139 0.526333,-0.0617 0.42,-0.16807 z"
         id="path187" />
      <path
         style="fill:#ecece1;stroke-width:0.32"
         d="M 99.969597,240.88 99.36,240.16 l 0.72,0.6096 c 0.67662,0.57287 0.86568,0.8304 0.6096,0.8304 -0.0607,0 -0.38473,-0.324 -0.720003,-0.72 z M 138.88,234.43918 c 0,-0.0665 0.252,-0.31845 0.56,-0.56 0.50754,-0.39804 0.51886,-0.38672 0.12082,0.12082 -0.41804,0.53304 -0.68082,0.70255 -0.68082,0.43918 z M 48.466842,208.61871 c -0.11601,-0.18771 -0.142298,-0.40992 -0.05842,-0.4938 0.08388,-0.0839 0.237779,0.0697 0.342,0.34129 0.216377,0.56387 0.03197,0.66306 -0.283584,0.15251 z M 42.82,208.1014 c 0.230998,-0.0924 0.506998,-0.0811 0.613334,0.0252 0.106333,0.10634 -0.08267,0.18197 -0.42,0.16807 -0.372784,-0.0154 -0.448608,-0.0912 -0.193334,-0.19333 z m 49.833667,-5.19929 c -0.101261,-0.16384 -0.03776,-0.38834 0.141114,-0.49888 0.17887,-0.11055 0.325219,0.0235 0.325219,0.29788 0,0.56209 -0.192019,0.64485 -0.466333,0.201 z m 60.159383,-2.28323 c 0.0797,-0.12895 0.64111,-0.52723 1.24759,-0.88506 0.80337,-0.474 1.05465,-0.52542 0.92573,-0.18945 -0.0973,0.25364 -0.52009,0.54727 -0.93945,0.65253 -0.41937,0.10525 -0.69783,0.29601 -0.61879,0.4239 0.079,0.12789 -0.0596,0.23253 -0.30813,0.23253 -0.24852,0 -0.38664,-0.1055 -0.30695,-0.23445 z M 50.740573,186.9738 c -0.173658,-0.45606 -0.136903,-0.49282 0.179136,-0.17913 0.218694,0.21706 0.317014,0.47527 0.218489,0.5738 -0.09852,0.0985 -0.277456,-0.0791 -0.397625,-0.39467 z m 103.203067,0.0947 c -0.2887,-0.34787 -0.27933,-0.50656 0.0408,-0.69131 0.22855,-0.13188 0.30879,-0.12195 0.17832,0.0221 -0.13048,0.14403 -0.0768,0.45511 0.11918,0.69131 0.19602,0.23619 0.2844,0.42944 0.1964,0.42944 -0.088,0 -0.32862,-0.20318 -0.53472,-0.45151 z m -1.455,-0.17452 c -0.10403,-0.16831 -0.40052,-0.2249 -0.65889,-0.12576 -0.25836,0.0991 -0.46975,0.10826 -0.46975,0.0203 0,-0.42063 0.95741,-0.45717 1.29579,-0.0495 0.21041,0.25354 0.30144,0.46098 0.20228,0.46098 -0.0992,0 -0.26541,-0.13771 -0.36943,-0.30602 z M 38.24,186.24 c 0.108774,-0.176 0.261274,-0.32 0.338886,-0.32 0.07761,0 0.141114,0.144 0.141114,0.32 0,0.176 -0.152499,0.32 -0.338886,0.32 -0.186388,0 -0.249888,-0.144 -0.141114,-0.32 z M 56,184 c 0,-0.176 0.152499,-0.32 0.338886,-0.32 0.186388,0 0.249888,0.144 0.141114,0.32 -0.108774,0.176 -0.261274,0.32 -0.338886,0.32 C 56.063501,184.32 56,184.176 56,184 Z m -31.47572,-7.2 c 0.101306,-0.264 0.330419,-0.48 0.509139,-0.48 0.187297,0 0.156197,0.20333 -0.07342,0.48 -0.2191,0.264 -0.448213,0.48 -0.509139,0.48 -0.06093,0 -0.02789,-0.216 0.07342,-0.48 z m 134.96532,-2.16 -0.6096,-0.72 0.72,0.6096 c 0.67662,0.57287 0.86568,0.8304 0.6096,0.8304 -0.0607,0 -0.38473,-0.324 -0.72,-0.72 z M 102.08,165.92 c -0.2191,-0.264 -0.27273,-0.48564 -0.11918,-0.49252 0.15355,-0.007 -0.15282,-0.20756 -0.68082,-0.44592 -0.528,-0.23837 -1.790704,-1.25566 -2.806006,-2.26066 -1.576896,-1.56088 -1.96784,-1.79669 -2.681738,-1.61751 -0.599731,0.15052 -1.027261,0.031 -1.51399,-0.4231 -0.373047,-0.34807 -1.049268,-0.72486 -1.502717,-0.83732 -0.701818,-0.17405 -1.003418,0.0139 -2.027655,1.26389 -1.634777,1.99502 -3.4951,2.93866 -4.836892,2.45346 -1.474292,-0.53311 -2.504167,-0.44059 -3.294804,0.29601 -0.387465,0.36097 -0.84662,0.56848 -1.020342,0.46111 -0.689411,-0.42608 -0.123789,-4.04524 1.155898,-7.39605 0.386684,-1.01252 0.424576,-1.48769 0.158304,-1.98522 -0.718362,-1.34228 -0.09126,-3.79424 0.770688,-3.01339 0.144025,0.13047 0.170947,0.0777 0.05983,-0.11722 -0.111117,-0.19494 -0.05917,-0.84294 0.11543,-1.44 0.351981,-1.20359 -0.106416,-3.81935 -0.861628,-4.91676 -0.733181,-1.0654 -0.285181,-4.3499 0.525024,-3.84917 0.176329,0.10898 0.320598,0.0371 0.320598,-0.15963 0,-0.19677 0.122298,-0.28219 0.271773,-0.18981 0.335165,0.20715 0.943686,-0.93903 1.145504,-2.15761 0.362723,-2.19011 2.722534,-3.31165 5.578531,-2.65127 1.659648,0.38374 3.911245,0.30272 5.977178,-0.21509 0.553062,-0.13862 0.816096,0.19881 1.718908,2.20506 0.58626,1.3028 1.200912,2.36872 1.365901,2.36872 0.164985,0 0.219285,0.13057 0.120645,0.29016 -0.09863,0.15958 0.10712,0.21524 0.45723,0.12369 0.70276,-0.18377 1.37837,0.88814 0.7019,1.11363 -0.20766,0.0692 -0.37757,0.32479 -0.37757,0.56793 0,0.24314 -0.288,0.59621 -0.64,0.78459 -0.911718,0.48794 -0.791424,1.65519 0.27597,2.67782 0.78372,0.75085 0.89452,1.06338 0.76733,2.16446 -0.11593,1.00361 7e-5,1.44522 0.52695,2.00605 0.37158,0.39554 0.57067,0.82408 0.44243,0.95232 -0.12824,0.12825 0.003,0.1424 0.29253,0.0314 0.34747,-0.13334 0.65295,0.036 0.901,0.49952 0.35099,0.65581 0.32172,1.27094 -0.17456,3.66838 -0.1413,0.68263 0.0939,1.69 0.81416,3.4866 0.84396,2.10522 0.97619,2.77127 0.79288,3.99365 -0.23553,1.5707 -1.21505,3.23977 -1.9013,3.23977 -0.23046,0 -0.59829,-0.216 -0.81739,-0.48 z m -6.609574,-5.4538 c -0.104221,-0.27159 -0.258122,-0.42517 -0.342,-0.34129 -0.08388,0.0839 -0.05759,0.30609 0.05842,0.4938 0.315536,0.51055 0.499961,0.41136 0.283584,-0.15251 z m -4.888292,-4.45252 c 0.159792,0.0988 0.206061,-0.0406 0.10282,-0.30962 -0.123005,-0.32055 0.09237,-0.6168 0.624755,-0.85937 1.047593,-0.47732 3.240557,0.0422 4.883145,1.15695 0.64705,0.4391 1.408362,0.79259 1.691802,0.78555 0.301766,-0.007 0.117482,-0.22577 -0.444656,-0.52666 -0.528,-0.28262 -1.291427,-0.77142 -1.696502,-1.08623 -0.405079,-0.3148 -1.526637,-0.67109 -2.492356,-0.79175 -1.422652,-0.17775 -1.871129,-0.11506 -2.363334,0.33038 -0.334112,0.30237 -0.758902,0.45618 -0.943978,0.3418 -0.203945,-0.12605 -0.26143,-0.0123 -0.145929,0.28865 0.272422,0.70992 -1.125648,0.65694 -1.672445,-0.0634 -0.382096,-0.50334 -0.445456,-0.44645 -0.445456,0.4 0,0.088 0.108,0.17705 0.24,0.19789 0.132,0.0208 0.511248,0.22788 0.842771,0.46008 0.50385,0.35292 0.678759,0.34622 1.065799,-0.0408 0.254665,-0.25467 0.593769,-0.38223 0.753564,-0.28347 z m 0.483719,-5.48804 c 0.249779,0.0958 0.454147,0.0348 0.454147,-0.13568 0,-0.17048 0.108,-0.27572 0.24,-0.23387 0.247693,0.0785 1.759373,-0.44386 3.44,-1.18874 0.528,-0.23402 1.232611,-0.5148 1.565802,-0.62395 0.963881,-0.31577 0.490851,-0.39393 -1.405802,-0.23228 -1.406352,0.11986 -1.599251,0.19773 -0.96,0.38755 0.633862,0.1882 0.489085,0.24416 -0.697142,0.26943 -0.829674,0.0177 -1.700538,0.2353 -1.953364,0.48812 -0.250918,0.25092 -0.969836,0.67082 -1.59759,0.93311 -1.042704,0.43567 -1.185053,0.42863 -1.64664,-0.0814 C 88.22737,149.80084 88,149.23694 88,148.8548 c 0,-0.38214 -0.144,-0.6948 -0.32,-0.6948 -0.491987,0 -0.380483,0.88744 0.232608,1.85126 0.794294,1.24869 1.108275,1.38246 1.950147,0.83084 0.411923,-0.2699 0.953315,-0.41231 1.203098,-0.31646 z m 1.328813,-1.12535 c 0.217068,-0.21869 0.475276,-0.31701 0.573801,-0.21849 0.09852,0.0985 -0.07908,0.27746 -0.394665,0.39763 -0.456064,0.17365 -0.49282,0.1369 -0.179136,-0.17914 z m -2.064388,-5.19072 c 0.566346,-0.23674 1.213972,-0.65261 1.439168,-0.92417 0.319511,-0.38529 0.670954,-0.433 1.6,-0.2172 1.277268,0.29667 2.830141,0.38472 2.592404,0.14698 -0.07965,-0.0796 -1.003648,-0.28211 -2.053332,-0.44992 -1.670262,-0.26702 -1.988416,-0.23163 -2.548518,0.2835 -0.699821,0.64363 -2.152771,1.27124 -2.942966,1.27124 -0.400135,0 -0.466653,-0.25832 -0.32962,-1.28 0.09443,-0.704 0.06023,-1.28 -0.07599,-1.28 -0.300979,0 -0.694663,2.23115 -0.460528,2.60998 0.250009,0.40453 1.616563,0.32566 2.779385,-0.16041 z M 91.142858,134.96 C 90.910285,134.74 90.54,134.5456 90.32,134.528 c -0.993478,-0.0795 -1.097053,-0.15776 -0.897325,-0.67825 0.116135,-0.30263 0.114397,-0.45349 -0.0038,-0.33523 -0.298051,0.29805 -0.965302,-0.42732 -1.259731,-1.36944 -0.134941,-0.4318 -0.341056,-0.85708 -0.458035,-0.94508 -0.116976,-0.088 -0.445472,-0.88 -0.729991,-1.76 -0.284518,-0.88 -0.848988,-2.50798 -1.254374,-3.61773 -0.50417,-1.38018 -0.627402,-2.08797 -0.390006,-2.24 0.190883,-0.12225 0.448073,-0.54596 0.571536,-0.94158 0.305116,-0.97772 2.66096,-2.54372 4.202086,-2.79326 0.692832,-0.11218 2.209315,-0.42177 3.369962,-0.68798 2.326076,-0.53351 4.609734,-0.48701 4.609734,0.0939 0,0.20534 0.108,0.48134 0.24,0.61334 0.132,0.132 0.24,0.0635 0.24,-0.15222 0,-0.68194 0.686896,-3.2e-4 1.173619,1.16452 0.425485,1.01833 0.411655,1.27085 -0.151225,2.76094 -0.340752,0.90205 -1.167156,3.62009 -1.836452,6.04009 -0.669299,2.42 -1.335939,4.4 -1.481424,4.4 -0.145484,0 -0.264518,0.19643 -0.264518,0.43651 0,0.75553 -4.128746,1.13251 -4.857142,0.44349 z m 0.548819,-6.3389 c 0.1152,-0.18639 0.519696,-0.31445 0.898886,-0.28458 1.465431,0.11546 2.479082,-0.0297 2.2944,-0.32849 -0.225475,-0.36483 -3.018189,-0.0664 -3.590947,0.38373 -0.517526,0.40672 -1.054016,0.0348 -1.054016,-0.73065 0,-0.34161 -0.144,-0.62111 -0.32,-0.62111 -0.395741,0 -0.396301,0.0776 -0.0079,1.09917 0.319389,0.84006 1.380643,1.12746 1.779597,0.48193 z m 1.101043,-3.83885 c 2.008794,0.0648 2.032883,-0.21678 0.04237,-0.4952 -1.544294,-0.216 -2.915091,0.0442 -2.915091,0.55328 0,0.20637 0.228045,0.25392 0.56,0.11677 0.308,-0.12725 1.348723,-0.20594 2.312721,-0.17485 z M 44.48,125.63424 c 0,-0.0692 0.223478,-0.21152 0.496621,-0.31634 0.284774,-0.10928 0.413222,-0.0556 0.301113,0.12576 -0.187923,0.30407 -0.797734,0.44975 -0.797734,0.19058 z m 79.18684,-8.21553 c -0.11601,-0.18771 -0.1423,-0.40992 -0.0584,-0.4938 0.0839,-0.0839 0.23777,0.0697 0.342,0.34129 0.21637,0.56387 0.032,0.66306 -0.28359,0.15251 z M 58.56,116.17889 c 0,-0.16562 0.142352,-0.3891 0.316336,-0.49662 0.181395,-0.11211 0.23504,0.0164 0.125763,0.30111 -0.212733,0.55437 -0.442099,0.6558 -0.442099,0.19551 z M 60.8,104.8 c 0.41336,-0.44 0.823562,-0.8 0.911562,-0.8 0.088,0 -0.178202,0.36 -0.591562,0.8 -0.41336,0.44 -0.823562,0.8 -0.911562,0.8 -0.088,0 0.178202,-0.36 0.591562,-0.8 z"
         id="path185" />
      <path
         style="fill:#ecd9c1;stroke-width:0.32"
         d="m 39.255238,206.74187 c -0.673619,-0.13704 -1.483718,-0.52203 -1.80022,-0.85552 -1.50993,-1.59098 -4.815018,-9.7654 -4.815018,-11.90891 0,-1.12941 1.36553,-3.83296 2.695875,-5.33744 0.622515,-0.704 1.134608,-1.3965 1.137987,-1.53889 0.0034,-0.14238 0.123908,-0.1861 0.26785,-0.0971 0.143939,0.089 0.463728,-0.11854 0.71064,-0.46111 0.437754,-0.60735 1.161283,-0.90741 0.807424,-0.33486 -0.09789,0.1584 0.289606,0.2918 0.861117,0.29646 0.571507,0.005 1.669213,0.23505 2.439341,0.512 1.801244,0.64775 3.413411,0.62614 6.664822,-0.0893 1.443779,-0.3177 2.562768,-0.47686 2.486643,-0.35369 -0.07613,0.12318 0.146595,0.55258 0.494944,0.95423 0.348346,0.40165 0.635562,0.88823 0.638256,1.0813 0.0026,0.19307 0.14449,0.13504 0.315101,-0.12896 0.236307,-0.36566 0.311366,-0.23859 0.315101,0.53342 0.0026,0.55739 0.491129,1.92996 1.085408,3.05016 2.101033,3.9604 1.775309,8.30346 -0.765293,10.20408 -0.567818,0.42479 -1.682819,1.45261 -2.477782,2.28405 -0.794964,0.83144 -1.569597,1.43494 -1.721412,1.34111 -0.151811,-0.0938 -0.276022,-0.0356 -0.276022,0.12937 0,0.76967 -6.343546,1.2733 -9.064762,0.71968 z M 142,202.54789 c -0.836,-0.33946 -1.52,-0.51763 -1.52,-0.39593 0,0.30012 -4.34056,-8.5685 -4.61155,-9.42232 -0.50407,-1.58818 -0.45702,-1.93034 0.31375,-2.28153 0.42362,-0.19301 0.99863,-0.26328 1.2778,-0.15615 0.49538,0.19009 2.85484,-0.40761 3.50734,-0.88848 0.18004,-0.13268 1.90804,-0.552 3.84,-0.93183 1.93196,-0.37982 4.1143,-0.95264 4.84963,-1.27294 1.97603,-0.86071 3.53121,-0.39161 4.67017,1.4087 1.23351,1.94976 1.83286,3.8556 1.83286,5.82823 0,1.88775 -0.61671,4.60436 -1.04525,4.60436 -0.14989,0 -0.16977,0.16625 -0.0442,0.36944 0.12648,0.20465 0.0891,0.28342 -0.0837,0.17659 -0.43754,-0.27042 -2.42236,0.99289 -2.17889,1.38683 0.10979,0.17765 0.0809,0.29268 -0.0642,0.25562 -0.14509,-0.0371 -0.82138,0.17538 -1.50287,0.47207 -0.68149,0.2967 -1.73012,0.53945 -2.33028,0.53945 -0.60016,0 -1.60816,0.216 -2.24,0.48 -1.50869,0.63037 -2.8127,0.58232 -4.67064,-0.17211 z m 15.14526,-6.57456 c 0.0154,-0.37278 0.0912,-0.4486 0.19334,-0.19333 0.0924,0.231 0.0811,0.507 -0.0252,0.61333 -0.10634,0.10634 -0.18197,-0.0827 -0.16807,-0.42 z M 31.466667,179.37408 c 0,-0.25626 0.122349,-0.39031 0.271886,-0.29789 0.149538,0.0924 0.189039,0.30208 0.08778,0.46592 -0.25876,0.41868 -0.359667,0.37154 -0.359667,-0.16803 z M 88.64,156.10667 c 0,-0.14667 0.135501,-0.26667 0.301114,-0.26667 0.165612,0 0.37528,0.12 0.465923,0.26667 0.09065,0.14666 -0.04485,0.26666 -0.301114,0.26666 -0.256256,0 -0.465923,-0.12 -0.465923,-0.26666 z M 94.56,154.88 c 0.108774,-0.176 0.261274,-0.32 0.338886,-0.32 0.07761,0 0.141114,0.144 0.141114,0.32 0,0.176 -0.152499,0.32 -0.338886,0.32 -0.186388,0 -0.249888,-0.144 -0.141114,-0.32 z m 9.14526,-1.46667 c 0.0154,-0.37278 0.0912,-0.4486 0.19334,-0.19333 0.0924,0.231 0.0811,0.507 -0.0252,0.61333 -0.10634,0.10634 -0.18197,-0.0827 -0.16807,-0.42 z M 82.56,152.23836 c 0,-0.088 0.203181,-0.32862 0.45151,-0.53472 0.347869,-0.2887 0.506557,-0.27933 0.691306,0.0408 0.131885,0.22855 0.121955,0.30879 -0.02208,0.17832 -0.144022,-0.13048 -0.45511,-0.0768 -0.691302,0.11918 -0.236186,0.19602 -0.429434,0.2844 -0.429434,0.1964 z m 10.56,-2.76686 c 0,-0.3323 0.608707,-0.81335 0.789014,-0.62354 0.05854,0.0616 -0.09504,0.29772 -0.341289,0.52466 -0.24625,0.22694 -0.447725,0.27143 -0.447725,0.0989 z M 87.58728,148.8 c -0.09205,-0.352 -0.03685,-0.64 0.122678,-0.64 0.159524,0 0.290042,0.288 0.290042,0.64 0,0.352 -0.05521,0.64 -0.122678,0.64 -0.06747,0 -0.197991,-0.288 -0.290042,-0.64 z M 96.64,148.16 c 0,-0.176 0.152499,-0.32 0.338886,-0.32 0.186388,0 0.249888,0.144 0.141114,0.32 -0.108774,0.176 -0.261274,0.32 -0.338886,0.32 -0.07761,0 -0.141114,-0.144 -0.141114,-0.32 z m 2.88,-3.66111 c 0,-0.25362 0.13057,-0.54181 0.290157,-0.64045 0.159587,-0.0986 0.214793,0.10888 0.122678,0.46112 C 99.73744,145.06676 99.52,145.16121 99.52,144.49889 Z M 87.58728,144 c -0.09205,-0.352 -0.03685,-0.64 0.122678,-0.64 C 87.869482,143.36 88,143.648 88,144 c 0,0.352 -0.05521,0.64 -0.122678,0.64 -0.06747,0 -0.197991,-0.288 -0.290042,-0.64 z M 94.08,143.04 c 0,-0.176 0.152499,-0.32 0.338886,-0.32 0.186388,0 0.249888,0.144 0.141114,0.32 -0.108774,0.176 -0.261274,0.32 -0.338886,0.32 -0.07761,0 -0.141114,-0.144 -0.141114,-0.32 z M 89.6,127.34111 c 0,-0.18638 0.144,-0.24988 0.32,-0.14111 0.176,0.10877 0.32,0.26127 0.32,0.33889 0,0.0776 -0.144,0.14111 -0.32,0.14111 -0.176,0 -0.32,-0.1525 -0.32,-0.33889 z M 91.84,124.48 c 0.264,-0.17061 0.624,-0.3102 0.8,-0.3102 0.176,0 0.104,0.13959 -0.16,0.3102 -0.264,0.17061 -0.624,0.3102 -0.8,0.3102 -0.176,0 -0.104,-0.13959 0.16,-0.3102 z"
         id="path183" />
      <path
         style="fill:#a3a29e;stroke-width:0.32"
         d="m 105.04,245.85941 c 0.308,-0.0805 0.812,-0.0805 1.12,0 0.308,0.0805 0.056,0.14635 -0.56,0.14635 -0.616,0 -0.868,-0.0659 -0.56,-0.14635 z m 5.62,-1.27801 c 0.231,-0.0924 0.507,-0.0811 0.61333,0.0252 0.10634,0.10634 -0.0827,0.18197 -0.42,0.16807 -0.37278,-0.0154 -0.4486,-0.0912 -0.19333,-0.19333 z m -21.034736,-8.60807 c 0.01536,-0.37278 0.09118,-0.4486 0.193331,-0.19333 0.09244,0.231 0.08107,0.507 -0.02525,0.61333 -0.106333,0.10634 -0.181965,-0.0827 -0.16807,-0.42 z m -0.64,-3.84 c 0.01536,-0.37278 0.09118,-0.4486 0.193331,-0.19333 0.09244,0.231 0.08107,0.507 -0.02525,0.61333 -0.106333,0.10634 -0.181965,-0.0827 -0.16807,-0.42 z M 145.44,230.08 c 0.31856,-0.352 0.65119,-0.64 0.73919,-0.64 0.088,0 -0.10063,0.288 -0.41919,0.64 -0.31856,0.352 -0.65119,0.64 -0.73919,0.64 -0.088,0 0.10063,-0.288 0.41919,-0.64 z M 48.8,210.56 c 0.318557,-0.352 0.651194,-0.64 0.739194,-0.64 0.088,0 -0.100637,0.288 -0.419194,0.64 -0.318557,0.352 -0.651194,0.64 -0.739194,0.64 -0.088,0 0.100637,-0.288 0.419194,-0.64 z m 43.705264,-3.06667 c 0.01536,-0.37278 0.09118,-0.4486 0.193331,-0.19333 0.09244,0.231 0.08107,0.507 -0.02525,0.61333 -0.106333,0.10634 -0.181965,-0.0827 -0.16807,-0.42 z M 42.48,207.13417 c 0.396,-0.0763 1.044,-0.0763 1.44,0 0.396,0.0763 0.072,0.13867 -0.72,0.13867 -0.792,0 -1.116,-0.0624 -0.72,-0.13867 z m 50.462768,-2.04205 c -0.118253,-0.19134 -0.05475,-0.50814 0.141114,-0.704 0.261491,-0.26149 0.356118,-0.16905 0.356118,0.34788 0,0.77264 -0.166227,0.8917 -0.497232,0.35612 z M 144.58,203.3014 c 0.231,-0.0924 0.507,-0.0811 0.61333,0.0252 0.10634,0.10634 -0.0827,0.18197 -0.42,0.16807 -0.37278,-0.0154 -0.4486,-0.0912 -0.19333,-0.19333 z M 92.87424,200.96 c 0,-0.616 0.06586,-0.868 0.146346,-0.56 0.08049,0.308 0.08049,0.812 0,1.12 -0.08049,0.308 -0.146346,0.056 -0.146346,-0.56 z m -0.368976,-1.78667 c 0.01536,-0.37278 0.09118,-0.4486 0.193331,-0.19333 0.09244,0.231 0.08107,0.507 -0.02525,0.61333 -0.106333,0.10634 -0.181965,-0.0827 -0.16807,-0.42 z M 31.742384,194.08 c 0.0065,-0.528 0.07824,-0.70526 0.159373,-0.39391 0.08113,0.31135 0.0758,0.74335 -0.01186,0.96 -0.08766,0.21665 -0.154039,-0.0381 -0.147517,-0.56609 z M 152.64,186.38585 c 0,-0.0371 0.192,-0.22683 0.42667,-0.42159 0.31883,-0.26461 0.42666,-0.24755 0.42666,0.0675 0,0.23187 -0.192,0.42158 -0.42666,0.42158 -0.23467,0 -0.42667,-0.0304 -0.42667,-0.0675 z M 26.519182,185.04 c -0.398038,-0.50754 -0.38672,-0.51886 0.120818,-0.12082 0.533039,0.41804 0.702553,0.68082 0.439182,0.68082 -0.06645,0 -0.31845,-0.252 -0.56,-0.56 z M 23.04,179.07918 c 0,-0.0665 0.252,-0.31845 0.56,-0.56 0.507538,-0.39804 0.518856,-0.38672 0.120818,0.12082 C 23.30278,179.17304 23.04,179.34255 23.04,179.07918 Z m 2.88,-3.2 c 0,-0.0665 0.252,-0.31845 0.56,-0.56 0.507538,-0.39804 0.518856,-0.38672 0.120818,0.12082 C 26.18278,175.97304 25.92,176.14255 25.92,175.87918 Z M 99.329597,163.76 98.72,163.04 l 0.72,0.6096 c 0.67662,0.57287 0.86568,0.8304 0.6096,0.8304 -0.06073,0 -0.384726,-0.324 -0.720003,-0.72 z m 5.335663,0.21333 c 0.0154,-0.37278 0.0912,-0.4486 0.19334,-0.19333 0.0924,0.231 0.0811,0.507 -0.0252,0.61333 -0.10634,0.10634 -0.18197,-0.0827 -0.16807,-0.42 z m -8.278674,-7.85864 c -0.57938,-0.37099 -0.98658,-0.74137 -0.904887,-0.82305 0.08169,-0.0817 0.697155,0.22427 1.367696,0.67991 1.453568,0.98773 1.050749,1.11231 -0.462809,0.14314 z M 88.96,156.34994 c 0,-0.064 0.36,-0.35222 0.8,-0.64051 0.44,-0.2883 0.8,-0.39998 0.8,-0.24817 0,0.15181 -0.36,0.44004 -0.8,0.64052 -0.44,0.20047 -0.8,0.31215 -0.8,0.24816 z M 87.84,155.52 c -0.108774,-0.176 -0.04527,-0.32 0.141114,-0.32 0.186387,0 0.338886,0.144 0.338886,0.32 0,0.176 -0.0635,0.32 -0.141114,0.32 -0.07761,0 -0.230112,-0.144 -0.338886,-0.32 z m 3.285904,-1.0139 c 0.185952,-0.18596 0.526982,-0.27514 0.757843,-0.19818 0.239664,0.0799 0.09461,0.22494 -0.338096,0.33809 -0.532272,0.13919 -0.657209,0.0976 -0.419747,-0.13991 z M 92.8,154.56 c -0.410208,-0.2651 -0.398576,-0.31091 0.08,-0.3151 0.308,-0.003 0.56,0.1391 0.56,0.3151 0,0.39028 -0.03609,0.39028 -0.64,0 z m -4.761178,-4.49593 c -0.396844,-0.53676 -0.651292,-1.14876 -0.565443,-1.36 0.09456,-0.23267 0.166055,-0.1853 0.181357,0.12015 0.01389,0.27732 0.371677,0.82966 0.795072,1.22742 0.651901,0.61242 0.884714,0.66728 1.52,0.35812 0.714595,-0.34774 0.720717,-0.34145 0.12903,0.13259 -0.885481,0.70941 -1.243347,0.62633 -2.060016,-0.47828 z M 91.52,149.77126 c 0,-0.36981 1.067574,-0.98036 1.658963,-0.94877 0.231571,0.0124 0.133037,0.14625 -0.218963,0.29751 -0.431139,0.18527 -0.483357,0.28396 -0.16,0.30241 0.426666,0.0243 0.426666,0.0619 0,0.33759 -0.61928,0.40021 -1.28,0.40602 -1.28,0.0113 z M 94.56,148.48 c -0.610675,-0.26242 -0.607008,-0.27605 0.08,-0.29751 0.396,-0.0124 0.72,0.12151 0.72,0.29751 0,0.176 -0.036,0.30988 -0.08,0.29751 -0.044,-0.0124 -0.368,-0.14625 -0.72,-0.29751 z m 6.19918,-1.84 c -0.39804,-0.50754 -0.38672,-0.51886 0.12082,-0.12082 0.308,0.24155 0.56,0.49355 0.56,0.56 0,0.26337 -0.26278,0.0939 -0.68082,-0.43918 z m -11.566338,-2.43142 c 0.74406,-0.20272 1.678422,-0.64859 2.076358,-0.99083 0.668285,-0.57475 2.34769,-0.75345 2.794035,-0.2973 0.09722,0.0994 -0.279209,0.1337 -0.836515,0.0763 -0.638861,-0.0658 -1.243347,0.10388 -1.635907,0.45914 -0.642304,0.58128 -2.419552,1.20801 -3.268701,1.15267 -0.265162,-0.0173 0.126666,-0.19727 0.87073,-0.4 z M 87.68,142.72 c 0,-0.352 0.130518,-0.64 0.290042,-0.64 0.159523,0 0.214729,0.288 0.122678,0.64 -0.09205,0.352 -0.22257,0.64 -0.290042,0.64 -0.06747,0 -0.122678,-0.288 -0.122678,-0.64 z m 6.96,0.42807 c 0.22,-0.0888 0.58,-0.0888 0.8,0 0.22,0.0888 0.04,0.16141 -0.4,0.16141 -0.44,0 -0.62,-0.0726 -0.4,-0.16141 z M 91.2,128.48 c 0.219101,-0.264 0.542365,-0.48 0.718365,-0.48 0.178505,0 0.143853,0.21224 -0.07836,0.48 -0.219101,0.264 -0.542365,0.48 -0.718365,0.48 -0.178505,0 -0.143853,-0.21224 0.07837,-0.48 z m -1.28,-0.32 c 0,-0.264 0.0566,-0.48 0.125763,-0.48 0.06917,0 0.20865,0.216 0.309959,0.48 0.101305,0.264 0.04471,0.48 -0.125764,0.48 -0.170476,0 -0.309958,-0.216 -0.309958,-0.48 z m 4.16,-0.17889 c 0,-0.18638 0.144,-0.24988 0.32,-0.14111 0.176,0.10877 0.32,0.26127 0.32,0.33889 0,0.0776 -0.144,0.14111 -0.32,0.14111 -0.176,0 -0.32,-0.1525 -0.32,-0.33889 z m 44.93987,-2.62111 -0.93987,-1.04 1.04,0.93987 c 0.572,0.51693 1.04,0.98493 1.04,1.04 0,0.24722 -0.26404,0.0296 -1.14013,-0.93987 z m -48.638708,-0.71813 c 0.709875,-0.55069 1.648928,-0.63096 1.936572,-0.16553 0.10753,0.17398 -0.0032,0.2401 -0.245929,0.14693 -0.242791,-0.0932 -0.862269,-0.0187 -1.376621,0.16554 -0.867818,0.3108 -0.890438,0.30021 -0.314022,-0.14694 z M 98.839181,119.44 c -0.398039,-0.50754 -0.38672,-0.51886 0.120819,-0.12082 0.53304,0.41804 0.702554,0.68082 0.439181,0.68082 -0.06645,0 -0.318448,-0.252 -0.56,-0.56 z M 96.56,118.50807 c 0.22,-0.0888 0.58,-0.0888 0.8,0 0.22,0.0888 0.04,0.16141 -0.4,0.16141 -0.44,0 -0.62,-0.0726 -0.4,-0.16141 z"
         id="path181" />
      <path
         style="fill:#8b857a;stroke-width:0.32"
         d="m 72.26,240.7414 c 0.230998,-0.0924 0.506998,-0.0811 0.613334,0.0252 0.106333,0.10634 -0.08267,0.18197 -0.42,0.16807 -0.372784,-0.0154 -0.448608,-0.0912 -0.193334,-0.19333 z m 17.365264,-2.84807 c 0.01536,-0.37278 0.09118,-0.4486 0.193331,-0.19333 0.09244,0.231 0.08107,0.507 -0.02525,0.61333 -0.106333,0.10634 -0.181965,-0.0827 -0.16807,-0.42 z M 88.64,233.44 c 0,-0.44 0.124032,-0.8 0.275626,-0.8 0.151593,0 0.206806,0.36 0.122694,0.8 -0.08411,0.44 -0.208141,0.8 -0.275626,0.8 -0.06748,0 -0.122694,-0.36 -0.122694,-0.8 z m 0.382384,-2.56 c 0.0065,-0.528 0.07824,-0.70526 0.159373,-0.39391 0.08113,0.31135 0.0758,0.74335 -0.01187,0.96 -0.08766,0.21665 -0.154039,-0.0381 -0.147517,-0.56609 z m 2.52288,-14.74667 c 0.01536,-0.37278 0.09118,-0.4486 0.193331,-0.19333 0.09244,0.231 0.08107,0.507 -0.02525,0.61333 -0.106333,0.10634 -0.181965,-0.0827 -0.16807,-0.42 z M 94.462384,215.2 c 0.0065,-0.528 0.07824,-0.70526 0.159373,-0.39391 0.08113,0.31135 0.0758,0.74335 -0.01187,0.96 -0.08766,0.21665 -0.154039,-0.0381 -0.147517,-0.56609 z m -2.59712,-2.26667 c 0.01536,-0.37278 0.09118,-0.4486 0.193331,-0.19333 0.09244,0.231 0.08107,0.507 -0.02525,0.61333 -0.106333,0.10634 -0.181965,-0.0827 -0.16807,-0.42 z m -39.04,-8.64 c 0.01536,-0.37278 0.09118,-0.4486 0.193331,-0.19333 0.09244,0.231 0.08107,0.507 -0.02525,0.61333 -0.106336,0.10634 -0.181965,-0.0827 -0.16807,-0.42 z m 40.081402,-0.27925 c 0,-0.25626 0.122348,-0.39031 0.271888,-0.29789 0.149536,0.0924 0.18904,0.30208 0.08778,0.46592 -0.258759,0.41868 -0.359667,0.37154 -0.359668,-0.16803 z M 52.8,202.43918 c 0,-0.0665 0.252,-0.31845 0.56,-0.56 0.507539,-0.39804 0.518858,-0.38672 0.120819,0.12082 C 53.062781,202.53304 52.8,202.70255 52.8,202.43918 Z m 39.94384,-3.18344 c -0.119056,-0.58394 -0.07446,-0.79436 0.125907,-0.59399 0.17065,0.17065 0.253616,0.57757 0.184368,0.90426 -0.09325,0.43994 -0.173721,0.35947 -0.310275,-0.31027 z M 156.22238,194.4 c 0.007,-0.528 0.0782,-0.70526 0.15938,-0.39391 0.0811,0.31135 0.0758,0.74335 -0.0119,0.96 -0.0876,0.21665 -0.15403,-0.0381 -0.14751,-0.56609 z M 30.999182,189.84 c -0.398038,-0.50754 -0.38672,-0.51886 0.120818,-0.12082 0.533039,0.41804 0.702553,0.68082 0.439182,0.68082 -0.06645,0 -0.31845,-0.252 -0.56,-0.56 z M 137.86,190.1814 c 0.231,-0.0924 0.507,-0.0811 0.61333,0.0252 0.10634,0.10634 -0.0827,0.18197 -0.42,0.16807 -0.37278,-0.0154 -0.4486,-0.0912 -0.19333,-0.19333 z m 15.91367,-2.31929 c -0.10126,-0.16384 -0.0618,-0.3735 0.0878,-0.46592 0.14954,-0.0924 0.27188,0.0416 0.27188,0.29789 0,0.53957 -0.1009,0.58671 -0.35966,0.16803 z m -98.537481,-4.88066 c 0.09242,-0.14954 0.302083,-0.18904 0.465923,-0.0878 0.418682,0.25876 0.371539,0.35966 -0.168035,0.35966 -0.256259,0 -0.390307,-0.12234 -0.297888,-0.27188 z M 29.399182,176.08 c -0.398038,-0.50754 -0.38672,-0.51886 0.120818,-0.12082 0.533039,0.41804 0.702553,0.68082 0.439182,0.68082 -0.06645,0 -0.31845,-0.252 -0.56,-0.56 z m 4.546082,-4.10667 c 0.01536,-0.37278 0.09118,-0.4486 0.193331,-0.19333 0.09244,0.231 0.08107,0.507 -0.02525,0.61333 -0.106336,0.10634 -0.181965,-0.0827 -0.16807,-0.42 z m 47.04,-8.96 c 0.01536,-0.37278 0.09118,-0.4486 0.193331,-0.19333 0.09244,0.231 0.08107,0.507 -0.02525,0.61333 -0.106336,0.10634 -0.181965,-0.0827 -0.16807,-0.42 z M 95.62,148.2614 c 0.230998,-0.0924 0.507002,-0.0811 0.613334,0.0252 0.106333,0.10634 -0.08267,0.18197 -0.42,0.16807 -0.372784,-0.0154 -0.448608,-0.0912 -0.193334,-0.19333 z m 4.22,-4.06222 c 0,-0.0665 0.252,-0.31845 0.56,-0.56 0.50754,-0.39804 0.51886,-0.38672 0.12082,0.12082 -0.41804,0.53304 -0.68082,0.70255 -0.68082,0.43918 z m -56.96,-16 c 0,-0.0665 0.252,-0.31845 0.56,-0.56 0.507539,-0.39804 0.518858,-0.38672 0.120819,0.12082 -0.418038,0.53304 -0.680819,0.70255 -0.680819,0.43918 z m 50.16,-0.0911 c 0.22,-0.0888 0.58,-0.0888 0.8,0 0.22,0.0888 0.04,0.16141 -0.4,0.16141 -0.44,0 -0.62,-0.0726 -0.4,-0.16141 z m 0.34,-3.52667 c 0.230998,-0.0924 0.507002,-0.0811 0.613334,0.0252 0.106333,0.10634 -0.08267,0.18197 -0.42,0.16807 -0.372784,-0.0154 -0.448608,-0.0912 -0.193334,-0.19333 z m -6.98,-3.10222 c 0,-0.0665 0.252,-0.31845 0.56,-0.56 0.507539,-0.39804 0.518858,-0.38672 0.120819,0.12082 C 86.662781,121.57304 86.4,121.74255 86.4,121.47918 Z"
         id="path179" />
      <path
         style="fill:#4f4f4f;stroke-width:0.32"
         d="m 87.04,244.99732 c 0,-0.0675 0.288198,-0.19804 0.640442,-0.29016 0.352243,-0.0921 0.559744,-0.0369 0.461113,0.12268 -0.17224,0.27869 -1.101555,0.41998 -1.101555,0.16748 z m 16.4116,-1.73907 c -1.52282,-1.88315 -2.08566,-2.87953 -1.84582,-3.2676 0.1031,-0.16683 -0.007,-0.22867 -0.24486,-0.13742 -0.65212,0.25024 -1.713957,-1.94079 -2.130216,-4.39554 -0.199802,-1.17827 -0.701878,-3.19427 -1.115722,-4.48 -0.413846,-1.28573 -0.777728,-2.91036 -0.808627,-3.61028 -0.03091,-0.69993 -0.185225,-1.85193 -0.34295,-2.56 -0.157722,-0.70808 -0.438144,-2.43941 -0.623159,-3.84741 -0.185014,-1.408 -0.399075,-2.992 -0.475689,-3.52 -0.07662,-0.528 -0.222087,-2.04 -0.323271,-3.36 -0.25384,-3.31149 -0.839878,-10.1962 -0.966985,-11.36 -0.05767,-0.528 -0.196691,-2.904 -0.308944,-5.28 -0.288688,-6.11046 -0.774266,-12.06363 -1.318109,-16.16 -0.549088,-4.13589 -0.79303,-19.41873 -0.317539,-19.89391 0.199523,-0.19939 0.588208,0.0215 1.092521,0.62081 0.623546,0.74105 0.978983,0.90153 1.747028,0.78881 0.840966,-0.12343 1.266569,0.149 3.32966,2.13138 1.300992,1.2501 2.634032,2.39871 2.962302,2.55246 0.81558,0.38199 2.78937,-0.0301 3.48739,-0.72816 1.27722,-1.27722 1.01966,-6.63544 -0.42493,-8.84016 -0.63317,-0.96634 -0.63949,-2.08673 -0.0202,-3.56903 0.39231,-0.93895 0.41217,-1.35457 0.10527,-2.20329 -0.33536,-0.92744 -1.43708,-1.80815 -2.3488,-1.87763 -0.176,-0.0134 -0.32,-0.83468 -0.32,-1.82506 0,-1.52842 -0.11952,-1.89771 -0.79051,-2.44249 l -0.79052,-0.64183 0.85353,-1.71595 c 1.09328,-2.19794 0.93,-3.30668 -0.55935,-3.79821 -1.025281,-0.33837 -1.853889,-1.56844 -2.534442,-3.76239 -0.12673,-0.40853 -0.376317,-0.63099 -0.572154,-0.50996 -0.234029,0.14464 -0.273933,-0.0366 -0.122301,-0.55535 0.123789,-0.42352 0.436298,-1.56204 0.694467,-2.53004 0.258167,-0.968 0.593972,-2.048 0.746234,-2.4 0.899606,-2.0797 2.274006,-6.93622 2.268016,-8.01416 -0.004,-0.69621 -0.29599,-1.90279 -0.64917,-2.68128 -0.50577,-1.11483 -0.55525,-1.47059 -0.23298,-1.6751 0.68381,-0.43393 0.76612,-0.31614 0.62482,0.89421 -0.19185,1.6433 0.4694,1.11177 0.75308,-0.60535 0.16846,-1.0197 0.56672,-1.68877 1.59752,-2.68388 1.17611,-1.13538 1.73327,-1.40413 3.88344,-1.87318 3.67929,-0.80261 6.1362,-2.16735 8.16942,-4.53786 0.9355,-1.09068 1.7729,-1.99213 1.8609,-2.00322 0.088,-0.0111 0.16,1.6207 0.16,3.62622 0,3.02544 0.0955,3.75192 0.5607,4.26597 0.30838,0.34076 0.48838,0.71588 0.4,0.8336 -0.0884,0.11772 -0.0687,0.14605 0.0437,0.063 0.11243,-0.0831 0.62748,0.20491 1.14455,0.64 0.51708,0.4351 1.08159,0.79108 1.25448,0.79108 0.17288,0 0.21158,0.16625 0.086,0.36944 -0.13891,0.22477 -0.088,0.28275 0.12991,0.14804 0.36764,-0.22721 2.94065,1.29056 2.94065,1.73464 0,0.55045 2.93582,1.89494 6.52574,2.98854 2.09315,0.63764 4.04796,1.15934 4.34401,1.15934 0.29605,0 0.78422,0.252 1.08483,0.56 2.49697,2.55836 3.70524,4.01377 3.54605,4.27135 -0.10351,0.16748 -0.0615,0.26494 0.0934,0.21658 0.79255,-0.24746 3.10785,3.41542 3.98731,6.30803 0.53295,1.75295 1.59091,6.99823 2.00165,9.92404 0.47513,3.38447 1.79119,8.36657 3.04312,11.52 0.4891,1.232 1.42609,3.968 2.08218,6.08 2.3642,7.61045 2.13662,7.09539 4.19112,9.48531 0.81072,0.94308 1.74808,2.24517 2.08302,2.89354 0.33495,0.64837 0.91561,1.39363 1.29038,1.65612 l 0.68139,0.47726 -0.86781,2.27102 c -0.60565,1.58498 -1.17269,2.49677 -1.8771,3.01835 -0.98434,0.72885 -5.8912,2.66597 -6.3693,2.51446 -0.132,-0.0418 -0.24,0.0565 -0.24,0.21851 0,0.16202 -0.468,0.40589 -1.04,0.54194 -1.23111,0.29281 -1.22585,0.29136 -1.84,0.50838 -0.264,0.0933 -1.848,0.42725 -3.52,0.74212 -1.672,0.31488 -3.50225,0.76565 -4.06723,1.00171 -0.78775,0.32914 -1.21196,0.34503 -1.81959,0.0682 -0.4358,-0.19856 -1.01755,-0.27461 -1.29277,-0.169 -0.69609,0.26711 -0.62577,1.36801 0.12077,1.89091 0.59615,0.41756 0.58458,0.44891 -0.28739,0.77804 -1.0582,0.39943 -1.19909,0.21097 -2.19556,-2.93684 -1.05573,-3.33504 -1.6357,-6.17652 -2.95128,-14.45949 -1.01817,-6.41043 -1.32228,-9.32113 -1.48633,-14.22557 -0.23822,-7.12219 -0.69315,-7.19679 -0.70088,-0.11494 -0.006,5.43578 0.11503,6.66198 1.68885,17.12 1.16669,7.75274 2.25358,12.48967 3.36614,14.67047 0.35127,0.68855 0.70727,1.63016 0.7911,2.09246 0.0838,0.4623 0.68499,1.88377 1.3359,3.15881 0.65092,1.27504 1.52783,3.23089 1.94869,4.34632 1.02998,2.72982 1.819,4.19555 2.83591,5.26818 0.46732,0.49293 0.77026,1.1032 0.67319,1.35616 -0.0972,0.25342 -0.009,0.42573 0.19719,0.38376 0.20552,-0.0419 1.17234,1.46025 2.14848,3.33809 0.97615,1.87784 2.09881,3.85201 2.49481,4.38704 0.396,0.53504 0.72016,1.08663 0.72036,1.22575 2e-4,0.13913 0.3962,0.6308 0.88,1.09261 3.96997,3.78947 5.21129,5.06473 4.76216,4.89239 -0.32387,-0.12428 -0.52555,-0.0354 -0.53049,0.23372 -0.004,0.23884 -0.97638,1.14966 -2.16,2.02405 -2.37038,1.75112 -4.39976,3.70127 -4.2861,4.11876 0.0402,0.14771 -0.3494,-0.0323 -0.8658,-0.4 -0.5164,-0.36771 -1.16577,-0.66857 -1.44304,-0.66857 -0.27728,0 -0.90305,-0.69819 -1.39061,-1.55154 -0.48756,-0.85334 -2.86167,-3.6004 -5.27581,-6.10458 -4.95572,-5.14056 -8.52634,-10.12785 -10.35497,-14.46339 -0.62181,-1.47427 -2.18846,-4.77322 -3.48146,-7.33099 -2.29956,-4.54895 -3.59168,-8.15908 -5.89469,-16.4695 -1.06326,-3.83679 -1.51495,-6.53045 -1.79759,-10.72 -0.27644,-4.09754 -0.76974,-5.66584 -0.60394,-1.92 0.3183,7.19075 0.4951,8.52182 1.88756,14.21083 1.65897,6.77783 3.43593,12.24433 4.95044,15.22917 0.58047,1.144 1.61011,3.55605 2.28811,5.3601 2.46301,6.55382 4.86048,10.68223 8.9663,15.4399 1.29103,1.496 2.63584,3.06546 2.98845,3.48769 0.35262,0.42222 1.12637,1.21422 1.71943,1.76 0.59306,0.54577 1.51545,1.76363 2.04975,2.70635 0.53431,0.94272 1.52449,2.11464 2.20042,2.60429 l 1.22897,0.89026 -2.31872,1.35977 c -1.2753,0.74788 -2.60672,1.61248 -2.95872,1.92132 -1.25064,1.09733 -6.08597,4.24147 -7.02785,4.56981 -0.52635,0.18349 -1.32041,0.52328 -1.76458,0.75509 -0.44416,0.23181 -1.02357,0.42419 -1.28757,0.4275 -0.264,0.003 -1.344,0.45399 -2.4,1.00151 -1.056,0.54751 -2.424,1.1117 -3.04,1.25376 -5.3609,1.23629 -9.11931,1.89646 -10.81275,1.89929 -1.31995,0.002 -2.4214,0.20864 -3.2,0.59976 -2.07939,1.04456 -3.07152,0.85348 -4.45565,-0.85815 z m 15.60446,-2.69654 c -0.13052,-0.57294 -0.7,-2.12171 -1.2655,-3.44171 -0.56549,-1.32 -1.15056,-2.688 -1.30014,-3.04 -0.14958,-0.352 -0.73072,-1.648 -1.29143,-2.88 -1.30687,-2.87149 -3.82716,-9.48828 -5.48485,-14.4 -0.71279,-2.112 -1.40543,-3.984 -1.53918,-4.16 -0.13376,-0.176 -0.6453,-1.4 -1.13676,-2.72 -0.49145,-1.32 -1.28654,-3.192 -1.76685,-4.16 -2.51587,-5.07038 -5.19002,-15.82803 -6.244342,-25.12 -0.817885,-7.20817 -1.448349,-11.69446 -1.757818,-12.50843 -0.170054,-0.44728 -0.311395,-1.34386 -0.314089,-1.9924 -0.0057,-1.35911 -0.405072,-2.15911 -0.919325,-1.84128 -0.50616,0.31282 -0.440115,2.87927 0.123366,4.79399 0.26353,0.89546 0.919152,5.22812 1.456944,9.62812 1.612244,13.19076 3.401194,20.92216 6.472534,27.97272 1.74526,4.0064 3.87777,9.43422 4.59961,11.70728 1.51906,4.78348 4.22628,11.18424 7.13306,16.86489 1.59429,3.11569 2.89871,5.89619 2.89871,6.17889 0,0.28269 0.12901,0.43426 0.28668,0.33681 0.15768,-0.0974 0.1799,-0.64595 0.0494,-1.21888 z m -35.223702,2.00427 C 80.309226,240.5876 79.377347,240.27599 76.057536,239.96617 71.246253,239.51716 71.36,239.56242 71.36,238.09706 c 0,-2.19418 0.653824,-6.19973 1.308618,-8.01706 3.824262,-10.61392 6.47264,-19.83123 7.953196,-27.68 0.789517,-4.18541 2.253524,-16.27555 2.269351,-18.74086 0.0061,-0.95653 0.214525,-2.81914 0.463078,-4.13914 1.143408,-6.07235 1.716819,-9.63218 1.920055,-11.92 0.196732,-2.21461 0.29046,-2.48 0.875878,-2.48 1.249782,0 3.293923,-0.75107 4.133546,-1.51877 l 0.843721,-0.77145 0.237933,6.98002 c 0.130861,3.83902 0.1504,8.13432 0.04342,9.54512 -0.140275,1.84987 -0.09989,2.43124 0.144848,2.08508 0.253056,-0.35793 0.294237,-0.15449 0.161926,0.8 -0.128224,0.92502 -0.08724,1.14688 0.147779,0.8 0.256487,-0.37856 0.307376,-0.31093 0.240804,0.32 -0.04642,0.44 0.0414,1.00225 0.195161,1.24944 0.191293,0.30753 0.162912,0.37735 -0.08987,0.22112 -0.476454,-0.29447 -0.468806,-0.11878 0.148442,3.4093 0.430697,2.4618 0.457606,3.44498 0.159827,5.84014 -0.61583,4.95337 -0.695776,5.91995 -1.005773,12.16 -0.388662,7.82352 -0.547424,9.94504 -1.137465,15.2 -0.266784,2.376 -0.569325,5.184 -0.672314,6.24 -0.102986,1.056 -0.321773,2.0904 -0.486189,2.29868 -0.164419,0.20827 -0.367561,2.51227 -0.451433,5.12 -0.08387,2.60772 -0.328781,5.53332 -0.544247,6.50132 -0.377021,1.6938 -0.433952,1.76357 -1.513664,1.855 -0.786918,0.0666 -1.645145,-0.19881 -2.87427,-0.88902 z M 73.2,240.74807 c 0.22,-0.0888 0.58,-0.0888 0.8,0 0.22,0.0888 0.04,0.16141 -0.4,0.16141 -0.44,0 -0.62,-0.0726 -0.4,-0.16141 z m -4.56,-1.8479 c -0.704,-0.2361 -2.330288,-0.73928 -3.613971,-1.11818 -1.552803,-0.45833 -2.731949,-1.04845 -3.523053,-1.76316 -0.653994,-0.59085 -1.910973,-1.55679 -2.793283,-2.14655 -0.882311,-0.58976 -1.588499,-1.21628 -1.569309,-1.39228 0.04085,-0.37461 0.293558,-1.01535 1.262102,-3.2 0.390141,-0.88 0.811831,-1.92697 0.937088,-2.3266 0.132464,-0.42262 0.853744,-1.04695 1.724084,-1.49235 0.822988,-0.42117 2.065568,-1.3542 2.761286,-2.0734 0.695718,-0.71921 1.434394,-1.30765 1.641498,-1.30765 0.207104,0 1.211049,-0.648 2.230988,-1.44 1.01994,-0.792 2.060864,-1.44 2.313165,-1.44 0.686986,0 4.570336,-4.03733 4.852032,-5.04443 0.312106,-1.11581 -0.386291,-3.0102 -1.738473,-4.71557 -0.558199,-0.704 -1.56064,-2.36 -2.227645,-3.68 -0.667008,-1.32 -1.463341,-2.76 -1.769632,-3.2 -0.306288,-0.44 -0.800077,-1.32005 -1.097306,-1.95566 -0.584624,-1.25021 -1.426144,-1.76749 -3.384873,-2.0807 -1.935888,-0.30957 -2.754071,0.054 -5.230842,2.32439 -5.014662,4.59679 -5.033354,4.61125 -5.822608,4.50556 -0.421875,-0.0565 -0.880493,-0.22725 -1.019149,-0.37946 -0.138653,-0.15221 -0.08963,-0.18399 0.108941,-0.0706 0.218067,0.12449 0.431066,-0.14402 0.537878,-0.67809 0.09726,-0.4863 0.618794,-1.34665 1.15896,-1.91189 0.540167,-0.56523 0.982122,-1.245 0.982122,-1.51061 0,-0.2656 0.13505,-0.48291 0.300112,-0.48291 0.336269,0 0.336918,-0.009 0.28823,-4 -0.01933,-1.584 -0.03313,-3.096 -0.03069,-3.36 0.0026,-0.264 0.309981,-1.61903 0.683396,-3.01119 0.373417,-1.39215 0.67894,-3.09338 0.67894,-3.7805 0,-0.68713 0.340183,-1.99609 0.755959,-2.90882 0.921094,-2.022 2.099161,-5.47057 3.214621,-9.4102 1.396022,-4.93053 1.864249,-14.81888 1.216422,-25.68929 l -0.295594,-4.96 0.01571,8 c 0.01552,7.90528 -0.473257,16.56452 -1.092771,19.36 -0.175517,0.792 -0.899206,3.312 -1.608195,5.6 -0.708992,2.288 -1.354275,4.376 -1.433962,4.64 -0.07969,0.264 -0.711273,0.82868 -1.403523,1.25484 -0.692249,0.42617 -1.170304,0.93017 -1.062342,1.12 0.107961,0.18984 0.08029,0.24025 -0.06148,0.11202 -0.141779,-0.12823 -0.940157,0.26777 -1.774179,0.88 -0.899917,0.6606 -1.890109,1.11314 -2.435638,1.11314 -0.505581,0 -1.422288,0.156 -2.037127,0.34668 -0.614838,0.19067 -1.593744,0.39534 -2.175347,0.45482 -0.581603,0.0595 -1.59735,0.19936 -2.257216,0.31084 -0.724762,0.12245 -1.763046,0.0196 -2.622538,-0.25972 -0.782534,-0.25433 -1.843424,-0.55914 -2.357532,-0.67735 -0.514109,-0.11822 -1.272013,-0.48024 -1.684234,-0.80449 -0.412218,-0.32425 -1.461101,-0.84544 -2.330851,-1.1582 -0.869751,-0.31276 -2.046045,-0.96525 -2.613987,-1.44998 l -1.032624,-0.88133 1.249353,-2.02063 c 0.972202,-1.57238 1.261127,-2.37558 1.302416,-3.62064 0.06527,-1.96836 0.322535,-3.62497 0.919338,-5.92 0.251721,-0.968 0.879824,-3.56 1.395782,-5.76 0.515962,-2.2 1.185575,-5.008 1.488035,-6.24 1.02193,-4.16261 1.132314,-5.42415 1.078004,-12.32 -0.05398,-6.85283 -0.0507,-6.88821 0.829408,-8.96 0.48598,-1.144 1.168688,-2.908 1.517126,-3.92 0.348442,-1.012 0.764803,-1.84 0.925254,-1.84 0.160448,0 0.291725,-0.21804 0.291725,-0.48452 0,-0.52724 2.19864,-3.33987 4.28768,-5.48505 0.721776,-0.74117 1.96032,-1.62304 2.75232,-1.95971 1.943434,-0.82612 5.547303,-2.0085 5.822227,-1.91019 0.342528,0.12249 2.49777,-2.07204 2.49777,-2.5433 0,-0.22948 0.152499,-0.41723 0.338886,-0.41723 0.186388,0 0.249888,-0.144 0.141114,-0.32 -0.108774,-0.176 -0.04527,-0.32 0.141114,-0.32 0.186387,0 0.316646,-0.108 0.289465,-0.24 -0.02717,-0.132 0.172375,-0.744 0.443459,-1.36 0.282394,-0.6417 0.496362,-2.05309 0.501028,-3.30494 0.0045,-1.20172 0.09204,-2.26883 0.194579,-2.37137 0.102537,-0.10254 0.439315,0.0279 0.748393,0.28997 2.312138,1.96011 5.265805,2.78926 11.121962,3.12213 6.481549,0.36843 10.4,1.82283 10.4,3.86016 0,0.50179 0.228771,1.80534 0.508381,2.89676 0.300147,1.17159 0.423414,2.4373 0.300947,3.0901 -0.114086,0.60814 -0.07401,1.27479 0.08906,1.48145 0.163069,0.20666 0.610013,1.23974 0.99321,2.29574 1.438963,3.96544 2.095145,5.46952 2.826582,6.47897 l 0.752826,1.03898 -0.735501,-0.079 c -0.546112,-0.0586 -0.735504,0.084 -0.735504,0.55414 0,0.34821 -0.54,1.12096 -1.2,1.71723 -1.039296,0.93894 -1.2,1.27199 -1.2,2.4869 0,0.77152 -0.108,1.38571 -0.24,1.36487 -2.159552,-0.34099 -3.495632,2.66041 -2.296054,5.15789 0.65431,1.36226 1.08392,3.13532 0.969187,4 -0.04671,0.352 -0.433267,0.96983 -0.859027,1.37295 -0.861808,0.81599 -1.007879,2.18094 -0.415303,3.88081 0.285549,0.81912 0.260362,1.23722 -0.12335,2.04775 -0.836211,1.76639 -1.595802,5.60885 -1.360007,6.87972 0.24513,1.32119 0.975156,2.29877 1.71664,2.29877 0.271092,0 0.912109,-0.396 1.424487,-0.88 l 0.931593,-0.88 -0.217488,2.72 c -0.217827,2.72422 -1.188448,8.95605 -1.769344,11.36 -0.170118,0.704 -0.46264,3.64448 -0.650051,6.5344 -0.187414,2.88991 -0.404749,5.35794 -0.482966,5.48451 -0.07822,0.12656 -0.423056,2.65808 -0.766298,5.6256 -0.846681,7.32001 -3.178537,17.79089 -5.756217,25.84751 -3.108733,9.71645 -3.495424,11.44508 -3.531751,15.78798 -0.01584,1.89309 -0.172086,1.97207 -2.414051,1.22017 z m -1.146608,-43.10768 c 1.736,-3.39188 2.924902,-10.1456 2.939024,-16.69553 0.01165,-5.40906 -0.544659,-9.604 -2.702346,-20.37696 -0.274217,-1.36913 -0.377232,-1.56155 -0.463852,-0.86644 -0.06124,0.49146 0.105936,1.85946 0.3715,3.04 0.265568,1.18054 0.642276,3.61632 0.83713,5.41285 0.194854,1.79652 0.490893,4.10052 0.657862,5.12 0.714522,4.36267 0.125661,15.60466 -0.96806,18.48136 -0.178557,0.46964 -0.32465,1.12247 -0.32465,1.45074 0,0.32826 -0.444854,1.55795 -0.988566,2.73264 -0.543712,1.17469 -0.917232,2.4086 -0.830042,2.74201 0.08719,0.33341 0.02803,0.68684 -0.131434,0.78541 -0.159478,0.0986 -0.289958,0.33234 -0.289958,0.5195 0,0.69761 0.917747,-0.43932 1.893392,-2.34558 z M 62.618595,142.02 c -0.10215,-0.25527 -0.177977,-0.17945 -0.193331,0.19333 -0.01389,0.33734 0.06173,0.52634 0.16807,0.42 0.106333,-0.10633 0.1177,-0.38233 0.02525,-0.61333 z m 27.006669,94.91333 c 0.01536,-0.37278 0.09118,-0.4486 0.193331,-0.19333 0.09244,0.231 0.08107,0.507 -0.02525,0.61333 -0.106333,0.10634 -0.181965,-0.0827 -0.16807,-0.42 z m -35.22408,-6.37207 c -0.412704,-0.4393 -0.670202,-0.87891 -0.572211,-0.9769 0.271449,-0.27145 3.451027,-1.44304 3.451027,-1.27162 0,0.51132 -1.471325,3.04726 -1.767984,3.04726 -0.19825,0 -0.698125,-0.35943 -1.110832,-0.79874 z m 35.86408,-3.86793 c 0.01536,-0.37278 0.09118,-0.4486 0.193331,-0.19333 0.09244,0.231 0.08107,0.507 -0.02525,0.61333 -0.106333,0.10634 -0.181965,-0.0827 -0.16807,-0.42 z m 4.8,-6.4 c 0.01536,-0.37278 0.09118,-0.4486 0.193331,-0.19333 0.09244,0.231 0.08107,0.507 -0.02525,0.61333 -0.106333,0.10634 -0.181965,-0.0827 -0.16807,-0.42 z M 42.610525,216.96 c 0,-0.44 0.07263,-0.62 0.161405,-0.4 0.08877,0.22 0.08877,0.58 0,0.8 -0.08877,0.22 -0.161405,0.04 -0.161405,-0.4 z m 48.934739,-1.78667 c 0.01536,-0.37278 0.09118,-0.4486 0.193331,-0.19333 0.09244,0.231 0.08107,0.507 -0.02525,0.61333 -0.106333,0.10634 -0.181965,-0.0827 -0.16807,-0.42 z M 91.890525,211.84 c 0,-0.44 0.07263,-0.62 0.161405,-0.4 0.08877,0.22 0.08877,0.58 0,0.8 -0.08877,0.22 -0.161405,0.04 -0.161405,-0.4 z M 47.36,211.71424 c 0,-0.0692 0.223478,-0.21152 0.496621,-0.31634 0.284774,-0.10928 0.413222,-0.0556 0.301113,0.12576 -0.187923,0.30407 -0.797734,0.44975 -0.797734,0.19058 z m 44.887146,-5.43179 c 0.02262,-2.96601 0.08878,-3.39241 0.449696,-2.89883 0.393987,0.53881 0.424899,0.52485 0.448422,-0.20246 0.01389,-0.42964 0.102627,-0.58696 0.197184,-0.3496 0.09456,0.23735 0.01235,0.74135 -0.182682,1.12 -0.195033,0.37864 -0.486131,1.84044 -0.646883,3.24844 l -0.292275,2.56 0.02653,-3.47755 z M 93.51424,205.76 c 0,-0.616 0.06586,-0.868 0.146346,-0.56 0.08049,0.308 0.08049,0.812 0,1.12 -0.08049,0.308 -0.146346,0.056 -0.146346,-0.56 z M 144.24,204.58807 c 0.22,-0.0888 0.58,-0.0888 0.8,0 0.22,0.0888 0.04,0.16141 -0.4,0.16141 -0.44,0 -0.62,-0.0726 -0.4,-0.16141 z m -3.56704,-0.69474 c -0.0906,-0.14666 0.0385,-0.26666 0.28704,-0.26666 0.24852,0 0.37768,0.12 0.28704,0.26666 -0.0907,0.14667 -0.21981,0.26667 -0.28704,0.26667 -0.0672,0 -0.19639,-0.12 -0.28704,-0.26667 z m 0.0417,-1.37304 c 0.21706,-0.21869 0.47527,-0.31701 0.5738,-0.21849 0.0985,0.0985 -0.0791,0.27746 -0.39467,0.39763 -0.45606,0.17365 -0.49282,0.1369 -0.17913,-0.17914 z M 148.74,202.3414 c 0.231,-0.0924 0.507,-0.0811 0.61333,0.0252 0.10634,0.10634 -0.0827,0.18197 -0.42,0.16807 -0.37278,-0.0154 -0.4486,-0.0912 -0.19333,-0.19333 z m -56.554736,-0.60807 c 0.01536,-0.37278 0.09118,-0.4486 0.193331,-0.19333 0.09244,0.231 0.08107,0.507 -0.02525,0.61333 -0.106333,0.10634 -0.181965,-0.0827 -0.16807,-0.42 z M 92.72,198.53537 c -0.132,-0.13312 -0.24,-0.53484 -0.24,-0.8927 0,-0.47097 0.09666,-0.55401 0.35001,-0.30066 0.192505,0.19251 0.300505,0.59422 0.24,0.89271 -0.06051,0.29848 -0.21801,0.43378 -0.35001,0.30065 z m -37.974736,-3.52204 c 0.01536,-0.37278 0.09118,-0.4486 0.193331,-0.19333 0.09244,0.231 0.08107,0.507 -0.02525,0.61333 -0.106336,0.10634 -0.181965,-0.0827 -0.16807,-0.42 z M 155.84,191.69889 c 0,-0.16562 0.14235,-0.3891 0.31634,-0.49662 0.18139,-0.11211 0.23504,0.0163 0.12576,0.30111 -0.21273,0.55437 -0.4421,0.6558 -0.4421,0.19551 z M 56.07424,186.88 c 0,-0.616 0.06586,-0.868 0.146346,-0.56 0.08049,0.308 0.08049,0.812 0,1.12 -0.08049,0.308 -0.146346,0.056 -0.146346,-0.56 z M 43.14,187.3014 c 0.230998,-0.0924 0.506998,-0.0811 0.613334,0.0252 0.106333,0.10634 -0.08267,0.18197 -0.42,0.16807 -0.372784,-0.0154 -0.448608,-0.0912 -0.193334,-0.19333 z m 110.14,-0.44029 c 0,-0.18638 0.144,-0.24988 0.32,-0.14111 0.176,0.10877 0.32,0.26127 0.32,0.33889 0,0.0776 -0.144,0.14111 -0.32,0.14111 -0.176,0 -0.32,-0.1525 -0.32,-0.33889 z m -49.6,-20.59197 c 0,-0.0609 0.216,-0.29004 0.48,-0.50914 0.27667,-0.22962 0.48,-0.26072 0.48,-0.0734 0,0.17872 -0.216,0.40783 -0.48,0.50914 -0.264,0.10131 -0.48,0.13434 -0.48,0.0734 z M 82.24,152.19918 c 0,-0.0665 0.252,-0.31845 0.56,-0.56 0.507539,-0.39804 0.518858,-0.38672 0.120819,0.12082 C 82.502781,152.29304 82.24,152.46255 82.24,152.19918 Z M 101.71918,150.48 c -0.39804,-0.50754 -0.38672,-0.51886 0.12082,-0.12082 0.53304,0.41804 0.70255,0.68082 0.43918,0.68082 -0.0665,0 -0.31845,-0.252 -0.56,-0.56 z m -63.256796,-6 c 0.0065,-0.528 0.07824,-0.70526 0.159373,-0.39391 0.08113,0.31135 0.0758,0.74335 -0.01184,0.96 -0.08766,0.21665 -0.154039,-0.0381 -0.147517,-0.56609 z m 108.442876,-0.66667 c 0.0154,-0.37278 0.0912,-0.4486 0.19334,-0.19333 0.0924,0.231 0.0811,0.507 -0.0252,0.61333 -0.10634,0.10634 -0.18197,-0.0827 -0.16807,-0.42 z m -108.479996,-1.28 c 0.01536,-0.37278 0.09118,-0.4486 0.193331,-0.19333 0.09244,0.231 0.08107,0.507 -0.02525,0.61333 -0.106336,0.10634 -0.181965,-0.0827 -0.16807,-0.42 z m 0.02526,-2.05333 c 0,-0.44 0.07263,-0.62 0.161405,-0.4 0.08877,0.22 0.08877,0.58 0,0.8 -0.08877,0.22 -0.161405,0.04 -0.161405,-0.4 z M 100.56,140.79003 c -0.396,-0.15918 -0.72,-0.35256 -0.72,-0.42976 0,-0.23819 1.27941,0.17989 1.46387,0.47836 0.20352,0.3293 0.1949,0.32874 -0.74387,-0.0486 z m -15.734736,-1.7767 c 0.01536,-0.37278 0.09118,-0.4486 0.193331,-0.19333 0.09244,0.231 0.08107,0.507 -0.02525,0.61333 -0.106333,0.10634 -0.181965,-0.0827 -0.16807,-0.42 z M 92.4,135.46807 c 0.22,-0.0888 0.58,-0.0888 0.8,0 0.22,0.0888 0.04,0.16141 -0.4,0.16141 -0.44,0 -0.62,-0.0726 -0.4,-0.16141 z M 141.39918,128.08 c -0.39804,-0.50754 -0.38672,-0.51886 0.12082,-0.12082 0.53304,0.41804 0.70255,0.68082 0.43918,0.68082 -0.0665,0 -0.31845,-0.252 -0.56,-0.56 z m -42.189378,-2.96 c 0,-0.264 0.139587,-0.696 0.310198,-0.96 0.275734,-0.42667 0.310198,-0.42667 0.310198,0 0,0.264 -0.139587,0.696 -0.310198,0.96 -0.275734,0.42667 -0.310198,0.42667 -0.310198,0 z M 84.8,124.01889 c 0,-0.25362 0.13057,-0.54181 0.290157,-0.64045 0.159587,-0.0986 0.21479,0.10888 0.122678,0.46112 C 85.01744,124.58676 84.8,124.68121 84.8,124.01889 Z M 56.8,119.04 c 0.318557,-0.352 0.651194,-0.64 0.739194,-0.64 0.088,0 -0.100637,0.288 -0.419194,0.64 -0.318557,0.352 -0.651194,0.64 -0.739194,0.64 -0.088,0 0.100637,-0.288 0.419194,-0.64 z m 62.03043,-5.2938 c -0.10423,-0.27159 -0.11799,-0.5653 -0.0306,-0.65269 0.0874,-0.0874 0.2357,0.13482 0.32958,0.4938 0.19941,0.76254 -0.0221,0.88028 -0.29898,0.15889 z m -0.34327,-2.7062 c 0,-0.792 0.0624,-1.116 0.13867,-0.72 0.0763,0.396 0.0763,1.044 0,1.44 -0.0763,0.396 -0.13867,0.072 -0.13867,-0.72 z"
         id="path177" />
      <path
         style="fill:#845016;stroke-width:0.32"
         d="m 50.4,227.51302 c -1.825808,-0.88679 -4.64,-3.24452 -4.64,-3.8874 0,-0.16541 -0.272282,-0.90483 -0.605072,-1.64318 -0.33279,-0.73834 -0.857779,-2.39269 -1.166643,-3.67633 -0.720506,-2.99443 -0.483495,-3.4655 2.460099,-4.88951 1.451853,-0.70237 2.612262,-1.54403 3.320646,-2.40852 1.019332,-1.24396 1.053828,-1.3606 0.539936,-1.82567 -0.301932,-0.27324 -0.685177,-0.50329 -0.851654,-0.51121 -0.16648,-0.008 -0.347981,-0.3526 -0.403334,-0.76595 -0.06906,-0.51568 0.286681,-1.17109 1.133532,-2.0884 0.6788,-0.73527 1.332698,-1.33685 1.453111,-1.33685 0.120413,0 0.661449,0.504 1.202304,1.12 0.540857,0.616 1.124745,1.12 1.297533,1.12 0.172784,0 0.769417,-0.51423 1.325849,-1.14273 0.556429,-0.62849 1.516141,-1.44733 2.132691,-1.81963 0.616551,-0.37231 1.800023,-1.32557 2.629936,-2.11837 1.838855,-1.7566 2.314058,-2.03437 3.663687,-2.14145 1.452086,-0.11522 2.902409,0.95051 3.949507,2.90218 0.472134,0.88 1.357773,2.54277 1.96809,3.69506 0.61032,1.15227 1.548444,2.73627 2.084726,3.52 1.618829,2.36575 1.980419,3.2588 1.662061,4.1049 -0.46408,1.23339 -3.803543,4.22831 -6.824093,6.12004 -1.545619,0.968 -3.476822,2.37046 -4.291565,3.11659 -0.814739,0.74612 -1.645667,1.35812 -1.846505,1.36 -0.200836,0.002 -1.062554,0.5797 -1.914925,1.28407 -1.350551,1.11602 -5.144295,2.91174 -6.046704,2.86212 C 52.460944,228.45331 51.456,228.02591 50.4,227.51302 Z M 30.927181,188.53911 c -1.008695,-1.00051 -2.079958,-2.20467 -2.380585,-2.67592 -0.300628,-0.47125 -1.222416,-1.78159 -2.04842,-2.91187 -0.826003,-1.13028 -1.595386,-2.42784 -1.70974,-2.88347 -0.252624,-1.00653 0.444091,-2.24591 2.00527,-3.56713 l 1.10987,-0.93929 1.746906,1.80344 c 1.771645,1.82898 1.890158,2.13991 1.522808,3.99513 -0.157302,0.79442 -0.09504,1.04 0.263663,1.04 0.258276,0 0.858039,0.36 1.332807,0.8 0.474768,0.44 0.996477,0.8 1.15935,0.8 0.390493,0 1.257821,1.34132 1.42345,2.20137 0.07213,0.37457 0.201091,0.79419 0.28657,0.9325 0.08548,0.13831 -0.265943,0.53377 -0.780938,0.8788 -0.514992,0.34503 -0.936765,0.7133 -0.93727,0.81837 -6.4e-4,0.10507 -0.261658,0.49167 -0.580336,0.8591 -0.579248,0.66788 -0.579949,0.66755 -2.413405,-1.15103 z M 34.72,188.8 c 0.318557,-0.352 0.651194,-0.64 0.739194,-0.64 0.088,0 -0.100637,0.288 -0.419194,0.64 -0.318557,0.352 -0.651194,0.64 -0.739194,0.64 -0.088,0 0.100637,-0.288 0.419194,-0.64 z"
         id="path175" />
      <path
         style="fill:#222121;stroke-width:0.32"
         d="m 103.80856,245.30203 c -0.35961,-0.25188 -1.33352,-1.47101 -2.16423,-2.70917 -0.83072,-1.23816 -1.649552,-2.3372 -1.819639,-2.44232 -0.65143,-0.40261 -1.322537,-2.21816 -1.772208,-4.79437 -0.257104,-1.47299 -0.667552,-3.24528 -0.912105,-3.93841 -0.244554,-0.69314 -0.542029,-2.10569 -0.66106,-3.139 -0.11903,-1.03332 -0.354432,-2.42363 -0.523113,-3.08958 -0.332448,-1.31248 -0.776448,-4.71202 -1.241949,-9.50918 -0.162246,-1.672 -0.521379,-5.056 -0.798074,-7.52 -0.276697,-2.464 -0.586131,-5.848 -0.687638,-7.52 -0.377539,-6.21888 -0.917181,-3.0226 -1.050963,6.22484 -0.03298,2.27967 -0.115024,4.23394 -0.182317,4.34282 -0.0673,0.10889 -0.211053,1.55571 -0.319462,3.21516 -0.108407,1.65945 -0.543111,5.89718 -0.96601,9.41718 -0.422896,3.52 -0.907539,8.992 -1.076982,12.16 -0.451261,8.43705 -1.096778,9.6959 -4.324138,8.43276 -0.89577,-0.35059 -2.531069,-1.13977 -3.633997,-1.75374 -2.075277,-1.15524 -3.419942,-1.46418 -8.714675,-2.00221 -5.094922,-0.51772 -11.117021,-2.51055 -12.623194,-4.17725 -0.342758,-0.37929 -1.494758,-1.28039 -2.56,-2.00246 -2.891385,-1.95989 -4.998531,-3.79258 -5.313724,-4.6216 -0.161223,-0.42404 -0.65937,-0.82875 -1.171764,-0.95197 -1.37583,-0.33086 -2.997843,-1.26741 -4.493766,-2.59468 -1.786192,-1.58482 -3.620618,-5.93693 -3.849238,-9.13217 -0.184948,-2.58487 0.06135,-2.96473 2.759702,-4.2563 2.41433,-1.15562 4.282659,-2.92883 4.010182,-3.80603 -0.199833,-0.64334 -0.191907,-0.64422 0.470906,-0.0523 l 0.67416,0.60203 -1.062054,1.27857 c -0.650986,0.7837 -2.041136,1.78926 -3.591632,2.59798 -2.11305,1.10214 -2.546061,1.46232 -2.629674,2.18737 -0.09648,0.83662 0.999142,5.27528 1.557171,6.30853 0.149555,0.27693 0.502394,1.0075 0.78408,1.6235 0.643744,1.40776 2.861587,3.19613 5.129315,4.13605 l 1.742954,0.72241 2.168362,-0.82857 c 1.192598,-0.45572 2.865756,-1.40488 3.718131,-2.10923 0.852371,-0.70437 1.714089,-1.2822 1.914925,-1.28407 0.200838,-0.002 1.031766,-0.61388 1.846505,-1.36 0.814743,-0.74613 2.745946,-2.14859 4.291565,-3.11659 2.82568,-1.76968 6.119994,-4.66374 6.826525,-5.99711 0.427094,-0.80601 0.08853,-1.66597 -1.664493,-4.22783 -0.536282,-0.78373 -1.474406,-2.36773 -2.084726,-3.52 -0.610317,-1.15229 -1.495956,-2.81506 -1.96809,-3.69506 -0.961453,-1.79204 -2.539795,-3.04 -3.844797,-3.04 -0.962038,0 -2.788457,1.12534 -4.101609,2.52718 -0.470647,0.50244 -1.462141,1.28965 -2.203322,1.74936 -0.741181,0.45971 -1.663085,1.26255 -2.048678,1.78409 -1.002596,1.35608 -1.532919,1.44862 -2.575824,0.44945 C 52.568554,205.39168 52.16,204.8832 52.16,204.74013 c 0,-0.14307 0.288,0.0279 0.64,0.37987 0.352,0.352 0.790131,0.64 0.973626,0.64 0.183494,0 1.011494,-0.6347 1.84,-1.41044 6.419955,-6.01113 6.708563,-6.19731 9.031072,-5.82592 1.958729,0.31321 2.800249,0.83049 3.384873,2.0807 0.297229,0.63561 0.791018,1.51566 1.097306,1.95566 0.306291,0.44 1.102624,1.88 1.769632,3.2 0.667005,1.32 1.669446,2.976 2.227645,3.68 1.329942,1.67732 2.049827,3.60292 1.748668,4.67745 -0.277257,0.98924 -4.190528,5.08255 -4.859011,5.08255 -0.25407,0 -1.296441,0.648 -2.316381,1.44 -1.019939,0.792 -2.023884,1.44 -2.230988,1.44 -0.207104,0 -0.94578,0.58844 -1.641498,1.30765 -0.695718,0.7192 -1.938298,1.65223 -2.761286,2.0734 -0.87034,0.4454 -1.59162,1.06973 -1.724084,1.49235 -0.125257,0.39963 -0.567904,1.47337 -0.983657,2.38609 C 57.940163,230.25222 57.6,231.10488 57.6,231.2343 c 0,0.12942 -0.223155,0.48189 -0.495901,0.78327 -0.456688,0.50463 -0.374381,0.62274 1.040848,1.49354 0.845213,0.52006 2.226487,1.54253 3.069491,2.27215 1.095917,0.94851 2.190058,1.52045 3.839152,2.00684 1.268525,0.37415 2.923444,0.88043 3.677594,1.12508 2.20079,0.71395 2.307037,0.65745 2.322867,-1.23518 0.03633,-4.3429 0.423018,-6.07153 3.531751,-15.78798 2.57768,-8.05662 4.909536,-18.5275 5.756217,-25.84751 0.343242,-2.96752 0.688077,-5.49904 0.766298,-5.6256 0.07822,-0.12657 0.295552,-2.5946 0.482966,-5.48451 0.187411,-2.88992 0.479933,-5.8304 0.650051,-6.5344 0.580896,-2.40395 1.551517,-8.63578 1.769344,-11.36 l 0.217488,-2.72 -0.931593,0.88 c -0.512378,0.484 -1.153395,0.88 -1.424487,0.88 -0.741484,0 -1.47151,-0.97758 -1.71664,-2.29877 -0.235795,-1.27087 0.523796,-5.11333 1.360007,-6.87972 0.383712,-0.81053 0.408899,-1.22863 0.12335,-2.04775 -0.592576,-1.69987 -0.446505,-3.06482 0.415303,-3.88081 0.42576,-0.40312 0.81232,-1.02095 0.859027,-1.37295 0.114733,-0.86468 -0.314877,-2.63774 -0.969187,-4 -0.384944,-0.80144 -0.483527,-1.5514 -0.346605,-2.63671 0.206224,-1.63462 0.92415,-2.45561 2.162659,-2.47311 0.635622,-0.009 0.72,-0.17457 0.72,-1.41294 0,-1.21491 0.160704,-1.54796 1.2,-2.4869 0.66,-0.59627 1.2,-1.36902 1.2,-1.71723 0,-0.47009 0.189392,-0.61277 0.735504,-0.55414 l 0.735501,0.079 -0.752826,-1.03898 c -0.731437,-1.00945 -1.387619,-2.51353 -2.826582,-6.47897 -0.383197,-1.056 -0.830141,-2.08908 -0.99321,-2.29574 -0.163069,-0.20666 -0.203145,-0.87331 -0.08906,-1.48145 0.122467,-0.6528 -6.4e-4,-1.91851 -0.300947,-3.0901 -0.27961,-1.09142 -0.508381,-2.39497 -0.508381,-2.89676 0,-2.03733 -3.918451,-3.49173 -10.4,-3.86016 -4.93553,-0.28055 -7.228131,-0.77625 -9.516957,-2.05776 -3.787363,-2.12054 -4.024141,-4.94498 -0.604432,-7.2101 2.154698,-1.42721 4.25729,-1.96983 6.064003,-1.56493 0.809168,0.18134 1.657101,0.48398 1.884298,0.67253 0.29519,0.24499 0.539418,0.23799 0.855718,-0.0245 0.343466,-0.28505 0.488532,-0.24772 0.647533,0.16662 0.112695,0.29368 0.279303,0.45957 0.37024,0.36863 0.223226,-0.22323 2.273383,1.77008 2.132877,2.07374 -0.06108,0.132 0.10495,0.24 0.36895,0.24 0.264,0 0.582746,0.16625 0.708327,0.36944 0.153603,0.24853 0.08124,0.28411 -0.221114,0.10869 -0.261843,-0.15191 -0.33984,-0.14085 -0.186857,0.0265 0.144422,0.15797 0.504422,0.28906 0.8,0.2913 0.295577,0.002 0.501414,0.18408 0.457414,0.40408 -0.044,0.22 0.175997,0.4 0.488883,0.4 0.312887,0 0.815475,0.288 1.116867,0.64 0.301392,0.352 0.765396,0.64 1.031117,0.64 0.265725,0 0.483133,0.144 0.483133,0.32 0,0.176 0.15777,0.32 0.350602,0.32 0.192832,0 0.759449,0.29113 1.259155,0.64695 0.499705,0.35582 1.025936,0.62677 1.169398,0.60211 0.621063,-0.10677 1.084976,0.053 0.921568,0.31741 -0.225561,0.36498 0.571248,0.67354 1.739277,0.67354 1.130099,0 1.966848,0.30532 1.758893,0.64179 -0.08659,0.1401 0.573289,0.43002 1.46639,0.64427 0.893101,0.21426 1.700176,0.58854 1.793504,0.83175 0.119898,0.31245 0.769927,0.44219 2.21545,0.44219 1.832429,0 2.045763,-0.0667 2.045763,-0.64 0,-0.49778 0.213334,-0.64 0.96,-0.64 0.619174,0 0.96,-0.16248 0.96,-0.45766 0,-0.36133 -0.202074,-0.39501 -0.96,-0.16 -0.528,0.16371 -1.392,0.43161 -1.92,0.59532 -1.338912,0.41515 -1.199098,0.13344 0.24,-0.48357 0.66,-0.28298 1.956,-0.51274 2.88,-0.51057 0.924,0.002 1.68,-0.12825 1.68,-0.2898 0,-0.16154 0.355482,-0.29372 0.789958,-0.29372 0.605325,0 0.742199,-0.12446 0.58562,-0.53249 -0.139319,-0.36306 -0.08272,-0.45734 0.177849,-0.29629 0.210205,0.12991 0.775414,0.14983 1.256034,0.0443 0.81604,-0.17923 0.86631,-0.28663 0.75999,-1.6235 -0.10189,-1.28108 0.004,-1.54934 1.00635,-2.55179 0.63021,-0.63021 1.44913,-1.12463 1.8722,-1.13032 0.54035,-0.007 0.99164,-0.4052 1.60345,-1.41391 1.09263,-1.80145 2.19643,-2.50789 4.27623,-2.73681 2.10334,-0.23152 5.69711,0.60341 6.63524,1.54154 0.72492,0.72492 0.94339,1.84657 1.49088,7.65427 0.34373,3.64624 0.69728,4.37802 2.69745,5.58317 0.67719,0.40802 2.18305,1.45275 3.34636,2.32161 2.17489,1.62441 5.35737,2.94262 9.34782,3.87195 1.147,0.26713 2.45404,0.73377 2.90455,1.03699 1.50219,1.01107 5.98162,6.31755 6.96161,8.24696 1.33138,2.62122 2.8011,8.25931 3.41602,13.10435 0.26268,2.06967 2.4917,9.81605 3.46395,12.03803 0.4144,0.94708 1.52343,4.09621 2.4645,6.99807 1.42036,4.37975 1.91073,5.49421 2.88644,6.56 0.64647,0.70614 1.70094,2.10979 2.34329,3.11922 0.64233,1.00943 1.59681,2.05712 2.12105,2.32822 1.16101,0.60038 1.17173,0.85717 0.13511,3.23779 -2.09559,4.81256 -1.8139,4.4623 -4.69078,5.8326 -1.45814,0.69453 -3.29917,1.43612 -4.09117,1.64797 -0.792,0.21185 -1.847,0.59548 -2.34443,0.8525 -0.49744,0.25701 -2.64778,0.82784 -4.77854,1.2685 -2.13075,0.44066 -4.27261,1.00728 -4.75967,1.25915 -1.75257,0.90629 -4.11736,0.23416 -4.11736,-1.17024 0,-0.82027 0.79389,-1.11022 1.79318,-0.65492 0.60763,0.27686 1.03184,0.26097 1.81959,-0.0682 0.56498,-0.23606 2.39523,-0.68679 4.06723,-1.00163 3.27622,-0.6169 5.04119,-1.14123 9.28,-2.75685 3.85573,-1.46961 4.57268,-2.08178 5.6064,-4.78699 l 0.8678,-2.27102 -0.68138,-0.47726 c -0.37477,-0.26249 -0.95543,-1.00775 -1.29038,-1.65612 -0.33494,-0.64837 -1.2723,-1.95046 -2.08302,-2.89354 -2.0545,-2.38992 -1.82692,-1.87486 -4.19112,-9.48531 -0.65609,-2.112 -1.59308,-4.848 -2.08218,-6.08 -1.25193,-3.15343 -2.568,-8.13553 -3.04312,-11.52 -0.41074,-2.92581 -1.4687,-8.17109 -2.00165,-9.92404 -0.90377,-2.97257 -3.29512,-6.77063 -3.99184,-6.34004 -0.18088,0.1118 -0.23234,0.0475 -0.11454,-0.14306 0.11762,-0.19031 -0.47213,-1.06667 -1.31056,-1.94747 -0.83843,-0.88079 -1.66841,-1.83545 -1.84441,-2.12145 -0.176,-0.28601 -0.968,-0.66347 -1.76,-0.83881 -3.96157,-0.87705 -8.57348,-2.56605 -9.78204,-3.58244 -2.1106,-1.77501 -3.31552,-2.51433 -3.70522,-2.27348 -0.23103,0.14278 -0.28524,0.0899 -0.1433,-0.13977 0.12558,-0.20319 0.0869,-0.36944 -0.086,-0.36944 -0.17289,0 -0.7374,-0.35598 -1.25448,-0.79108 -0.51708,-0.43509 -1.03212,-0.72309 -1.14455,-0.64 -0.11243,0.0831 -0.1321,0.0548 -0.0437,-0.063 0.0884,-0.11772 -0.0916,-0.49284 -0.4,-0.8336 -0.46522,-0.51405 -0.5607,-1.24053 -0.5607,-4.26597 0,-2.00552 -0.072,-3.63732 -0.16,-3.62622 -0.088,0.0111 -0.9254,0.91254 -1.8609,2.00322 -2.03322,2.37051 -4.49013,3.73525 -8.16942,4.53786 -2.15017,0.46905 -2.70733,0.7378 -3.88344,1.87318 -1.0308,0.99511 -1.42906,1.66418 -1.59752,2.68388 -0.28368,1.71712 -0.94493,2.24865 -0.75308,0.60535 0.1413,-1.21035 0.059,-1.32814 -0.62482,-0.89421 -0.32227,0.20451 -0.27279,0.56027 0.23298,1.6751 0.35318,0.77849 0.64531,1.98507 0.64917,2.68128 0.006,1.05456 -1.26075,5.56648 -2.249777,8.01416 -0.294823,0.72964 -0.794884,2.46905 -1.077719,3.74872 -0.339897,1.53785 -1.514838,2.37799 -3.665971,2.62137 -1.067498,0.12077 -2.485091,0.0784 -3.150205,-0.0942 -3.045539,-0.79015 -3.448109,-0.74593 -4.894493,0.53762 -1.010102,0.89639 -1.403676,1.51945 -1.557472,2.46564 -0.14758,0.90793 -0.429395,1.3776 -0.996118,1.66015 -1.738099,0.86653 -2.020765,2.27084 -0.946102,4.7003 0.360313,0.81455 0.736748,2.17027 0.836524,3.01272 0.157658,1.33116 0.07188,1.66189 -0.655113,2.52587 -0.911354,1.08309 -1.09457,2.57726 -0.443799,3.61931 0.311693,0.4991 0.307869,0.84484 -0.01853,1.67565 -0.590627,1.50342 -1.654204,5.66773 -1.654204,6.47684 0,0.3782 0.195088,0.95445 0.433532,1.28054 0.415808,0.56865 0.479178,0.55807 1.550205,-0.25884 1.304035,-0.99464 1.504298,-1.02003 2.71033,-0.34366 0.845117,0.47396 1.005337,0.46338 2.386749,-0.15764 0.925404,-0.41602 1.885584,-1.20299 2.56,-2.09818 1.256342,-1.66762 2.036921,-1.81673 3.419635,-0.65325 0.72695,0.61168 1.173328,0.75424 1.904064,0.6081 0.709222,-0.14185 1.067699,-0.0388 1.394995,0.401 0.242269,0.32554 1.417757,1.4919 2.612198,2.5919 1.560501,1.43711 2.416091,1.99862 3.040001,1.9951 1.31746,-0.007 1.63209,-0.35685 1.9818,-2.20087 0.35505,-1.87215 0.0245,-3.80795 -1.00074,-5.86148 -0.72087,-1.44383 -0.75608,-2.84871 -0.10305,-4.11153 0.59694,-1.15437 0.33125,-1.7703 -1.52564,-3.53671 -0.70515,-0.6708 -1.20635,-1.40523 -1.11379,-1.63207 0.0926,-0.22684 0.2594,-0.63801 0.37072,-0.91371 0.1233,-0.3054 -0.17732,-0.97909 -0.7693,-1.72401 -1.099386,-1.38339 -1.187249,-1.83748 -0.47061,-2.43223 1.48813,-1.23504 1.52036,-3.24701 0.0579,-3.61407 -0.566954,-0.1423 -1.036788,-0.76359 -1.768692,-2.33887 -0.548163,-1.1798 -0.906889,-2.29035 -0.797171,-2.46787 0.109718,-0.17753 0.345376,0.0285 0.52368,0.45777 1.25543,3.02265 1.565002,3.47792 2.596353,3.81829 1.69687,0.56002 1.72782,2.65223 0.0655,4.4291 l -0.69869,0.74684 0.96,0.82837 c 0.85272,0.7358 0.96,1.02764 0.96,2.61161 0,0.98078 0.144,1.79421 0.32,1.80762 0.91172,0.0695 2.01344,0.95019 2.3488,1.87763 0.30691,0.84872 0.28705,1.26434 -0.10527,2.20329 -0.61934,1.4823 -0.61301,2.60269 0.0202,3.56903 1.44459,2.20472 1.70215,7.56294 0.42494,8.84016 -0.69803,0.69802 -2.67182,1.11015 -3.4874,0.72816 -0.32827,-0.15375 -1.6613,-1.30236 -2.962301,-2.55246 -2.063092,-1.98238 -2.488695,-2.25481 -3.329661,-2.13138 -0.777946,0.11417 -1.124919,-0.0495 -1.796077,-0.8471 -0.457526,-0.54374 -0.952198,-0.98861 -1.099274,-0.98861 -0.44038,0 -0.136166,16.43988 0.376016,20.32 0.54233,4.10851 1.027863,10.07326 1.315431,16.16 0.112253,2.376 0.251277,4.752 0.308944,5.28 0.127107,1.1638 0.713145,8.04851 0.966985,11.36 0.101184,1.32 0.246656,2.832 0.323271,3.36 0.07661,0.528 0.290675,2.112 0.475689,3.52 0.185015,1.408 0.465437,3.13933 0.623159,3.84741 0.157725,0.70807 0.312051,1.86007 0.34295,2.56 0.03091,0.69992 0.394781,2.32455 0.808627,3.61028 0.413844,1.28573 0.91592,3.30173 1.115722,4.48 0.416259,2.45475 1.478099,4.64578 2.130219,4.39554 0.23777,-0.0913 0.34796,-0.0294 0.24486,0.13742 -0.23984,0.38807 0.323,1.38445 1.84582,3.2676 1.38413,1.71163 2.37626,1.90271 4.45565,0.85815 0.7786,-0.39112 1.88005,-0.59756 3.2,-0.59976 1.69344,-0.003 5.45185,-0.663 10.81275,-1.89929 0.616,-0.14206 1.984,-0.70625 3.04,-1.25376 1.056,-0.54752 2.136,-0.99819 2.4,-1.00151 0.264,-0.003 0.84341,-0.19569 1.28757,-0.4275 0.44417,-0.23181 1.23823,-0.5716 1.76458,-0.75509 0.94188,-0.32834 5.77721,-3.47248 7.02785,-4.56981 0.352,-0.30884 1.68342,-1.17344 2.95872,-1.92132 l 2.31872,-1.35977 -1.22897,-0.89026 c -0.67593,-0.48965 -1.66611,-1.66157 -2.20042,-2.60429 -0.5343,-0.94272 -1.45669,-2.16058 -2.04975,-2.70635 -0.59306,-0.54578 -1.36681,-1.33778 -1.71943,-1.76 -0.35261,-0.42223 -1.69742,-1.99169 -2.98845,-3.48769 -4.10582,-4.75767 -6.50329,-8.88608 -8.9663,-15.4399 -0.678,-1.80405 -1.70764,-4.2161 -2.28811,-5.3601 -2.49312,-4.91351 -6.27699,-18.80393 -6.56797,-24.11075 -0.39326,-7.17205 -0.41506,-8.38752 -0.13004,-7.24925 0.15425,0.616 0.36302,2.344 0.46395,3.84 0.28264,4.18955 0.73433,6.88321 1.79759,10.72 2.30301,8.31042 3.59513,11.92055 5.89469,16.4695 1.293,2.55777 2.85965,5.85672 3.48146,7.33099 1.82863,4.33554 5.39925,9.32283 10.35497,14.46339 2.41414,2.50418 4.78825,5.25124 5.27581,6.10458 0.54164,0.94799 1.10945,1.55154 1.45966,1.55154 0.31526,0 0.89461,0.29945 1.28746,0.66544 l 0.71427,0.66545 0.70607,-0.88621 c 0.38834,-0.48742 0.85007,-1.06468 1.02607,-1.28281 0.176,-0.21814 1.55756,-1.31231 3.07013,-2.43149 l 2.75013,-2.03488 -2.11013,-2.02661 c -1.16057,-1.11463 -2.50597,-2.40512 -2.98977,-2.86775 -0.4838,-0.46263 -0.8798,-0.95875 -0.88,-1.10249 -2e-4,-0.14374 -0.34033,-0.71974 -0.75586,-1.28 -0.41553,-0.56026 -1.62589,-2.70222 -2.68968,-4.75992 -1.0638,-2.0577 -2.31758,-4.1457 -2.78618,-4.64 -1.01916,-1.07507 -1.80768,-2.53936 -2.83822,-5.27067 -0.42086,-1.11543 -1.29777,-3.07128 -1.94869,-4.34632 -0.65091,-1.27504 -1.25207,-2.69651 -1.3359,-3.15881 -0.0838,-0.4623 -0.43983,-1.40391 -0.7911,-2.09246 -1.11256,-2.1808 -2.19945,-6.91773 -3.36614,-14.67047 -1.57382,-10.45802 -1.69478,-11.68422 -1.68885,-17.12 0.008,-7.08185 0.46266,-7.00725 0.70088,0.11494 0.3303,9.87501 3.1162,26.21625 5.32674,31.24506 0.15473,0.352 0.6791,1.72 1.16527,3.04 0.48618,1.32 1.13495,2.832 1.44172,3.36 0.30676,0.528 1.08967,2.29706 1.73979,3.93124 0.65011,1.63419 1.70489,3.60707 2.34394,4.38419 0.63906,0.77713 2.24192,3.37958 3.56192,5.78324 1.62987,2.96791 2.89649,4.84697 3.94725,5.85581 3.88698,3.73191 5.65275,5.61235 5.65275,6.01982 0,0.24285 -0.33765,0.56992 -0.75034,0.72682 -0.41269,0.15691 -0.95269,0.48183 -1.2,0.72206 -0.24731,0.24024 -1.38566,1.14232 -2.52966,2.00463 -1.144,0.86231 -2.872,2.40228 -3.84,3.42216 -1.16876,1.23141 -2.61897,2.30268 -4.31695,3.18894 -1.40632,0.73402 -3.27832,1.85406 -4.16,2.48897 -4.37031,3.14711 -6.29695,4.26318 -8.87039,5.13848 -1.52647,0.51919 -3.46778,1.28902 -4.31403,1.71074 -2.5632,1.27734 -9.47866,2.78275 -12.78369,2.78285 -1.2742,3e-5 -2.45547,0.22258 -3.36,0.63302 -1.64622,0.74699 -3.70944,0.83131 -4.62638,0.18906 z M 88.219398,241.6 c 0.214976,-0.968 0.457914,-2.984 0.539863,-4.48 0.08195,-1.496 0.370349,-4.664 0.640883,-7.04 1.645318,-14.45013 1.645315,-14.45008 2.111795,-23.84 0.309997,-6.24005 0.389943,-7.20663 1.005773,-12.16 0.297779,-2.39516 0.27087,-3.37834 -0.159827,-5.84014 -0.617248,-3.52808 -0.624896,-3.70377 -0.148442,-3.4093 0.252784,0.15623 0.281165,0.0864 0.08987,-0.22112 C 92.14555,184.36225 92.057729,183.8 92.104152,183.36 c 0.06657,-0.63093 0.01568,-0.69856 -0.240804,-0.32 -0.23502,0.34688 -0.276003,0.12502 -0.147779,-0.8 0.132311,-0.95449 0.09113,-1.15793 -0.161926,-0.8 -0.244736,0.34616 -0.285123,-0.23521 -0.144848,-2.08508 0.106979,-1.4108 0.08744,-5.7061 -0.04342,-9.54512 l -0.237933,-6.98002 -0.843721,0.77145 c -0.839623,0.7677 -2.883764,1.51877 -4.133546,1.51877 -0.585418,0 -0.679146,0.26539 -0.875878,2.48 -0.203236,2.28782 -0.776647,5.84765 -1.920055,11.92 -0.248553,1.32 -0.456937,3.18261 -0.463078,4.13914 -0.01584,2.46531 -1.479834,14.55545 -2.269351,18.74086 -1.480556,7.84877 -4.128934,17.06608 -7.953196,27.68 -0.654794,1.81733 -1.308618,5.82288 -1.308618,8.01706 0,1.46536 -0.113747,1.4201 4.697536,1.86911 3.319811,0.30982 4.25169,0.62143 7.774822,2.59981 1.229124,0.69021 2.087351,0.95566 2.874269,0.88902 1.07984,-0.0914 1.136567,-0.161 1.512772,-1.855 z M 56.576234,229.91144 c 0.387072,-0.79671 0.703766,-1.51612 0.703766,-1.5987 0,-0.17142 -3.179578,1.00017 -3.451027,1.27162 -0.23656,0.23656 1.222259,1.77564 1.683043,1.77564 0.19825,0 0.677149,-0.65185 1.064218,-1.44856 z m 39.14935,-94.74898 c 0.629162,-0.17207 0.742432,-0.45377 2.815658,-7.00246 0.891504,-2.816 1.620428,-5.59515 1.619838,-6.17589 -0.001,-1.38928 -0.704546,-2.69867 -1.749435,-3.25788 -0.890919,-0.4768 -0.509834,-0.51548 -7.632679,0.7747 -2.948179,0.53402 -3.684243,0.95912 -5.018419,2.89828 l -0.996953,1.44902 1.273884,3.62764 c 1.415514,4.03095 2.467556,6.4174 3.030106,6.87349 1.320538,1.07062 4.359405,1.44174 6.658,0.8131 z M 118.72,241.44378 c 0,-0.2827 -1.30442,-3.0632 -2.89871,-6.17889 -2.90678,-5.68065 -5.614,-12.08141 -7.13306,-16.86489 -0.72184,-2.27306 -2.85435,-7.70088 -4.59961,-11.70728 -3.07134,-7.05056 -4.86029,-14.78196 -6.472534,-27.97272 -0.537792,-4.4 -1.193414,-8.73266 -1.456944,-9.62812 -0.563481,-1.91472 -0.629526,-4.48117 -0.123366,-4.79399 0.514253,-0.31783 0.913677,0.48217 0.919325,1.84128 0.0026,0.64854 0.144035,1.54512 0.314089,1.9924 0.309469,0.81397 0.939933,5.30026 1.757818,12.50843 1.054322,9.29197 3.728472,20.04962 6.244342,25.12 0.48031,0.968 1.2754,2.84 1.76685,4.16 0.49146,1.32 1.003,2.544 1.13676,2.72 0.13375,0.176 0.82639,2.048 1.53918,4.16 1.65769,4.91172 4.17798,11.52851 5.48485,14.4 0.56071,1.232 1.14185,2.528 1.29143,2.88 0.14958,0.352 0.73465,1.72 1.30014,3.04 1.1984,2.79731 1.61954,4.41127 1.21612,4.66059 -0.15767,0.0975 -0.28668,-0.0541 -0.28668,-0.33681 z M 48.786842,207.97871 c -0.11601,-0.18771 -0.142298,-0.40992 -0.05842,-0.4938 0.08388,-0.0839 0.237779,0.0697 0.342,0.34129 0.216377,0.56387 0.03197,0.66306 -0.283584,0.15251 z M 40,207.64921 c -2.047382,-0.39905 -2.993411,-0.84492 -3.494221,-1.64685 -2.033296,-3.25582 -4.501862,-9.72954 -4.504371,-11.81253 -0.0017,-1.41042 1.695763,-5.3335 2.573843,-5.94853 0.345965,-0.24232 1.086976,-0.89975 1.646688,-1.46094 1.103021,-1.10594 0.43296,-0.13184 -1.059075,1.53964 -1.190282,1.33343 -2.472768,3.92854 -2.647491,5.35718 -0.172909,1.41381 1.664688,6.98528 3.363696,10.19852 1.491619,2.82101 2.506531,3.30152 7.000931,3.31455 4.166288,0.0121 5.341277,-0.38058 7.501741,-2.50697 0.918288,-0.9038 2.054873,-1.90262 2.525753,-2.21959 0.470877,-0.31697 1.159677,-1.17129 1.530669,-1.89849 0.574999,-1.12709 0.653408,-1.72671 0.531389,-4.0637 -0.124771,-2.38966 -0.272714,-2.94684 -1.152752,-4.3415 -1.163875,-1.84448 -1.734906,-4.64 -0.947789,-4.64 0.314851,0 0.666947,0.70542 1.040029,2.0837 0.310218,1.14603 0.670678,2.1496 0.801027,2.23016 0.348151,0.21517 1.609933,-4.36785 1.609933,-5.84757 0,-0.69792 0.354976,-2.04432 0.788835,-2.992 0.80161,-1.75094 2.214538,-6.04181 3.514906,-10.67429 0.991337,-3.53157 1.591123,-11.68614 1.565187,-21.28 l -0.02118,-7.84 0.29743,4.96 c 0.65064,10.85019 0.182311,20.75567 -1.214585,25.68929 -1.115459,3.93963 -2.293527,7.3882 -3.214621,9.4102 -0.428544,0.94075 -0.755958,2.26917 -0.755958,3.06716 0,0.7742 -0.306141,2.33143 -0.680314,3.4605 -0.547712,1.65272 -0.670058,2.73991 -0.627693,5.57773 0.06085,4.07549 -0.425046,5.93258 -1.891686,7.23005 -0.519082,0.45921 -0.843891,0.93482 -0.721802,1.05691 0.122093,0.12209 -0.01459,0.13121 -0.303715,0.0203 -0.36489,-0.14003 -1.06345,0.34033 -2.283638,1.57031 -0.966868,0.97462 -2.093914,1.84862 -2.504548,1.94223 -2.910336,0.6634 -3.811388,0.79657 -5.226604,0.77248 -0.88,-0.015 -2.248,-0.15354 -3.04,-0.30791 z m 102.72,-3.37787 c -1.15932,-0.38194 -1.92,-0.89121 -1.92,-1.28541 0,-0.54024 0.0736,-0.53629 2.13895,0.11474 1.61088,0.50779 1.80722,0.50769 3.22813,-0.002 0.8321,-0.29824 1.84146,-0.54154 2.24302,-0.54067 1.07316,0.002 4.54925,-1.21791 5.75875,-2.02154 2.21191,-1.46965 2.94846,-7.0059 1.34914,-10.14082 -0.35805,-0.70181 -0.51939,-1.27604 -0.35852,-1.27604 0.58019,0 1.96053,4.12954 1.96053,5.86529 0,2.41833 -0.82481,4.92731 -1.96096,5.96502 -1.15348,1.05354 -4.72639,2.56969 -6.05565,2.56969 -0.53017,0 -1.48091,0.216 -2.11275,0.48 -1.10633,0.46225 -3.27324,0.59993 -4.27064,0.27134 z M 65.6,198.13807 c 0,-0.18716 0.13048,-0.42094 0.289958,-0.5195 0.159479,-0.0986 0.218621,-0.452 0.131434,-0.78541 -0.08719,-0.33341 0.28633,-1.56732 0.830042,-2.74201 0.543712,-1.17469 0.988566,-2.40438 0.988566,-2.73264 0,-0.32827 0.146093,-0.9811 0.32465,-1.45074 1.093721,-2.8767 1.682582,-14.11869 0.96806,-18.48136 -0.166969,-1.01948 -0.463008,-3.32348 -0.657862,-5.12 -0.194854,-1.79653 -0.571562,-4.23231 -0.83713,-5.41285 -0.265564,-1.18054 -0.432739,-2.54854 -0.3715,-3.04 0.08662,-0.69511 0.189635,-0.50269 0.463852,0.86644 2.157687,10.77296 2.714007,14.9679 2.702346,20.37696 -0.01411,6.54993 -1.203024,13.30365 -2.939024,16.69553 C 66.517747,197.69875 65.6,198.83568 65.6,198.13807 Z m -34.919194,-8.85693 c -0.946443,-0.80515 -2.190817,-2.07078 -2.765275,-2.81253 C 26.371209,184.47459 23.36,179.89288 23.36,179.53714 c 0,-0.56866 1.424204,-2.40937 3.149164,-4.07014 l 1.709163,-1.64556 0.432349,1.03475 c 0.237791,0.56912 0.666162,1.22881 0.951936,1.46598 0.474586,0.39387 1.437388,1.98018 1.437388,2.36823 0,0.0892 -0.648,-0.53058 -1.44,-1.3773 -0.792,-0.84671 -1.44,-1.68224 -1.44,-1.85674 0,-0.41686 -2.209245,1.7014 -3.13119,3.00224 l -0.721915,1.0186 0.68533,1.2214 c 0.376931,0.67177 1.281219,2.0134 2.009527,2.9814 0.728308,0.968 1.565865,2.13721 1.861238,2.59824 0.295373,0.46103 1.300519,1.56655 2.233658,2.4567 2.16621,2.06642 1.853685,2.47692 -0.415842,0.5462 z m 123.706034,-0.82243 c -0.11601,-0.18771 -0.1423,-0.40992 -0.0584,-0.4938 0.0839,-0.0839 0.23777,0.0697 0.342,0.34129 0.21637,0.56387 0.032,0.66306 -0.28359,0.15251 z M 42.72,187.19601 c -1.634256,-0.33193 -4.895062,-1.55205 -5.119834,-1.91574 -0.0946,-0.15306 -0.985382,-0.51475 -1.97952,-0.80376 -0.994137,-0.289 -2.265068,-0.87445 -2.824291,-1.30098 -0.559219,-0.42654 -1.183173,-0.77553 -1.38656,-0.77553 -0.757763,0 -0.312564,-1.50721 1.080359,-3.65752 0.852195,-1.31557 1.366496,-2.43796 1.264448,-2.75948 -0.198173,-0.6244 0.471366,-4.4809 1.580406,-9.103 0.422298,-1.76 1.002627,-4.208 1.289616,-5.44 0.286989,-1.232 0.832582,-3.32 1.212429,-4.64 0.609027,-2.11643 0.699398,-3.30659 0.764861,-10.07296 0.08221,-8.49707 0.149046,-9.11616 1.242179,-11.506 0.418531,-0.915 1.066797,-2.48105 1.440592,-3.48011 1.172934,-3.13494 5.694467,-8.54202 8.155315,-9.75254 0.704,-0.3463 2.576,-1.02044 4.16,-1.49808 1.584,-0.47764 3.190611,-1.15588 3.57025,-1.50721 0.744931,-0.68937 2.582726,-3.9598 2.998892,-5.33665 0.254119,-0.84073 0.256036,-0.84121 0.283354,-0.0703 0.06014,1.69697 -3.315354,7.2124 -4.342589,7.09562 -0.364224,-0.0414 -4.086073,1.20069 -5.869907,1.95897 -0.792,0.33667 -2.030544,1.21854 -2.75232,1.95971 -2.08904,2.14518 -4.28768,4.95781 -4.28768,5.48505 0,0.26648 -0.131277,0.48452 -0.291725,0.48452 -0.160451,0 -0.576813,0.828 -0.925254,1.84 -0.348439,1.012 -1.031146,2.776 -1.517127,3.92 -0.880105,2.07179 -0.883382,2.10717 -0.829408,8.96 0.05431,6.89585 -0.05607,8.15739 -1.078003,12.32 -0.302461,1.232 -0.973433,4.04 -1.491053,6.24 -0.517622,2.2 -1.223356,5.09651 -1.5683,6.43669 -0.344941,1.34018 -0.668413,3.46165 -0.71882,4.71439 -0.06799,1.68972 -0.260672,2.50631 -0.746403,3.16331 -0.360112,0.48709 -0.906982,1.37338 -1.215261,1.96954 l -0.560512,1.08392 1.005335,0.85804 c 0.552934,0.47192 1.71695,1.11393 2.586701,1.42669 0.86975,0.31276 1.918633,0.83395 2.330851,1.1582 0.412221,0.32425 1.170125,0.68627 1.684233,0.80449 0.514109,0.11821 1.574999,0.42302 2.357533,0.67735 0.859491,0.27934 1.897776,0.38217 2.622538,0.25972 0.659865,-0.11148 1.675613,-0.25136 2.257216,-0.31084 0.581603,-0.0595 1.560509,-0.26415 2.175347,-0.45482 0.614838,-0.19068 1.550838,-0.35069 2.08,-0.35558 0.560906,-0.005 1.486291,-0.40552 2.219117,-0.96 1.173277,-0.88775 2.433923,-1.25903 2.414477,-0.7111 -0.01632,0.4599 -3.356653,2.3217 -4.470007,2.49145 -0.616813,0.094 -2.129475,0.37639 -3.361475,0.62744 -3.450752,0.70318 -4.06273,0.75685 -5.44,0.47712 z m 19.705264,-44.98268 c 0.01536,-0.37278 0.09118,-0.4486 0.193331,-0.19333 0.09244,0.231 0.08107,0.507 -0.02525,0.61333 -0.106336,0.10634 -0.181965,-0.0827 -0.16807,-0.42 z m -2.24,-31.04 c 0.01536,-0.37278 0.09118,-0.4486 0.193331,-0.19333 0.09244,0.231 0.08107,0.507 -0.02525,0.61333 -0.106336,0.10634 -0.181965,-0.0827 -0.16807,-0.42 z M 97.86,110.8214 c 0.230998,-0.0924 0.507002,-0.0811 0.613334,0.0252 0.106333,0.10634 -0.08267,0.18197 -0.42,0.16807 -0.372784,-0.0154 -0.448608,-0.0912 -0.193334,-0.19333 z m -27.46608,-8.26872 c -0.33817,-0.40748 -0.318374,-0.4543 0.120819,-0.28577 0.288893,0.11086 0.525261,0.33016 0.525261,0.48733 0,0.4115 -0.185238,0.35371 -0.64608,-0.20156 z m 42.99275,-2.2186 c 0,-0.25626 0.12234,-0.39031 0.27188,-0.29789 0.14954,0.0924 0.18904,0.30208 0.0878,0.46592 -0.25876,0.41868 -0.35966,0.37154 -0.35966,-0.16803 z"
         id="path173" />
    </g>
  </g>
</svg>
